<svg width="866" height="480" viewBox="0 0 866 480" fill="none" xmlns="http://www.w3.org/2000/svg">
<path d="M1.98254 470.356V447.546H10.9819C12.7046 447.546 14.1748 447.854 15.3925 448.47C16.6177 449.079 17.5495 449.944 18.1881 451.065C18.8341 452.179 19.1571 453.49 19.1571 454.997C19.1571 456.512 18.8304 457.815 18.177 458.906C17.5236 459.991 16.5768 460.822 15.3368 461.401C14.1042 461.981 12.6118 462.27 10.8594 462.27H4.83383V458.394H10.0798C11.0005 458.394 11.7653 458.268 12.3742 458.015C12.983 457.763 13.436 457.384 13.733 456.879C14.0374 456.374 14.1896 455.747 14.1896 454.997C14.1896 454.24 14.0374 453.601 13.733 453.081C13.436 452.562 12.9793 452.168 12.363 451.901C11.7541 451.626 10.9856 451.489 10.0575 451.489H6.80523V470.356H1.98254ZM14.301 459.976L19.9702 470.356H14.6463L9.09962 459.976H14.301ZM29.997 470.69C28.2372 470.69 26.7225 470.334 25.4528 469.621C24.1905 468.901 23.2178 467.884 22.5347 466.569C21.8515 465.248 21.51 463.685 21.51 461.88C21.51 460.121 21.8515 458.576 22.5347 457.247C23.2178 455.918 24.1793 454.882 25.4194 454.139C26.6668 453.397 28.1296 453.026 29.8077 453.026C30.9363 453.026 31.987 453.208 32.9597 453.571C33.9398 453.928 34.7937 454.466 35.5214 455.186C36.2565 455.907 36.8282 456.813 37.2366 457.904C37.645 458.988 37.8492 460.258 37.8492 461.713V463.016H23.4034V460.076H33.3829C33.3829 459.393 33.2344 458.788 32.9374 458.26C32.6404 457.733 32.2283 457.321 31.7011 457.024C31.1813 456.72 30.5762 456.568 29.8856 456.568C29.1654 456.568 28.5268 456.735 27.9699 457.069C27.4205 457.395 26.9898 457.837 26.6779 458.394C26.3661 458.944 26.2064 459.556 26.199 460.232V463.027C26.199 463.874 26.3549 464.605 26.6668 465.222C26.9861 465.838 27.4353 466.313 28.0145 466.647C28.5936 466.981 29.2805 467.149 30.075 467.149C30.6022 467.149 31.0848 467.074 31.5229 466.926C31.961 466.777 32.336 466.554 32.6478 466.257C32.9597 465.96 33.1973 465.597 33.3606 465.166L37.749 465.456C37.5262 466.51 37.0695 467.431 36.379 468.218C35.6959 468.997 34.8123 469.606 33.7282 470.044C32.6515 470.475 31.4078 470.69 29.997 470.69ZM56.4355 453.248L50.4545 470.356H45.1083L39.1273 453.248H44.1393L47.6923 465.489H47.8705L51.4123 453.248H56.4355ZM58.8635 470.356V453.248H63.6083V470.356H58.8635ZM61.247 451.043C60.5416 451.043 59.9365 450.809 59.4316 450.341C58.9341 449.866 58.6853 449.298 58.6853 448.637C58.6853 447.984 58.9341 447.423 59.4316 446.956C59.9365 446.48 60.5416 446.243 61.247 446.243C61.9524 446.243 62.5539 446.48 63.0514 446.956C63.5563 447.423 63.8087 447.984 63.8087 448.637C63.8087 449.298 63.5563 449.866 63.0514 450.341C62.5539 450.809 61.9524 451.043 61.247 451.043ZM75.2055 470.69C73.4458 470.69 71.931 470.334 70.6613 469.621C69.399 468.901 68.4263 467.884 67.7432 466.569C67.0601 465.248 66.7185 463.685 66.7185 461.88C66.7185 460.121 67.0601 458.576 67.7432 457.247C68.4263 455.918 69.3879 454.882 70.6279 454.139C71.8753 453.397 73.3381 453.026 75.0162 453.026C76.1448 453.026 77.1955 453.208 78.1682 453.571C79.1483 453.928 80.0022 454.466 80.7299 455.186C81.465 455.907 82.0368 456.813 82.4451 457.904C82.8535 458.988 83.0577 460.258 83.0577 461.713V463.016H68.6119V460.076H78.5915C78.5915 459.393 78.4429 458.788 78.1459 458.26C77.8489 457.733 77.4368 457.321 76.9096 457.024C76.3899 456.72 75.7847 456.568 75.0942 456.568C74.3739 456.568 73.7354 456.735 73.1785 457.069C72.629 457.395 72.1983 457.837 71.8865 458.394C71.5746 458.944 71.415 459.556 71.4075 460.232V463.027C71.4075 463.874 71.5635 464.605 71.8753 465.222C72.1946 465.838 72.6438 466.313 73.223 466.647C73.8022 466.981 74.489 467.149 75.2835 467.149C75.8107 467.149 76.2933 467.074 76.7314 466.926C77.1695 466.777 77.5445 466.554 77.8564 466.257C78.1682 465.96 78.4058 465.597 78.5692 465.166L82.9575 465.456C82.7347 466.51 82.2781 467.431 81.5875 468.218C80.9044 468.997 80.0208 469.606 78.9367 470.044C77.8601 470.475 76.6163 470.69 75.2055 470.69ZM89.4063 470.356L84.7507 453.248H89.5511L92.2019 464.743H92.3578L95.12 453.248H99.8313L102.638 464.676H102.783L105.389 453.248H110.178L105.534 470.356H100.511L97.5703 459.597H97.3587L94.4183 470.356H89.4063ZM126.944 458.127L122.6 458.394C122.526 458.023 122.366 457.689 122.121 457.392C121.876 457.087 121.553 456.846 121.152 456.668C120.758 456.482 120.287 456.389 119.737 456.389C119.002 456.389 118.382 456.545 117.877 456.857C117.373 457.162 117.12 457.57 117.12 458.082C117.12 458.491 117.283 458.836 117.61 459.118C117.937 459.4 118.497 459.627 119.292 459.798L122.388 460.421C124.052 460.763 125.292 461.312 126.108 462.07C126.925 462.827 127.333 463.822 127.333 465.055C127.333 466.176 127.003 467.16 126.342 468.006C125.689 468.853 124.79 469.513 123.647 469.989C122.511 470.456 121.2 470.69 119.715 470.69C117.45 470.69 115.646 470.219 114.302 469.276C112.966 468.325 112.182 467.033 111.952 465.4L116.619 465.155C116.76 465.845 117.102 466.373 117.644 466.736C118.186 467.093 118.88 467.271 119.726 467.271C120.558 467.271 121.226 467.111 121.731 466.792C122.243 466.465 122.503 466.046 122.511 465.534C122.503 465.103 122.321 464.75 121.965 464.475C121.609 464.193 121.059 463.978 120.317 463.829L117.354 463.239C115.683 462.905 114.44 462.326 113.623 461.502C112.813 460.677 112.409 459.627 112.409 458.35C112.409 457.251 112.706 456.304 113.3 455.509C113.901 454.715 114.744 454.102 115.828 453.672C116.92 453.241 118.197 453.026 119.659 453.026C121.82 453.026 123.521 453.482 124.761 454.396C126.008 455.309 126.736 456.553 126.944 458.127ZM138.627 458.951C138.627 456.189 138.995 453.646 139.73 451.322C140.472 448.998 141.605 446.844 143.127 444.862H147.66C147.081 445.597 146.543 446.495 146.045 447.557C145.548 448.611 145.113 449.77 144.742 451.032C144.371 452.294 144.081 453.601 143.873 454.953C143.665 456.297 143.561 457.629 143.561 458.951C143.561 460.711 143.74 462.489 144.096 464.286C144.46 466.076 144.95 467.739 145.566 469.276C146.19 470.813 146.888 472.071 147.66 473.052H143.127C141.605 471.069 140.472 468.916 139.73 466.592C138.995 464.268 138.627 461.721 138.627 458.951ZM150.369 470.356V466.881L158.489 459.363C159.179 458.695 159.759 458.093 160.226 457.559C160.702 457.024 161.062 456.501 161.307 455.988C161.552 455.469 161.674 454.908 161.674 454.307C161.674 453.638 161.522 453.063 161.218 452.58C160.913 452.09 160.497 451.715 159.97 451.455C159.443 451.188 158.845 451.054 158.177 451.054C157.479 451.054 156.87 451.195 156.35 451.478C155.831 451.76 155.43 452.164 155.147 452.692C154.865 453.219 154.724 453.846 154.724 454.574H150.147C150.147 453.081 150.484 451.786 151.16 450.687C151.836 449.588 152.783 448.738 154 448.136C155.218 447.535 156.621 447.234 158.21 447.234C159.844 447.234 161.266 447.524 162.476 448.103C163.694 448.675 164.641 449.469 165.316 450.486C165.992 451.504 166.33 452.669 166.33 453.984C166.33 454.845 166.159 455.695 165.818 456.534C165.483 457.373 164.886 458.305 164.024 459.33C163.163 460.347 161.949 461.568 160.382 462.994L157.052 466.257V466.413H166.631V470.356H150.369ZM178.167 458.951C178.167 461.721 177.795 464.268 177.053 466.592C176.318 468.916 175.189 471.069 173.667 473.052H169.134C169.713 472.316 170.251 471.418 170.749 470.356C171.246 469.294 171.681 468.136 172.052 466.881C172.423 465.619 172.713 464.312 172.921 462.961C173.129 461.609 173.233 460.273 173.233 458.951C173.233 457.191 173.051 455.417 172.687 453.627C172.33 451.83 171.84 450.167 171.217 448.637C170.6 447.1 169.906 445.842 169.134 444.862H173.667C175.189 446.844 176.318 448.998 177.053 451.322C177.795 453.646 178.167 456.189 178.167 458.951Z" fill="#161616"/>
<path d="M15.6128 117.658C14.372 117.658 13.2565 117.42 12.2665 116.945C11.2831 116.463 10.4977 115.803 9.91024 114.965C9.32282 114.126 9.00931 113.169 8.96971 112.094H11.9398C12.0124 112.965 12.3985 113.681 13.0981 114.242C13.7978 114.803 14.636 115.083 15.6128 115.083C16.3916 115.083 17.0814 114.905 17.682 114.549C18.2892 114.186 18.7644 113.687 19.1076 113.054C19.4574 112.42 19.6323 111.698 19.6323 110.886C19.6323 110.061 19.4541 109.325 19.0977 108.678C18.7413 108.031 18.2496 107.523 17.6226 107.153C17.0022 106.784 16.2893 106.596 15.4841 106.589C14.8703 106.589 14.2532 106.695 13.6328 106.906C13.0123 107.117 12.5107 107.394 12.1279 107.737L9.32612 107.322L10.4647 97.1045H21.6124V99.7281H13.009L12.3655 105.401H12.4843C12.8803 105.018 13.4051 104.698 14.0585 104.441C14.7185 104.183 15.4247 104.054 16.1771 104.054C17.4114 104.054 18.5103 104.348 19.4739 104.936C20.4442 105.523 21.2065 106.325 21.7609 107.341C22.3219 108.351 22.5991 109.513 22.5925 110.826C22.5991 112.14 22.3021 113.311 21.7015 114.341C21.1075 115.371 20.2825 116.182 19.2264 116.776C18.177 117.364 16.9725 117.658 15.6128 117.658ZM45.0217 105.886L42.3387 106.361C42.2265 106.018 42.0483 105.691 41.8041 105.381C41.5665 105.071 41.2431 104.817 40.8339 104.619C40.4246 104.421 39.9131 104.322 39.2993 104.322C38.4611 104.322 37.7615 104.51 37.2004 104.886C36.6394 105.256 36.3589 105.734 36.3589 106.322C36.3589 106.83 36.547 107.239 36.9232 107.549C37.2995 107.86 37.9067 108.114 38.7449 108.312L41.1606 108.866C42.5598 109.189 43.6026 109.688 44.2891 110.361C44.9755 111.034 45.3187 111.909 45.3187 112.985C45.3187 113.895 45.0547 114.707 44.5267 115.42C44.0053 116.126 43.2759 116.681 42.3387 117.083C41.4081 117.486 40.3289 117.687 39.1013 117.687C37.3985 117.687 36.0091 117.324 34.9333 116.598C33.8574 115.866 33.1974 114.826 32.9532 113.48L35.8144 113.044C35.9926 113.79 36.3589 114.354 36.9133 114.737C37.4678 115.113 38.1905 115.301 39.0815 115.301C40.0517 115.301 40.8273 115.1 41.4081 114.697C41.9889 114.288 42.2793 113.79 42.2793 113.202C42.2793 112.727 42.1011 112.328 41.7447 112.004C41.3949 111.681 40.857 111.437 40.1309 111.272L37.5569 110.708C36.1378 110.384 35.0884 109.869 34.4086 109.163C33.7353 108.457 33.3987 107.563 33.3987 106.48C33.3987 105.582 33.6495 104.797 34.1512 104.124C34.6528 103.451 35.3458 102.926 36.2302 102.55C37.1146 102.167 38.1278 101.975 39.2696 101.975C40.9131 101.975 42.2067 102.332 43.1505 103.045C44.0944 103.751 44.7181 104.698 45.0217 105.886ZM55.672 102.173V104.55H47.3656V102.173H55.672ZM49.5932 98.5301H52.5534V112.915C52.5534 113.489 52.6392 113.922 52.8108 114.212C52.9824 114.496 53.2035 114.691 53.4741 114.796C53.7513 114.895 54.0516 114.945 54.375 114.945C54.6126 114.945 54.8205 114.928 54.9987 114.895C55.1769 114.862 55.3155 114.836 55.4145 114.816L55.9492 117.262C55.7776 117.328 55.5334 117.394 55.2165 117.46C54.8997 117.532 54.5037 117.572 54.0285 117.578C53.2497 117.592 52.5237 117.453 51.8504 117.163C51.1772 116.872 50.6327 116.423 50.2169 115.816C49.8011 115.209 49.5932 114.447 49.5932 113.529V98.5301ZM63.3719 117.717C62.4083 117.717 61.5371 117.539 60.7582 117.182C59.9794 116.819 59.3623 116.295 58.9069 115.608C58.4581 114.922 58.2337 114.08 58.2337 113.084C58.2337 112.226 58.3987 111.519 58.7287 110.965C59.0587 110.41 59.5042 109.972 60.0652 109.648C60.6262 109.325 61.2533 109.081 61.9463 108.916C62.6393 108.751 63.3455 108.625 64.0649 108.539C64.9758 108.434 65.715 108.348 66.2826 108.282C66.8502 108.209 67.2627 108.094 67.5202 107.935C67.7776 107.777 67.9063 107.52 67.9063 107.163V107.094C67.9063 106.229 67.6621 105.559 67.1736 105.084C66.6918 104.609 65.9724 104.371 65.0154 104.371C64.0187 104.371 63.2333 104.592 62.6591 105.035C62.0915 105.47 61.6988 105.955 61.481 106.49L58.699 105.856C59.029 104.932 59.5108 104.186 60.1444 103.619C60.7846 103.045 61.5206 102.629 62.3522 102.371C63.1838 102.107 64.0583 101.975 64.9758 101.975C65.583 101.975 66.2265 102.048 66.9063 102.193C67.5928 102.332 68.233 102.589 68.827 102.965C69.4276 103.342 69.9193 103.88 70.3021 104.579C70.685 105.272 70.8764 106.173 70.8764 107.282V117.38H67.9855V115.301H67.8667C67.6753 115.684 67.3881 116.06 67.0053 116.43C66.6225 116.799 66.1308 117.106 65.5302 117.351C64.9296 117.595 64.2101 117.717 63.3719 117.717ZM64.0154 115.341C64.8339 115.341 65.5335 115.179 66.1143 114.856C66.7017 114.532 67.1472 114.11 67.4509 113.588C67.7611 113.06 67.9162 112.496 67.9162 111.896V109.935C67.8106 110.041 67.606 110.14 67.3023 110.232C67.0053 110.318 66.6654 110.394 66.2826 110.46C65.8998 110.519 65.5269 110.575 65.1639 110.628C64.8009 110.674 64.4973 110.714 64.253 110.747C63.6788 110.82 63.1541 110.942 62.6789 111.113C62.2103 111.285 61.8341 111.533 61.5503 111.856C61.2731 112.173 61.1345 112.595 61.1345 113.123C61.1345 113.856 61.4051 114.41 61.9463 114.786C62.4875 115.156 63.1772 115.341 64.0154 115.341ZM74.8192 117.38V102.173H77.6803V104.589H77.8388C78.116 103.771 78.6044 103.127 79.304 102.659C80.0102 102.183 80.8088 101.946 81.6999 101.946C81.8847 101.946 82.1025 101.952 82.3533 101.966C82.6107 101.979 82.812 101.995 82.9572 102.015V104.847C82.8384 104.814 82.6272 104.777 82.3236 104.738C82.02 104.691 81.7164 104.668 81.4128 104.668C80.7131 104.668 80.0894 104.817 79.5416 105.114C79.0004 105.404 78.5714 105.81 78.2546 106.332C77.9378 106.846 77.7793 107.434 77.7793 108.094V117.38H74.8192ZM96.9142 105.886L94.2312 106.361C94.119 106.018 93.9408 105.691 93.6966 105.381C93.459 105.071 93.1356 104.817 92.7263 104.619C92.3171 104.421 91.8056 104.322 91.1918 104.322C90.3536 104.322 89.6539 104.51 89.0929 104.886C88.5319 105.256 88.2514 105.734 88.2514 106.322C88.2514 106.83 88.4395 107.239 88.8157 107.549C89.1919 107.86 89.7992 108.114 90.6374 108.312L93.0531 108.866C94.4523 109.189 95.4951 109.688 96.1816 110.361C96.868 111.034 97.2112 111.909 97.2112 112.985C97.2112 113.895 96.9472 114.707 96.4192 115.42C95.8977 116.126 95.1684 116.681 94.2312 117.083C93.3006 117.486 92.2214 117.687 90.9938 117.687C89.2909 117.687 87.9016 117.324 86.8258 116.598C85.7499 115.866 85.0899 114.826 84.8457 113.48L87.7069 113.044C87.8851 113.79 88.2514 114.354 88.8058 114.737C89.3602 115.113 90.083 115.301 90.974 115.301C91.9442 115.301 92.7197 115.1 93.3006 114.697C93.8814 114.288 94.1718 113.79 94.1718 113.202C94.1718 112.727 93.9936 112.328 93.6372 112.004C93.2874 111.681 92.7494 111.437 92.0234 111.272L89.4493 110.708C88.0303 110.384 86.9809 109.869 86.301 109.163C85.6278 108.457 85.2912 107.563 85.2912 106.48C85.2912 105.582 85.542 104.797 86.0436 104.124C86.5452 103.451 87.2383 102.926 88.1227 102.55C89.0071 102.167 90.0203 101.975 91.1621 101.975C92.8055 101.975 94.0992 102.332 95.043 103.045C95.9868 103.751 96.6106 104.698 96.9142 105.886Z" fill="#4D4D4D"/>
<path d="M15.6128 117.658C14.372 117.658 13.2565 117.42 12.2665 116.945C11.2831 116.463 10.4977 115.803 9.91024 114.965C9.32282 114.126 9.00931 113.169 8.96971 112.094H11.9398C12.0124 112.965 12.3985 113.681 13.0981 114.242C13.7978 114.803 14.636 115.083 15.6128 115.083C16.3916 115.083 17.0814 114.905 17.682 114.549C18.2892 114.186 18.7644 113.687 19.1076 113.054C19.4574 112.42 19.6323 111.698 19.6323 110.886C19.6323 110.061 19.4541 109.325 19.0977 108.678C18.7413 108.031 18.2496 107.523 17.6226 107.153C17.0022 106.784 16.2893 106.596 15.4841 106.589C14.8703 106.589 14.2532 106.695 13.6328 106.906C13.0123 107.117 12.5107 107.394 12.1279 107.737L9.32612 107.322L10.4647 97.1045H21.6124V99.7281H13.009L12.3655 105.401H12.4843C12.8803 105.018 13.4051 104.698 14.0585 104.441C14.7185 104.183 15.4247 104.054 16.1771 104.054C17.4114 104.054 18.5103 104.348 19.4739 104.936C20.4442 105.523 21.2065 106.325 21.7609 107.341C22.3219 108.351 22.5991 109.513 22.5925 110.826C22.5991 112.14 22.3021 113.311 21.7015 114.341C21.1075 115.371 20.2825 116.182 19.2264 116.776C18.177 117.364 16.9725 117.658 15.6128 117.658ZM45.0217 105.886L42.3387 106.361C42.2265 106.018 42.0483 105.691 41.8041 105.381C41.5665 105.071 41.2431 104.817 40.8339 104.619C40.4246 104.421 39.9131 104.322 39.2993 104.322C38.4611 104.322 37.7615 104.51 37.2004 104.886C36.6394 105.256 36.3589 105.734 36.3589 106.322C36.3589 106.83 36.547 107.239 36.9232 107.549C37.2995 107.86 37.9067 108.114 38.7449 108.312L41.1606 108.866C42.5598 109.189 43.6026 109.688 44.2891 110.361C44.9755 111.034 45.3187 111.909 45.3187 112.985C45.3187 113.895 45.0547 114.707 44.5267 115.42C44.0053 116.126 43.2759 116.681 42.3387 117.083C41.4081 117.486 40.3289 117.687 39.1013 117.687C37.3985 117.687 36.0091 117.324 34.9333 116.598C33.8574 115.866 33.1974 114.826 32.9532 113.48L35.8144 113.044C35.9926 113.79 36.3589 114.354 36.9133 114.737C37.4678 115.113 38.1905 115.301 39.0815 115.301C40.0517 115.301 40.8273 115.1 41.4081 114.697C41.9889 114.288 42.2793 113.79 42.2793 113.202C42.2793 112.727 42.1011 112.328 41.7447 112.004C41.3949 111.681 40.857 111.437 40.1309 111.272L37.5569 110.708C36.1378 110.384 35.0884 109.869 34.4086 109.163C33.7353 108.457 33.3987 107.563 33.3987 106.48C33.3987 105.582 33.6495 104.797 34.1512 104.124C34.6528 103.451 35.3458 102.926 36.2302 102.55C37.1146 102.167 38.1278 101.975 39.2696 101.975C40.9131 101.975 42.2067 102.332 43.1505 103.045C44.0944 103.751 44.7181 104.698 45.0217 105.886ZM55.672 102.173V104.55H47.3656V102.173H55.672ZM49.5932 98.5301H52.5534V112.915C52.5534 113.489 52.6392 113.922 52.8108 114.212C52.9824 114.496 53.2035 114.691 53.4741 114.796C53.7513 114.895 54.0516 114.945 54.375 114.945C54.6126 114.945 54.8205 114.928 54.9987 114.895C55.1769 114.862 55.3155 114.836 55.4145 114.816L55.9492 117.262C55.7776 117.328 55.5334 117.394 55.2165 117.46C54.8997 117.532 54.5037 117.572 54.0285 117.578C53.2497 117.592 52.5237 117.453 51.8504 117.163C51.1772 116.872 50.6327 116.423 50.2169 115.816C49.8011 115.209 49.5932 114.447 49.5932 113.529V98.5301ZM63.3719 117.717C62.4083 117.717 61.5371 117.539 60.7582 117.182C59.9794 116.819 59.3623 116.295 58.9069 115.608C58.4581 114.922 58.2337 114.08 58.2337 113.084C58.2337 112.226 58.3987 111.519 58.7287 110.965C59.0587 110.41 59.5042 109.972 60.0652 109.648C60.6262 109.325 61.2533 109.081 61.9463 108.916C62.6393 108.751 63.3455 108.625 64.0649 108.539C64.9758 108.434 65.715 108.348 66.2826 108.282C66.8502 108.209 67.2627 108.094 67.5202 107.935C67.7776 107.777 67.9063 107.52 67.9063 107.163V107.094C67.9063 106.229 67.6621 105.559 67.1736 105.084C66.6918 104.609 65.9724 104.371 65.0154 104.371C64.0187 104.371 63.2333 104.592 62.6591 105.035C62.0915 105.47 61.6988 105.955 61.481 106.49L58.699 105.856C59.029 104.932 59.5108 104.186 60.1444 103.619C60.7846 103.045 61.5206 102.629 62.3522 102.371C63.1838 102.107 64.0583 101.975 64.9758 101.975C65.583 101.975 66.2265 102.048 66.9063 102.193C67.5928 102.332 68.233 102.589 68.827 102.965C69.4276 103.342 69.9193 103.88 70.3021 104.579C70.685 105.272 70.8764 106.173 70.8764 107.282V117.38H67.9855V115.301H67.8667C67.6753 115.684 67.3881 116.06 67.0053 116.43C66.6225 116.799 66.1308 117.106 65.5302 117.351C64.9296 117.595 64.2101 117.717 63.3719 117.717ZM64.0154 115.341C64.8339 115.341 65.5335 115.179 66.1143 114.856C66.7017 114.532 67.1472 114.11 67.4509 113.588C67.7611 113.06 67.9162 112.496 67.9162 111.896V109.935C67.8106 110.041 67.606 110.14 67.3023 110.232C67.0053 110.318 66.6654 110.394 66.2826 110.46C65.8998 110.519 65.5269 110.575 65.1639 110.628C64.8009 110.674 64.4973 110.714 64.253 110.747C63.6788 110.82 63.1541 110.942 62.6789 111.113C62.2103 111.285 61.8341 111.533 61.5503 111.856C61.2731 112.173 61.1345 112.595 61.1345 113.123C61.1345 113.856 61.4051 114.41 61.9463 114.786C62.4875 115.156 63.1772 115.341 64.0154 115.341ZM74.8192 117.38V102.173H77.6803V104.589H77.8388C78.116 103.771 78.6044 103.127 79.304 102.659C80.0102 102.183 80.8088 101.946 81.6999 101.946C81.8847 101.946 82.1025 101.952 82.3533 101.966C82.6107 101.979 82.812 101.995 82.9572 102.015V104.847C82.8384 104.814 82.6272 104.777 82.3236 104.738C82.02 104.691 81.7164 104.668 81.4128 104.668C80.7131 104.668 80.0894 104.817 79.5416 105.114C79.0004 105.404 78.5714 105.81 78.2546 106.332C77.9378 106.846 77.7793 107.434 77.7793 108.094V117.38H74.8192ZM96.9142 105.886L94.2312 106.361C94.119 106.018 93.9408 105.691 93.6966 105.381C93.459 105.071 93.1356 104.817 92.7263 104.619C92.3171 104.421 91.8056 104.322 91.1918 104.322C90.3536 104.322 89.6539 104.51 89.0929 104.886C88.5319 105.256 88.2514 105.734 88.2514 106.322C88.2514 106.83 88.4395 107.239 88.8157 107.549C89.1919 107.86 89.7992 108.114 90.6374 108.312L93.0531 108.866C94.4523 109.189 95.4951 109.688 96.1816 110.361C96.868 111.034 97.2112 111.909 97.2112 112.985C97.2112 113.895 96.9472 114.707 96.4192 115.42C95.8977 116.126 95.1684 116.681 94.2312 117.083C93.3006 117.486 92.2214 117.687 90.9938 117.687C89.2909 117.687 87.9016 117.324 86.8258 116.598C85.7499 115.866 85.0899 114.826 84.8457 113.48L87.7069 113.044C87.8851 113.79 88.2514 114.354 88.8058 114.737C89.3602 115.113 90.083 115.301 90.974 115.301C91.9442 115.301 92.7197 115.1 93.3006 114.697C93.8814 114.288 94.1718 113.79 94.1718 113.202C94.1718 112.727 93.9936 112.328 93.6372 112.004C93.2874 111.681 92.7494 111.437 92.0234 111.272L89.4493 110.708C88.0303 110.384 86.9809 109.869 86.301 109.163C85.6278 108.457 85.2912 107.563 85.2912 106.48C85.2912 105.582 85.542 104.797 86.0436 104.124C86.5452 103.451 87.2383 102.926 88.1227 102.55C89.0071 102.167 90.0203 101.975 91.1621 101.975C92.8055 101.975 94.0992 102.332 95.043 103.045C95.9868 103.751 96.6106 104.698 96.9142 105.886Z" fill="#4D4D4D"/>
<path d="M803.385 97.1045V117.38H800.316V100.174H800.198L795.346 103.342V100.411L800.405 97.1045H803.385ZM815.929 117.717C814.365 117.71 813.028 117.298 811.92 116.479C810.811 115.661 809.963 114.47 809.375 112.905C808.788 111.341 808.494 109.457 808.494 107.252C808.494 105.054 808.788 103.177 809.375 101.619C809.969 100.061 810.821 98.8733 811.929 98.0549C813.045 97.2365 814.378 96.8273 815.929 96.8273C817.48 96.8273 818.81 97.2398 819.919 98.0648C821.028 98.8832 821.876 100.071 822.463 101.629C823.057 103.18 823.354 105.054 823.354 107.252C823.354 109.463 823.061 111.351 822.473 112.915C821.886 114.473 821.038 115.664 819.929 116.489C818.82 117.308 817.487 117.717 815.929 117.717ZM815.929 115.074C817.302 115.074 818.375 114.404 819.147 113.064C819.926 111.724 820.315 109.787 820.315 107.252C820.315 105.569 820.137 104.147 819.78 102.985C819.431 101.817 818.926 100.933 818.266 100.332C817.612 99.7248 816.833 99.4211 815.929 99.4211C814.563 99.4211 813.49 100.094 812.712 101.441C811.933 102.787 811.54 104.724 811.533 107.252C811.533 108.942 811.708 110.371 812.058 111.539C812.415 112.701 812.919 113.582 813.573 114.183C814.226 114.777 815.012 115.074 815.929 115.074ZM833.925 117.717C832.361 117.71 831.025 117.298 829.916 116.479C828.807 115.661 827.959 114.47 827.371 112.905C826.784 111.341 826.49 109.457 826.49 107.252C826.49 105.054 826.784 103.177 827.371 101.619C827.965 100.061 828.817 98.8733 829.926 98.0549C831.041 97.2365 832.374 96.8273 833.925 96.8273C835.477 96.8273 836.806 97.2398 837.915 98.0648C839.024 98.8832 839.872 100.071 840.46 101.629C841.054 103.18 841.351 105.054 841.351 107.252C841.351 109.463 841.057 111.351 840.47 112.915C839.882 114.473 839.034 115.664 837.925 116.489C836.816 117.308 835.483 117.717 833.925 117.717ZM833.925 115.074C835.298 115.074 836.371 114.404 837.143 113.064C837.922 111.724 838.311 109.787 838.311 107.252C838.311 105.569 838.133 104.147 837.777 102.985C837.427 101.817 836.922 100.933 836.262 100.332C835.609 99.7248 834.83 99.4211 833.925 99.4211C832.559 99.4211 831.487 100.094 830.708 101.441C829.929 102.787 829.536 104.724 829.53 107.252C829.53 108.942 829.705 110.371 830.054 111.539C830.411 112.701 830.916 113.582 831.569 114.183C832.223 114.777 833.008 115.074 833.925 115.074ZM855.446 113.579V112.509C855.446 111.744 855.605 111.044 855.921 110.41C856.245 109.77 856.713 109.259 857.327 108.876C857.948 108.487 858.697 108.292 859.575 108.292C860.472 108.292 861.225 108.483 861.832 108.866C862.439 109.249 862.898 109.76 863.208 110.401C863.525 111.041 863.683 111.744 863.683 112.509V113.579C863.683 114.344 863.525 115.047 863.208 115.687C862.891 116.321 862.426 116.832 861.812 117.222C861.205 117.605 860.459 117.796 859.575 117.796C858.684 117.796 857.931 117.605 857.317 117.222C856.704 116.832 856.238 116.321 855.921 115.687C855.605 115.047 855.446 114.344 855.446 113.579ZM857.753 112.509V113.579C857.753 114.146 857.888 114.661 858.159 115.123C858.43 115.585 858.901 115.816 859.575 115.816C860.241 115.816 860.707 115.585 860.971 115.123C861.235 114.661 861.367 114.146 861.367 113.579V112.509C861.367 111.942 861.238 111.427 860.981 110.965C860.73 110.503 860.261 110.272 859.575 110.272C858.915 110.272 858.446 110.503 858.169 110.965C857.892 111.427 857.753 111.942 857.753 112.509ZM845.249 101.975V100.906C845.249 100.141 845.407 99.4376 845.724 98.7974C846.048 98.1572 846.516 97.6457 847.13 97.2629C847.75 96.8801 848.5 96.6887 849.377 96.6887C850.275 96.6887 851.027 96.8801 851.635 97.2629C852.242 97.6457 852.701 98.1572 853.011 98.7974C853.321 99.4376 853.476 100.141 853.476 100.906V101.975C853.476 102.741 853.318 103.444 853.001 104.084C852.691 104.718 852.229 105.229 851.615 105.619C851.008 106.002 850.262 106.193 849.377 106.193C848.48 106.193 847.724 106.002 847.11 105.619C846.503 105.229 846.041 104.718 845.724 104.084C845.407 103.444 845.249 102.741 845.249 101.975ZM847.566 100.906V101.975C847.566 102.543 847.698 103.058 847.962 103.52C848.232 103.982 848.704 104.213 849.377 104.213C850.037 104.213 850.499 103.982 850.763 103.52C851.034 103.058 851.169 102.543 851.169 101.975V100.906C851.169 100.339 851.041 99.8238 850.783 99.3617C850.526 98.8997 850.057 98.6687 849.377 98.6687C848.717 98.6687 848.249 98.8997 847.972 99.3617C847.701 99.8238 847.566 100.339 847.566 100.906ZM846.189 117.38L860.129 97.1045H862.495L848.556 117.38H846.189Z" fill="#4D4D4D"/>
<path d="M833.925 178.703C832.361 178.696 831.025 178.284 829.916 177.465C828.807 176.647 827.959 175.456 827.371 173.891C826.784 172.327 826.49 170.443 826.49 168.238C826.49 166.04 826.784 164.163 827.371 162.605C827.965 161.047 828.817 159.859 829.926 159.041C831.041 158.222 832.374 157.813 833.925 157.813C835.477 157.813 836.806 158.226 837.915 159.051C839.024 159.869 839.872 161.057 840.46 162.615C841.054 164.166 841.351 166.04 841.351 168.238C841.351 170.449 841.057 172.337 840.47 173.901C839.882 175.459 839.034 176.65 837.925 177.475C836.816 178.294 835.483 178.703 833.925 178.703ZM833.925 176.059C835.298 176.059 836.371 175.39 837.143 174.05C837.922 172.71 838.311 170.773 838.311 168.238C838.311 166.555 838.133 165.133 837.777 163.971C837.427 162.803 836.922 161.918 836.262 161.318C835.609 160.711 834.83 160.407 833.925 160.407C832.559 160.407 831.487 161.08 830.708 162.427C829.929 163.773 829.536 165.71 829.53 168.238C829.53 169.928 829.705 171.357 830.054 172.525C830.411 173.687 830.916 174.568 831.569 175.168C832.223 175.762 833.008 176.059 833.925 176.059ZM855.446 174.564V173.495C855.446 172.73 855.605 172.03 855.921 171.396C856.245 170.756 856.714 170.245 857.327 169.862C857.948 169.472 858.697 169.278 859.575 169.278C860.472 169.278 861.225 169.469 861.832 169.852C862.439 170.235 862.898 170.746 863.208 171.386C863.525 172.027 863.683 172.73 863.683 173.495V174.564C863.683 175.33 863.525 176.033 863.208 176.673C862.891 177.307 862.426 177.818 861.812 178.208C861.205 178.591 860.459 178.782 859.575 178.782C858.684 178.782 857.931 178.591 857.317 178.208C856.704 177.818 856.238 177.307 855.921 176.673C855.605 176.033 855.446 175.33 855.446 174.564ZM857.753 173.495V174.564C857.753 175.132 857.888 175.647 858.159 176.109C858.43 176.571 858.901 176.802 859.575 176.802C860.241 176.802 860.707 176.571 860.971 176.109C861.235 175.647 861.367 175.132 861.367 174.564V173.495C861.367 172.928 861.238 172.413 860.981 171.951C860.73 171.489 860.261 171.258 859.575 171.258C858.915 171.258 858.446 171.489 858.169 171.951C857.892 172.413 857.753 172.928 857.753 173.495ZM845.249 162.961V161.892C845.249 161.126 845.407 160.424 845.724 159.783C846.048 159.143 846.516 158.632 847.13 158.249C847.75 157.866 848.5 157.675 849.377 157.675C850.275 157.675 851.027 157.866 851.635 158.249C852.242 158.632 852.701 159.143 853.011 159.783C853.321 160.424 853.476 161.126 853.476 161.892V162.961C853.476 163.727 853.318 164.43 853.001 165.07C852.691 165.704 852.229 166.215 851.615 166.605C851.008 166.987 850.262 167.179 849.377 167.179C848.48 167.179 847.724 166.987 847.11 166.605C846.503 166.215 846.041 165.704 845.724 165.07C845.407 164.43 845.249 163.727 845.249 162.961ZM847.566 161.892V162.961C847.566 163.529 847.698 164.044 847.962 164.506C848.232 164.968 848.704 165.199 849.377 165.199C850.037 165.199 850.499 164.968 850.763 164.506C851.034 164.044 851.169 163.529 851.169 162.961V161.892C851.169 161.324 851.041 160.81 850.783 160.348C850.526 159.886 850.057 159.655 849.377 159.655C848.717 159.655 848.249 159.886 847.972 160.348C847.701 160.81 847.566 161.324 847.566 161.892ZM846.189 178.366L860.129 158.09H862.495L848.556 178.366H846.189Z" fill="#4D4D4D"/>
<path d="M833.925 239.689C832.361 239.682 831.025 239.27 829.916 238.451C828.807 237.633 827.959 236.441 827.371 234.877C826.784 233.313 826.49 231.429 826.49 229.224C826.49 227.026 826.784 225.148 827.371 223.591C827.965 222.033 828.817 220.845 829.926 220.027C831.041 219.208 832.374 218.799 833.925 218.799C835.477 218.799 836.806 219.212 837.915 220.037C839.024 220.855 839.872 222.043 840.46 223.601C841.054 225.152 841.351 227.026 841.351 229.224C841.351 231.435 841.057 233.323 840.47 234.887C839.882 236.445 839.034 237.636 837.925 238.461C836.816 239.28 835.483 239.689 833.925 239.689ZM833.925 237.045C835.298 237.045 836.371 236.375 837.143 235.036C837.922 233.696 838.311 231.759 838.311 229.224C838.311 227.541 838.133 226.119 837.777 224.957C837.427 223.789 836.922 222.904 836.262 222.304C835.609 221.697 834.83 221.393 833.925 221.393C832.559 221.393 831.487 222.066 830.708 223.413C829.929 224.759 829.536 226.696 829.53 229.224C829.53 230.914 829.705 232.343 830.054 233.511C830.411 234.673 830.916 235.554 831.569 236.154C832.223 236.748 833.008 237.045 833.925 237.045ZM855.446 235.55V234.481C855.446 233.716 855.605 233.016 855.921 232.382C856.245 231.742 856.714 231.231 857.327 230.848C857.948 230.458 858.697 230.264 859.575 230.264C860.472 230.264 861.225 230.455 861.832 230.838C862.439 231.221 862.898 231.732 863.208 232.372C863.525 233.013 863.683 233.716 863.683 234.481V235.55C863.683 236.316 863.525 237.019 863.208 237.659C862.891 238.293 862.426 238.804 861.812 239.194C861.205 239.577 860.459 239.768 859.575 239.768C858.684 239.768 857.931 239.577 857.317 239.194C856.704 238.804 856.238 238.293 855.921 237.659C855.605 237.019 855.446 236.316 855.446 235.55ZM857.753 234.481V235.55C857.753 236.118 857.888 236.633 858.159 237.095C858.43 237.557 858.901 237.788 859.575 237.788C860.241 237.788 860.707 237.557 860.971 237.095C861.235 236.633 861.367 236.118 861.367 235.55V234.481C861.367 233.914 861.238 233.399 860.981 232.937C860.73 232.475 860.261 232.244 859.575 232.244C858.915 232.244 858.446 232.475 858.169 232.937C857.892 233.399 857.753 233.914 857.753 234.481ZM845.249 223.947V222.878C845.249 222.112 845.407 221.409 845.724 220.769C846.048 220.129 846.516 219.617 847.13 219.235C847.75 218.852 848.5 218.66 849.377 218.66C850.275 218.66 851.027 218.852 851.635 219.235C852.242 219.617 852.701 220.129 853.011 220.769C853.321 221.409 853.476 222.112 853.476 222.878V223.947C853.476 224.713 853.318 225.416 853.001 226.056C852.691 226.69 852.229 227.201 851.615 227.591C851.008 227.973 850.262 228.165 849.377 228.165C848.48 228.165 847.724 227.973 847.11 227.591C846.503 227.201 846.041 226.69 845.724 226.056C845.407 225.416 845.249 224.713 845.249 223.947ZM847.566 222.878V223.947C847.566 224.515 847.698 225.03 847.962 225.492C848.232 225.954 848.704 226.185 849.377 226.185C850.037 226.185 850.499 225.954 850.763 225.492C851.034 225.03 851.169 224.515 851.169 223.947V222.878C851.169 222.31 851.041 221.796 850.783 221.334C850.526 220.872 850.057 220.641 849.377 220.641C848.717 220.641 848.249 220.872 847.972 221.334C847.701 221.796 847.566 222.31 847.566 222.878ZM846.189 239.352L860.129 219.076H862.495L848.556 239.352H846.189Z" fill="#4D4D4D"/>
<path d="M833.925 300.675C832.361 300.668 831.025 300.256 829.916 299.437C828.807 298.619 827.959 297.427 827.371 295.863C826.784 294.299 826.49 292.414 826.49 290.21C826.49 288.012 826.784 286.134 827.371 284.577C827.965 283.019 828.817 281.831 829.926 281.013C831.041 280.194 832.374 279.785 833.925 279.785C835.477 279.785 836.806 280.198 837.915 281.023C839.024 281.841 839.872 283.029 840.46 284.587C841.054 286.138 841.351 288.012 841.351 290.21C841.351 292.421 841.057 294.309 840.47 295.873C839.882 297.431 839.034 298.622 837.925 299.447C836.816 300.265 835.483 300.675 833.925 300.675ZM833.925 298.031C835.298 298.031 836.371 297.361 837.143 296.022C837.922 294.682 838.311 292.745 838.311 290.21C838.311 288.527 838.133 287.105 837.777 285.943C837.427 284.775 836.922 283.89 836.262 283.29C835.609 282.682 834.83 282.379 833.925 282.379C832.559 282.379 831.487 283.052 830.708 284.399C829.929 285.745 829.536 287.682 829.53 290.21C829.53 291.9 829.705 293.329 830.054 294.497C830.411 295.658 830.916 296.54 831.569 297.14C832.223 297.734 833.008 298.031 833.925 298.031ZM855.446 296.536V295.467C855.446 294.701 855.605 294.002 855.921 293.368C856.245 292.728 856.714 292.216 857.327 291.834C857.948 291.444 858.697 291.25 859.575 291.25C860.472 291.25 861.225 291.441 861.832 291.824C862.439 292.207 862.898 292.718 863.208 293.358C863.525 293.999 863.683 294.701 863.683 295.467V296.536C863.683 297.302 863.525 298.005 863.208 298.645C862.891 299.279 862.426 299.79 861.812 300.18C861.205 300.562 860.459 300.754 859.575 300.754C858.684 300.754 857.931 300.562 857.317 300.18C856.704 299.79 856.238 299.279 855.921 298.645C855.605 298.005 855.446 297.302 855.446 296.536ZM857.753 295.467V296.536C857.753 297.104 857.888 297.619 858.159 298.081C858.43 298.543 858.901 298.774 859.575 298.774C860.241 298.774 860.707 298.543 860.971 298.081C861.235 297.619 861.367 297.104 861.367 296.536V295.467C861.367 294.899 861.238 294.385 860.981 293.923C860.73 293.461 860.261 293.23 859.575 293.23C858.915 293.23 858.446 293.461 858.169 293.923C857.892 294.385 857.753 294.899 857.753 295.467ZM845.249 284.933V283.864C845.249 283.098 845.407 282.395 845.724 281.755C846.048 281.115 846.516 280.603 847.13 280.221C847.75 279.838 848.5 279.646 849.377 279.646C850.275 279.646 851.027 279.838 851.635 280.221C852.242 280.603 852.701 281.115 853.011 281.755C853.321 282.395 853.476 283.098 853.476 283.864V284.933C853.476 285.699 853.318 286.402 853.001 287.042C852.691 287.676 852.229 288.187 851.615 288.576C851.008 288.959 850.262 289.151 849.377 289.151C848.48 289.151 847.724 288.959 847.11 288.576C846.503 288.187 846.041 287.676 845.724 287.042C845.407 286.402 845.249 285.699 845.249 284.933ZM847.566 283.864V284.933C847.566 285.501 847.698 286.016 847.962 286.478C848.232 286.94 848.704 287.171 849.377 287.171C850.037 287.171 850.499 286.94 850.763 286.478C851.034 286.016 851.169 285.501 851.169 284.933V283.864C851.169 283.296 851.041 282.781 850.783 282.319C850.526 281.857 850.057 281.626 849.377 281.626C848.717 281.626 848.249 281.857 847.972 282.319C847.701 282.781 847.566 283.296 847.566 283.864ZM846.189 300.338L860.129 280.062H862.495L848.556 300.338H846.189Z" fill="#4D4D4D"/>
<path d="M833.925 361.661C832.361 361.654 831.025 361.241 829.916 360.423C828.807 359.605 827.959 358.413 827.371 356.849C826.784 355.285 826.49 353.4 826.49 351.196C826.49 348.998 826.784 347.12 827.371 345.563C827.965 344.005 828.817 342.817 829.926 341.999C831.041 341.18 832.374 340.771 833.925 340.771C835.477 340.771 836.806 341.183 837.915 342.008C839.024 342.827 839.872 344.015 840.46 345.573C841.054 347.124 841.351 348.998 841.351 351.196C841.351 353.407 841.057 355.295 840.47 356.859C839.882 358.417 839.034 359.608 837.925 360.433C836.816 361.251 835.483 361.661 833.925 361.661ZM833.925 359.017C835.298 359.017 836.371 358.347 837.143 357.007C837.922 355.668 838.311 353.73 838.311 351.196C838.311 349.513 838.133 348.091 837.777 346.929C837.427 345.761 836.922 344.876 836.262 344.276C835.609 343.668 834.83 343.365 833.925 343.365C832.559 343.365 831.487 344.038 830.708 345.384C829.929 346.731 829.536 348.668 829.53 351.196C829.53 352.886 829.705 354.315 830.054 355.483C830.411 356.644 830.916 357.526 831.569 358.126C832.223 358.72 833.008 359.017 833.925 359.017ZM855.446 357.522V356.453C855.446 355.687 855.605 354.988 855.921 354.354C856.245 353.714 856.714 353.202 857.327 352.82C857.948 352.43 858.697 352.235 859.575 352.235C860.472 352.235 861.225 352.427 861.832 352.81C862.439 353.193 862.898 353.704 863.208 354.344C863.525 354.984 863.683 355.687 863.683 356.453V357.522C863.683 358.288 863.525 358.991 863.208 359.631C862.891 360.265 862.426 360.776 861.812 361.166C861.205 361.548 860.459 361.74 859.575 361.74C858.684 361.74 857.931 361.548 857.317 361.166C856.704 360.776 856.238 360.265 855.921 359.631C855.605 358.991 855.446 358.288 855.446 357.522ZM857.753 356.453V357.522C857.753 358.09 857.888 358.605 858.159 359.067C858.43 359.529 858.901 359.76 859.575 359.76C860.241 359.76 860.707 359.529 860.971 359.067C861.235 358.605 861.367 358.09 861.367 357.522V356.453C861.367 355.885 861.238 355.371 860.981 354.909C860.73 354.447 860.261 354.216 859.575 354.216C858.915 354.216 858.446 354.447 858.169 354.909C857.892 355.371 857.753 355.885 857.753 356.453ZM845.249 345.919V344.85C845.249 344.084 845.407 343.381 845.724 342.741C846.048 342.101 846.516 341.589 847.13 341.207C847.75 340.824 848.5 340.632 849.377 340.632C850.275 340.632 851.027 340.824 851.635 341.207C852.242 341.589 852.701 342.101 853.011 342.741C853.321 343.381 853.476 344.084 853.476 344.85V345.919C853.476 346.685 853.318 347.388 853.001 348.028C852.691 348.661 852.229 349.173 851.615 349.562C851.008 349.945 850.262 350.137 849.377 350.137C848.48 350.137 847.724 349.945 847.11 349.562C846.503 349.173 846.041 348.661 845.724 348.028C845.407 347.388 845.249 346.685 845.249 345.919ZM847.566 344.85V345.919C847.566 346.487 847.698 347.002 847.962 347.464C848.232 347.926 848.704 348.157 849.377 348.157C850.037 348.157 850.499 347.926 850.763 347.464C851.034 347.002 851.169 346.487 851.169 345.919V344.85C851.169 344.282 851.041 343.767 850.783 343.305C850.526 342.843 850.057 342.612 849.377 342.612C848.717 342.612 848.249 342.843 847.972 343.305C847.701 343.767 847.566 344.282 847.566 344.85ZM846.189 361.324L860.129 341.048H862.495L848.556 361.324H846.189Z" fill="#4D4D4D"/>
<path d="M8.4945 174.406V171.931L17.2563 158.09H19.2066V161.734H17.9691L11.7022 171.654V171.812H23.7113V174.406H8.4945ZM18.1077 178.366V173.654L18.1275 172.525V158.09H21.0283V178.366H18.1077ZM45.9746 166.872L43.2916 167.347C43.1794 167.004 43.0012 166.677 42.757 166.367C42.5194 166.057 42.196 165.803 41.7868 165.605C41.3776 165.407 40.866 165.308 40.2522 165.308C39.414 165.308 38.7144 165.496 38.1534 165.872C37.5923 166.242 37.3118 166.72 37.3118 167.308C37.3118 167.816 37.4999 168.225 37.8761 168.535C38.2524 168.845 38.8596 169.1 39.6978 169.298L42.1135 169.852C43.5127 170.175 44.5556 170.674 45.242 171.347C45.9284 172.02 46.2716 172.895 46.2716 173.97C46.2716 174.881 46.0076 175.693 45.4796 176.406C44.9582 177.112 44.2288 177.667 43.2916 178.069C42.361 178.472 41.2819 178.673 40.0542 178.673C38.3514 178.673 36.962 178.31 35.8862 177.584C34.8103 176.851 34.1503 175.812 33.9061 174.465L36.7673 174.03C36.9455 174.776 37.3118 175.34 37.8662 175.723C38.4207 176.099 39.1434 176.287 40.0344 176.287C41.0046 176.287 41.7802 176.086 42.361 175.683C42.9418 175.274 43.2322 174.776 43.2322 174.188C43.2322 173.713 43.054 173.314 42.6976 172.99C42.3478 172.667 41.8099 172.423 41.0838 172.258L38.5098 171.693C37.0907 171.37 36.0413 170.855 35.3615 170.149C34.6882 169.443 34.3516 168.548 34.3516 167.466C34.3516 166.568 34.6024 165.783 35.1041 165.11C35.6057 164.436 36.2987 163.912 37.1831 163.536C38.0676 163.153 39.0807 162.961 40.2225 162.961C41.866 162.961 43.1596 163.318 44.1034 164.031C45.0473 164.737 45.671 165.684 45.9746 166.872ZM56.6249 163.159V165.535H48.3185V163.159H56.6249ZM50.5461 159.516H53.5063V173.901C53.5063 174.475 53.5921 174.908 53.7637 175.198C53.9353 175.482 54.1564 175.677 54.427 175.782C54.7042 175.881 55.0045 175.931 55.3279 175.931C55.5655 175.931 55.7734 175.914 55.9516 175.881C56.1298 175.848 56.2684 175.822 56.3675 175.802L56.9021 178.247C56.7305 178.313 56.4863 178.379 56.1694 178.445C55.8526 178.518 55.4566 178.558 54.9814 178.564C54.2026 178.577 53.4766 178.439 52.8033 178.148C52.1301 177.858 51.5856 177.409 51.1698 176.802C50.754 176.195 50.5461 175.432 50.5461 174.515V159.516ZM64.3248 178.703C63.3612 178.703 62.49 178.525 61.7111 178.168C60.9323 177.805 60.3152 177.28 59.8598 176.594C59.411 175.908 59.1866 175.066 59.1866 174.069C59.1866 173.211 59.3516 172.505 59.6816 171.951C60.0116 171.396 60.4571 170.957 61.0181 170.634C61.5791 170.311 62.2062 170.066 62.8992 169.901C63.5922 169.736 64.2984 169.611 65.0178 169.525C65.9287 169.42 66.6679 169.334 67.2355 169.268C67.8031 169.195 68.2156 169.08 68.4731 168.921C68.7305 168.763 68.8592 168.506 68.8592 168.149V168.08C68.8592 167.215 68.615 166.545 68.1265 166.07C67.6447 165.595 66.9253 165.357 65.9683 165.357C64.9716 165.357 64.1862 165.578 63.612 166.021C63.0444 166.456 62.6517 166.941 62.4339 167.476L59.6519 166.842C59.9819 165.918 60.4637 165.172 61.0973 164.605C61.7375 164.031 62.4735 163.615 63.3051 163.357C64.1367 163.093 65.0112 162.961 65.9287 162.961C66.5359 162.961 67.1794 163.034 67.8592 163.179C68.5457 163.318 69.1859 163.575 69.7799 163.951C70.3805 164.328 70.8722 164.865 71.255 165.565C71.6379 166.258 71.8293 167.159 71.8293 168.268V178.366H68.9384V176.287H68.8196C68.6282 176.67 68.3411 177.046 67.9582 177.416C67.5754 177.785 67.0837 178.092 66.4831 178.337C65.8825 178.581 65.1631 178.703 64.3248 178.703ZM64.9683 176.327C65.7868 176.327 66.4864 176.165 67.0672 175.842C67.6546 175.518 68.1001 175.096 68.4038 174.574C68.714 174.046 68.8691 173.482 68.8691 172.881V170.921C68.7635 171.027 68.5589 171.126 68.2552 171.218C67.9582 171.304 67.6183 171.38 67.2355 171.446C66.8527 171.505 66.4798 171.561 66.1168 171.614C65.7538 171.66 65.4502 171.7 65.206 171.733C64.6317 171.806 64.107 171.928 63.6318 172.099C63.1632 172.271 62.787 172.518 62.5032 172.842C62.226 173.159 62.0874 173.581 62.0874 174.109C62.0874 174.842 62.358 175.396 62.8992 175.772C63.4404 176.142 64.1301 176.327 64.9683 176.327ZM75.7721 178.366V163.159H78.6332V165.575H78.7917C79.0689 164.757 79.5573 164.113 80.2569 163.644C80.9631 163.169 81.7617 162.932 82.6528 162.932C82.8376 162.932 83.0554 162.938 83.3062 162.951C83.5636 162.965 83.7649 162.981 83.9101 163.001V165.832C83.7913 165.799 83.5801 165.763 83.2765 165.724C82.9729 165.677 82.6693 165.654 82.3657 165.654C81.666 165.654 81.0423 165.803 80.4945 166.1C79.9533 166.39 79.5243 166.796 79.2075 167.317C78.8907 167.832 78.7323 168.42 78.7323 169.08V178.366H75.7721ZM97.8671 166.872L95.1841 167.347C95.0719 167.004 94.8937 166.677 94.6495 166.367C94.4119 166.057 94.0885 165.803 93.6792 165.605C93.27 165.407 92.7585 165.308 92.1447 165.308C91.3065 165.308 90.6069 165.496 90.0458 165.872C89.4848 166.242 89.2043 166.72 89.2043 167.308C89.2043 167.816 89.3924 168.225 89.7686 168.535C90.1448 168.845 90.7521 169.1 91.5903 169.298L94.006 169.852C95.4052 170.175 96.448 170.674 97.1345 171.347C97.8209 172.02 98.1641 172.895 98.1641 173.97C98.1641 174.881 97.9001 175.693 97.3721 176.406C96.8506 177.112 96.1213 177.667 95.1841 178.069C94.2535 178.472 93.1743 178.673 91.9467 178.673C90.2438 178.673 88.8545 178.31 87.7787 177.584C86.7028 176.851 86.0428 175.812 85.7986 174.465L88.6598 174.03C88.838 174.776 89.2043 175.34 89.7587 175.723C90.3131 176.099 91.0359 176.287 91.9269 176.287C92.8971 176.287 93.6726 176.086 94.2535 175.683C94.8343 175.274 95.1247 174.776 95.1247 174.188C95.1247 173.713 94.9465 173.314 94.5901 172.99C94.2403 172.667 93.7023 172.423 92.9763 172.258L90.4022 171.693C88.9832 171.37 87.9338 170.855 87.2539 170.149C86.5807 169.443 86.2441 168.548 86.2441 167.466C86.2441 166.568 86.4949 165.783 86.9965 165.11C87.4982 164.436 88.1912 163.912 89.0756 163.536C89.96 163.153 90.9732 162.961 92.115 162.961C93.7584 162.961 95.0521 163.318 95.9959 164.031C96.9397 164.737 97.5635 165.684 97.8671 166.872Z" fill="#4D4D4D"/>
<path d="M15.9791 239.629C14.6195 239.629 13.4051 239.395 12.3358 238.926C11.2732 238.458 10.4317 237.808 9.81124 236.976C9.19742 236.138 8.86741 235.168 8.82121 234.065H11.9299C11.9695 234.666 12.1708 235.187 12.5338 235.63C12.9034 236.065 13.3853 236.402 13.9793 236.639C14.5733 236.877 15.2333 236.996 15.9593 236.996C16.758 236.996 17.4642 236.857 18.078 236.58C18.6984 236.303 19.1835 235.917 19.5333 235.422C19.8832 234.92 20.0581 234.343 20.0581 233.689C20.0581 233.009 19.8832 232.412 19.5333 231.897C19.1901 231.376 18.6852 230.967 18.0186 230.67C17.3586 230.373 16.56 230.224 15.6227 230.224H13.91V227.729H15.6227C16.3751 227.729 17.0352 227.594 17.6028 227.323C18.177 227.053 18.6258 226.676 18.9492 226.195C19.2726 225.706 19.4343 225.135 19.4343 224.482C19.4343 223.855 19.2924 223.31 19.0086 222.848C18.7314 222.38 18.3354 222.013 17.8206 221.749C17.3124 221.485 16.7118 221.353 16.0187 221.353C15.3587 221.353 14.7416 221.475 14.1674 221.72C13.5998 221.957 13.1377 222.3 12.7813 222.749C12.4249 223.192 12.2335 223.723 12.2071 224.343H9.24692C9.27992 223.248 9.60333 222.284 10.2172 221.452C10.8376 220.621 11.656 219.971 12.6724 219.502C13.6889 219.033 14.8175 218.799 16.0583 218.799C17.3586 218.799 18.4806 219.053 19.4244 219.561C20.3749 220.063 21.1075 220.733 21.6223 221.571C22.1437 222.409 22.4011 223.327 22.3945 224.323C22.4011 225.459 22.0843 226.422 21.4441 227.214C20.8105 228.006 19.9657 228.538 18.9096 228.808V228.967C20.2561 229.171 21.2989 229.706 22.0381 230.571C22.7839 231.435 23.1536 232.508 23.147 233.788C23.1536 234.904 22.8433 235.904 22.2163 236.788C21.5959 237.672 20.7478 238.369 19.6719 238.877C18.5961 239.379 17.3652 239.629 15.9791 239.629ZM45.7023 227.858L43.0194 228.333C42.9072 227.99 42.7289 227.663 42.4847 227.353C42.2471 227.043 41.9237 226.789 41.5145 226.591C41.1053 226.393 40.5938 226.294 39.98 226.294C39.1417 226.294 38.4421 226.482 37.8811 226.858C37.3201 227.228 37.0396 227.706 37.0396 228.293C37.0396 228.802 37.2277 229.211 37.6039 229.521C37.9801 229.831 38.5873 230.085 39.4255 230.283L41.8412 230.838C43.2405 231.161 44.2833 231.66 44.9697 232.333C45.6561 233.006 45.9994 233.881 45.9994 234.956C45.9994 235.867 45.7353 236.679 45.2073 237.392C44.6859 238.098 43.9566 238.652 43.0194 239.055C42.0887 239.458 41.0096 239.659 39.782 239.659C38.0791 239.659 36.6898 239.296 35.6139 238.57C34.5381 237.837 33.8781 236.798 33.6339 235.451L36.4951 235.016C36.6733 235.762 37.0396 236.326 37.594 236.709C38.1484 237.085 38.8711 237.273 39.7622 237.273C40.7324 237.273 41.5079 237.072 42.0887 236.669C42.6695 236.26 42.96 235.762 42.96 235.174C42.96 234.699 42.7817 234.3 42.4253 233.976C42.0755 233.653 41.5376 233.409 40.8116 233.244L38.2375 232.679C36.8185 232.356 35.769 231.841 35.0892 231.135C34.416 230.429 34.0794 229.534 34.0794 228.452C34.0794 227.554 34.3302 226.769 34.8318 226.096C35.3334 225.422 36.0264 224.898 36.9109 224.521C37.7953 224.139 38.8084 223.947 39.9503 223.947C41.5937 223.947 42.8874 224.304 43.8312 225.016C44.775 225.723 45.3987 226.67 45.7023 227.858ZM56.3526 224.145V226.521H48.0462V224.145H56.3526ZM50.2738 220.502H53.234V234.887C53.234 235.461 53.3198 235.894 53.4914 236.184C53.663 236.468 53.8841 236.663 54.1547 236.768C54.4319 236.867 54.7322 236.917 55.0557 236.917C55.2933 236.917 55.5012 236.9 55.6794 236.867C55.8576 236.834 55.9962 236.808 56.0952 236.788L56.6298 239.233C56.4582 239.299 56.214 239.365 55.8972 239.431C55.5804 239.504 55.1844 239.544 54.7091 239.55C53.9303 239.563 53.2043 239.425 52.5311 239.134C51.8579 238.844 51.3133 238.395 50.8975 237.788C50.4817 237.181 50.2738 236.418 50.2738 235.501V220.502ZM64.0526 239.689C63.0889 239.689 62.2177 239.511 61.4389 239.154C60.6601 238.791 60.0429 238.266 59.5875 237.58C59.1387 236.894 58.9143 236.052 58.9143 235.055C58.9143 234.197 59.0793 233.491 59.4093 232.937C59.7393 232.382 60.1848 231.943 60.7459 231.62C61.3069 231.297 61.9339 231.052 62.6269 230.887C63.3199 230.722 64.0262 230.597 64.7456 230.511C65.6564 230.406 66.3956 230.32 66.9633 230.254C67.5309 230.181 67.9434 230.066 68.2008 229.907C68.4582 229.749 68.5869 229.491 68.5869 229.135V229.066C68.5869 228.201 68.3427 227.531 67.8543 227.056C67.3725 226.581 66.653 226.343 65.696 226.343C64.6994 226.343 63.914 226.564 63.3397 227.006C62.7721 227.442 62.3794 227.927 62.1616 228.462L59.3796 227.828C59.7096 226.904 60.1914 226.158 60.8251 225.591C61.4653 225.016 62.2012 224.601 63.0328 224.343C63.8645 224.079 64.739 223.947 65.6564 223.947C66.2636 223.947 66.9072 224.02 67.587 224.165C68.2734 224.304 68.9136 224.561 69.5076 224.937C70.1083 225.313 70.6 225.851 70.9828 226.551C71.3656 227.244 71.557 228.145 71.557 229.254V239.352H68.6661V237.273H68.5473C68.3559 237.656 68.0688 238.032 67.686 238.402C67.3032 238.771 66.8115 239.078 66.2108 239.322C65.6102 239.567 64.8908 239.689 64.0526 239.689ZM64.6961 237.313C65.5145 237.313 66.2141 237.151 66.795 236.828C67.3824 236.504 67.8279 236.082 68.1315 235.56C68.4417 235.032 68.5968 234.468 68.5968 233.867V231.907C68.4912 232.013 68.2866 232.112 67.983 232.204C67.686 232.29 67.3461 232.366 66.9633 232.432C66.5804 232.491 66.2075 232.547 65.8445 232.6C65.4815 232.646 65.1779 232.686 64.9337 232.719C64.3595 232.792 63.8348 232.914 63.3595 233.085C62.8909 233.257 62.5147 233.504 62.2309 233.828C61.9537 234.145 61.8151 234.567 61.8151 235.095C61.8151 235.828 62.0857 236.382 62.6269 236.758C63.1681 237.128 63.8579 237.313 64.6961 237.313ZM75.4998 239.352V224.145H78.361V226.561H78.5194C78.7966 225.742 79.285 225.099 79.9846 224.63C80.6909 224.155 81.4895 223.918 82.3805 223.918C82.5653 223.918 82.7831 223.924 83.0339 223.937C83.2913 223.951 83.4927 223.967 83.6379 223.987V226.818C83.5191 226.785 83.3079 226.749 83.0042 226.709C82.7006 226.663 82.397 226.64 82.0934 226.64C81.3938 226.64 80.7701 226.789 80.2223 227.086C79.681 227.376 79.252 227.782 78.9352 228.303C78.6184 228.818 78.46 229.406 78.46 230.066V239.352H75.4998ZM97.5948 227.858L94.9118 228.333C94.7996 227.99 94.6214 227.663 94.3772 227.353C94.1396 227.043 93.8162 226.789 93.407 226.591C92.9978 226.393 92.4863 226.294 91.8724 226.294C91.0342 226.294 90.3346 226.482 89.7736 226.858C89.2126 227.228 88.9321 227.706 88.9321 228.293C88.9321 228.802 89.1202 229.211 89.4964 229.521C89.8726 229.831 90.4798 230.085 91.318 230.283L93.7337 230.838C95.1329 231.161 96.1758 231.66 96.8622 232.333C97.5486 233.006 97.8918 233.881 97.8918 234.956C97.8918 235.867 97.6278 236.679 97.0998 237.392C96.5784 238.098 95.8491 238.652 94.9118 239.055C93.9812 239.458 92.9021 239.659 91.6744 239.659C89.9716 239.659 88.5822 239.296 87.5064 238.57C86.4306 237.837 85.7706 236.798 85.5263 235.451L88.3875 235.016C88.5657 235.762 88.9321 236.326 89.4865 236.709C90.0409 237.085 90.7636 237.273 91.6546 237.273C92.6249 237.273 93.4004 237.072 93.9812 236.669C94.562 236.26 94.8524 235.762 94.8524 235.174C94.8524 234.699 94.6742 234.3 94.3178 233.976C93.968 233.653 93.4301 233.409 92.7041 233.244L90.13 232.679C88.7109 232.356 87.6615 231.841 86.9817 231.135C86.3085 230.429 85.9719 229.534 85.9719 228.452C85.9719 227.554 86.2227 226.769 86.7243 226.096C87.2259 225.422 87.9189 224.898 88.8033 224.521C89.6878 224.139 90.7009 223.947 91.8427 223.947C93.4862 223.947 94.7798 224.304 95.7237 225.016C96.6675 225.723 97.2912 226.67 97.5948 227.858Z" fill="#4D4D4D"/>
<path d="M8.92021 302.081V299.863L15.7811 292.754C16.5137 291.982 17.1177 291.306 17.5929 290.725C18.0747 290.137 18.4344 289.58 18.672 289.052C18.9096 288.524 19.0284 287.963 19.0284 287.369C19.0284 286.695 18.87 286.115 18.5532 285.626C18.2364 285.131 17.8041 284.752 17.2563 284.488C16.7085 284.217 16.0913 284.082 15.4049 284.082C14.6789 284.082 14.0453 284.23 13.5041 284.527C12.9628 284.824 12.547 285.243 12.2566 285.785C11.9662 286.326 11.821 286.959 11.821 287.685H8.90041C8.90041 286.451 9.18422 285.372 9.75184 284.448C10.3195 283.524 11.0983 282.808 12.0883 282.3C13.0783 281.785 14.2037 281.527 15.4643 281.527C16.7382 281.527 17.8602 281.782 18.8304 282.29C19.8073 282.791 20.5696 283.478 21.1174 284.349C21.6652 285.214 21.9391 286.191 21.9391 287.28C21.9391 288.032 21.7972 288.768 21.5134 289.487C21.2362 290.207 20.7511 291.009 20.0581 291.893C19.365 292.771 18.4014 293.837 17.1672 295.091L13.1377 299.308V299.457H22.2658V302.081H8.92021ZM44.8311 290.586L42.1481 291.061C42.0359 290.718 41.8577 290.392 41.6135 290.081C41.3759 289.771 41.0525 289.517 40.6433 289.319C40.2341 289.121 39.7226 289.022 39.1087 289.022C38.2705 289.022 37.5709 289.21 37.0099 289.586C36.4488 289.956 36.1683 290.434 36.1683 291.022C36.1683 291.53 36.3564 291.939 36.7327 292.249C37.1089 292.56 37.7161 292.814 38.5543 293.012L40.97 293.566C42.3692 293.89 43.4121 294.388 44.0985 295.061C44.7849 295.734 45.1281 296.609 45.1281 297.685C45.1281 298.596 44.8641 299.407 44.3361 300.12C43.8147 300.826 43.0854 301.381 42.1481 301.783C41.2175 302.186 40.1384 302.387 38.9107 302.387C37.2079 302.387 35.8185 302.024 34.7427 301.298C33.6669 300.566 33.0068 299.526 32.7626 298.18L35.6238 297.744C35.802 298.49 36.1683 299.054 36.7228 299.437C37.2772 299.813 37.9999 300.001 38.8909 300.001C39.8612 300.001 40.6367 299.8 41.2175 299.398C41.7983 298.988 42.0887 298.49 42.0887 297.903C42.0887 297.427 41.9105 297.028 41.5541 296.705C41.2043 296.381 40.6664 296.137 39.9404 295.972L37.3663 295.408C35.9472 295.084 34.8978 294.569 34.218 293.863C33.5448 293.157 33.2081 292.263 33.2081 291.18C33.2081 290.283 33.459 289.497 33.9606 288.824C34.4622 288.151 35.1552 287.626 36.0396 287.25C36.9241 286.867 37.9372 286.676 39.079 286.676C40.7225 286.676 42.0161 287.032 42.96 287.745C43.9038 288.451 44.5275 289.398 44.8311 290.586ZM55.4814 286.874V289.25H47.175V286.874H55.4814ZM49.4026 283.23H52.3628V297.615C52.3628 298.19 52.4486 298.622 52.6202 298.912C52.7918 299.196 53.0129 299.391 53.2835 299.497C53.5607 299.596 53.861 299.645 54.1844 299.645C54.422 299.645 54.6299 299.629 54.8082 299.596C54.9864 299.563 55.125 299.536 55.224 299.516L55.7586 301.962C55.587 302.028 55.3428 302.094 55.026 302.16C54.7091 302.232 54.3131 302.272 53.8379 302.279C53.0591 302.292 52.3331 302.153 51.6599 301.863C50.9866 301.572 50.4421 301.123 50.0263 300.516C49.6105 299.909 49.4026 299.147 49.4026 298.229V283.23ZM63.1813 302.417C62.2177 302.417 61.3465 302.239 60.5677 301.882C59.7888 301.519 59.1717 300.995 58.7163 300.308C58.2675 299.622 58.0431 298.78 58.0431 297.784C58.0431 296.926 58.2081 296.22 58.5381 295.665C58.8681 295.111 59.3136 294.672 59.8746 294.348C60.4357 294.025 61.0627 293.781 61.7557 293.616C62.4487 293.451 63.1549 293.325 63.8744 293.24C64.7852 293.134 65.5244 293.048 66.092 292.982C66.6596 292.91 67.0722 292.794 67.3296 292.636C67.587 292.477 67.7157 292.22 67.7157 291.863V291.794C67.7157 290.929 67.4715 290.26 66.9831 289.784C66.5012 289.309 65.7818 289.071 64.8248 289.071C63.8282 289.071 63.0427 289.293 62.4685 289.735C61.9009 290.17 61.5082 290.656 61.2904 291.19L58.5084 290.557C58.8384 289.633 59.3202 288.887 59.9538 288.319C60.5941 287.745 61.33 287.329 62.1616 287.072C62.9932 286.808 63.8678 286.676 64.7852 286.676C65.3924 286.676 66.0359 286.748 66.7158 286.893C67.4022 287.032 68.0424 287.289 68.6364 287.666C69.237 288.042 69.7287 288.58 70.1116 289.279C70.4944 289.972 70.6858 290.873 70.6858 291.982V302.081H67.7949V300.001H67.6761C67.4847 300.384 67.1976 300.76 66.8148 301.13C66.4319 301.5 65.9402 301.807 65.3396 302.051C64.739 302.295 64.0196 302.417 63.1813 302.417ZM63.8249 300.041C64.6433 300.041 65.3429 299.879 65.9237 299.556C66.5111 299.233 66.9567 298.81 67.2603 298.289C67.5705 297.761 67.7256 297.196 67.7256 296.596V294.635C67.62 294.741 67.4154 294.84 67.1118 294.932C66.8148 295.018 66.4748 295.094 66.092 295.16C65.7092 295.22 65.3363 295.276 64.9733 295.328C64.6103 295.375 64.3067 295.414 64.0625 295.447C63.4882 295.52 62.9635 295.642 62.4883 295.814C62.0197 295.985 61.6435 296.233 61.3597 296.556C61.0825 296.873 60.9439 297.295 60.9439 297.823C60.9439 298.556 61.2145 299.11 61.7557 299.487C62.2969 299.856 62.9866 300.041 63.8249 300.041ZM74.6286 302.081V286.874H77.4898V289.289H77.6482C77.9254 288.471 78.4138 287.827 79.1134 287.359C79.8196 286.884 80.6183 286.646 81.5093 286.646C81.6941 286.646 81.9119 286.653 82.1627 286.666C82.4201 286.679 82.6214 286.695 82.7666 286.715V289.547C82.6478 289.514 82.4366 289.477 82.133 289.438C81.8294 289.392 81.5258 289.369 81.2222 289.369C80.5226 289.369 79.8988 289.517 79.351 289.814C78.8098 290.104 78.3808 290.51 78.064 291.032C77.7472 291.547 77.5888 292.134 77.5888 292.794V302.081H74.6286ZM96.7236 290.586L94.0406 291.061C93.9284 290.718 93.7502 290.392 93.506 290.081C93.2684 289.771 92.945 289.517 92.5358 289.319C92.1265 289.121 91.615 289.022 91.0012 289.022C90.163 289.022 89.4634 289.21 88.9023 289.586C88.3413 289.956 88.0608 290.434 88.0608 291.022C88.0608 291.53 88.2489 291.939 88.6251 292.249C89.0013 292.56 89.6086 292.814 90.4468 293.012L92.8625 293.566C94.2617 293.89 95.3045 294.388 95.991 295.061C96.6774 295.734 97.0206 296.609 97.0206 297.685C97.0206 298.596 96.7566 299.407 96.2286 300.12C95.7072 300.826 94.9778 301.381 94.0406 301.783C93.11 302.186 92.0308 302.387 90.8032 302.387C89.1004 302.387 87.711 302.024 86.6352 301.298C85.5593 300.566 84.8993 299.526 84.6551 298.18L87.5163 297.744C87.6945 298.49 88.0608 299.054 88.6152 299.437C89.1697 299.813 89.8924 300.001 90.7834 300.001C91.7536 300.001 92.5292 299.8 93.11 299.398C93.6908 298.988 93.9812 298.49 93.9812 297.903C93.9812 297.427 93.803 297.028 93.4466 296.705C93.0968 296.381 92.5589 296.137 91.8328 295.972L89.2588 295.408C87.8397 295.084 86.7903 294.569 86.1105 293.863C85.4372 293.157 85.1006 292.263 85.1006 291.18C85.1006 290.283 85.3514 289.497 85.8531 288.824C86.3547 288.151 87.0477 287.626 87.9321 287.25C88.8165 286.867 89.8297 286.676 90.9715 286.676C92.615 286.676 93.9086 287.032 94.8524 287.745C95.7963 288.451 96.42 289.398 96.7236 290.586Z" fill="#4D4D4D"/>
<path d="M16.6128 342.791V363.066H13.5437V345.86H13.4249L8.5737 349.028V346.097L13.6328 342.791H16.6128ZM40.9106 351.572L38.2276 352.047C38.1154 351.704 37.9372 351.377 37.693 351.067C37.4554 350.757 37.132 350.503 36.7228 350.305C36.3135 350.107 35.802 350.008 35.1882 350.008C34.35 350.008 33.6504 350.196 33.0893 350.572C32.5283 350.942 32.2478 351.42 32.2478 352.008C32.2478 352.516 32.4359 352.925 32.8121 353.235C33.1883 353.546 33.7956 353.8 34.6338 353.998L37.0495 354.552C38.4487 354.876 39.4915 355.374 40.178 356.047C40.8644 356.72 41.2076 357.595 41.2076 358.671C41.2076 359.581 40.9436 360.393 40.4156 361.106C39.8942 361.812 39.1648 362.367 38.2276 362.769C37.297 363.172 36.2178 363.373 34.9902 363.373C33.2874 363.373 31.898 363.01 30.8222 362.284C29.7463 361.552 29.0863 360.512 28.8421 359.166L31.7033 358.73C31.8815 359.476 32.2478 360.04 32.8022 360.423C33.3567 360.799 34.0794 360.987 34.9704 360.987C35.9406 360.987 36.7162 360.786 37.297 360.383C37.8778 359.974 38.1682 359.476 38.1682 358.888C38.1682 358.413 37.99 358.014 37.6336 357.691C37.2838 357.367 36.7459 357.123 36.0198 356.958L33.4458 356.394C32.0267 356.07 30.9773 355.555 30.2975 354.849C29.6242 354.143 29.2876 353.249 29.2876 352.166C29.2876 351.269 29.5384 350.483 30.04 349.81C30.5417 349.137 31.2347 348.612 32.1191 348.236C33.0035 347.853 34.0167 347.662 35.1585 347.662C36.802 347.662 38.0956 348.018 39.0394 348.731C39.9833 349.437 40.607 350.384 40.9106 351.572ZM51.5608 347.86V350.236H43.2545V347.86H51.5608ZM45.4821 344.216H48.4423V358.601C48.4423 359.176 48.5281 359.608 48.6997 359.898C48.8713 360.182 49.0924 360.377 49.363 360.482C49.6402 360.581 49.9405 360.631 50.2639 360.631C50.5015 360.631 50.7094 360.614 50.8876 360.581C51.0658 360.548 51.2044 360.522 51.3034 360.502L51.8381 362.948C51.6665 363.014 51.4222 363.08 51.1054 363.146C50.7886 363.218 50.3926 363.258 49.9174 363.264C49.1386 363.278 48.4125 363.139 47.7393 362.849C47.0661 362.558 46.5216 362.109 46.1058 361.502C45.69 360.895 45.4821 360.133 45.4821 359.215V344.216ZM59.2608 363.403C58.2972 363.403 57.426 363.225 56.6471 362.868C55.8683 362.505 55.2512 361.981 54.7958 361.294C54.347 360.608 54.1226 359.766 54.1226 358.77C54.1226 357.912 54.2876 357.205 54.6176 356.651C54.9476 356.097 55.3931 355.658 55.9541 355.334C56.5151 355.011 57.1421 354.767 57.8352 354.602C58.5282 354.437 59.2344 354.311 59.9538 354.225C60.8647 354.12 61.6039 354.034 62.1715 353.968C62.7391 353.895 63.1516 353.78 63.409 353.622C63.6665 353.463 63.7952 353.206 63.7952 352.849V352.78C63.7952 351.915 63.5509 351.245 63.0625 350.77C62.5807 350.295 61.8613 350.057 60.9043 350.057C59.9076 350.057 59.1222 350.279 58.548 350.721C57.9804 351.156 57.5877 351.641 57.3699 352.176L54.5879 351.542C54.9179 350.618 55.3997 349.873 56.0333 349.305C56.6735 348.731 57.4095 348.315 58.2411 348.058C59.0727 347.794 59.9472 347.662 60.8647 347.662C61.4719 347.662 62.1154 347.734 62.7952 347.879C63.4816 348.018 64.1219 348.275 64.7159 348.652C65.3165 349.028 65.8082 349.566 66.191 350.265C66.5738 350.958 66.7653 351.859 66.7653 352.968V363.066H63.8744V360.987H63.7556C63.5642 361.37 63.277 361.746 62.8942 362.116C62.5114 362.486 62.0197 362.792 61.4191 363.037C60.8185 363.281 60.099 363.403 59.2608 363.403ZM59.9043 361.027C60.7228 361.027 61.4224 360.865 62.0032 360.542C62.5906 360.218 63.0361 359.796 63.3397 359.275C63.65 358.747 63.8051 358.182 63.8051 357.582V355.621C63.6995 355.727 63.4948 355.826 63.1912 355.918C62.8942 356.004 62.5543 356.08 62.1715 356.146C61.7887 356.205 61.4158 356.262 61.0528 356.314C60.6898 356.361 60.3862 356.4 60.1419 356.433C59.5677 356.506 59.043 356.628 58.5678 356.8C58.0992 356.971 57.723 357.219 57.4392 357.542C57.1619 357.859 57.0233 358.281 57.0233 358.809C57.0233 359.542 57.294 360.096 57.8352 360.473C58.3764 360.842 59.0661 361.027 59.9043 361.027ZM70.7081 363.066V347.86H73.5692V350.275H73.7276C74.0049 349.457 74.4933 348.813 75.1929 348.345C75.8991 347.869 76.6977 347.632 77.5888 347.632C77.7736 347.632 77.9914 347.638 78.2422 347.652C78.4996 347.665 78.7009 347.681 78.8461 347.701V350.533C78.7273 350.5 78.5161 350.463 78.2125 350.424C77.9089 350.378 77.6053 350.354 77.3017 350.354C76.602 350.354 75.9783 350.503 75.4305 350.8C74.8893 351.09 74.4603 351.496 74.1435 352.018C73.8267 352.532 73.6682 353.12 73.6682 353.78V363.066H70.7081Z" fill="#4D4D4D"/>
<path d="M18.0978 42.5544C15.2993 42.5544 12.8044 42.0396 10.6131 41.01C8.43507 39.9803 6.70581 38.5613 5.42537 36.7528C4.14493 34.9444 3.47831 32.8719 3.42551 30.5354H11.7418C11.8342 32.1063 12.4942 33.3801 13.7218 34.357C14.9495 35.3338 16.4081 35.8222 18.0978 35.8222C19.4442 35.8222 20.6322 35.5252 21.6619 34.9312C22.7047 34.324 23.5165 33.4857 24.0974 32.4165C24.6914 31.3341 24.9884 30.0932 24.9884 28.694C24.9884 27.2683 24.6848 26.0143 24.0776 24.9319C23.4835 23.8494 22.6585 23.0046 21.6025 22.3974C20.5464 21.7902 19.3386 21.48 17.979 21.4668C16.7909 21.4668 15.6359 21.711 14.5139 22.1994C13.405 22.6878 12.5404 23.3544 11.92 24.1992L4.29674 22.833L6.2174 1.44832H31.0078V8.45775H13.2862L12.2368 18.6155H12.4744C13.1872 17.6122 14.263 16.7806 15.7019 16.1206C17.1407 15.4606 18.7512 15.1306 20.5332 15.1306C22.9753 15.1306 25.1534 15.7048 27.0675 16.8532C28.9815 18.0016 30.493 19.5791 31.6018 21.5856C32.7106 23.5788 33.2584 25.8757 33.2452 28.4762C33.2584 31.2087 32.6248 33.6375 31.3444 35.7628C30.0771 37.8749 28.3017 39.5381 26.018 40.7526C23.7475 41.9538 21.1075 42.5544 18.0978 42.5544ZM42.9277 42.5148C41.6209 42.5148 40.4989 42.0528 39.5616 41.1288C38.6376 40.1915 38.1756 39.0695 38.1756 37.7627C38.1756 36.469 38.6376 35.3602 39.5616 34.4362C40.4989 33.5121 41.6209 33.0501 42.9277 33.0501C44.195 33.0501 45.3038 33.5121 46.2543 34.4362C47.2047 35.3602 47.6799 36.469 47.6799 37.7627C47.6799 38.6339 47.4555 39.4325 47.0067 40.1585C46.5711 40.8714 45.9968 41.4456 45.284 41.8812C44.5712 42.3036 43.7858 42.5148 42.9277 42.5148ZM68.7923 42.891C65.3866 42.8778 62.4561 42.0396 60.0008 40.3763C57.5588 38.7131 55.6777 36.304 54.3577 33.1491C53.0508 29.9942 52.404 26.1991 52.4172 21.7638C52.4172 17.3416 53.0706 13.5729 54.3775 10.4576C55.6975 7.34231 57.5786 4.97284 60.0206 3.34919C62.4759 1.71233 65.3998 0.893906 68.7923 0.893906C72.1848 0.893906 75.1021 1.71233 77.5442 3.34919C79.9995 4.98604 81.8871 7.36211 83.2072 10.4774C84.5272 13.5795 85.1806 17.3416 85.1674 21.7638C85.1674 26.2123 84.5074 30.014 83.1874 33.1689C81.8805 36.3238 80.0061 38.7329 77.564 40.3961C75.1219 42.0594 72.198 42.891 68.7923 42.891ZM68.7923 35.7826C71.1156 35.7826 72.9702 34.6144 74.3563 32.2779C75.7423 29.9414 76.4288 26.4367 76.4156 21.7638C76.4156 18.6881 76.0987 16.1272 75.4651 14.0811C74.8447 12.0351 73.9603 10.4972 72.8118 9.46758C71.6766 8.43794 70.3368 7.92313 68.7923 7.92313C66.4822 7.92313 64.6342 9.07817 63.2481 11.3882C61.8621 13.6983 61.1625 17.1568 61.1493 21.7638C61.1493 24.8791 61.4595 27.4795 62.0799 29.5652C62.7135 31.6377 63.6045 33.1953 64.753 34.2382C65.9014 35.2678 67.2479 35.7826 68.7923 35.7826Z" fill="#161616"/>
<path d="M156.504 33.0494C155.078 33.0494 153.834 32.7227 152.772 32.0693C151.709 31.4159 150.884 30.5017 150.296 29.3269C149.709 28.152 149.415 26.7792 149.415 25.2084C149.415 23.6309 149.709 22.2515 150.296 21.07C150.884 19.8886 151.709 18.9712 152.772 18.3177C153.834 17.6643 155.078 17.3376 156.504 17.3376C157.93 17.3376 159.174 17.6643 160.236 18.3177C161.299 18.9712 162.124 19.8886 162.711 21.07C163.299 22.2515 163.593 23.6309 163.593 25.2084C163.593 26.7792 163.299 28.152 162.711 29.3269C162.124 30.5017 161.299 31.4159 160.236 32.0693C159.174 32.7227 157.93 33.0494 156.504 33.0494ZM156.514 30.5644C157.438 30.5644 158.204 30.3202 158.811 29.8318C159.418 29.3434 159.867 28.6933 160.157 27.8814C160.454 27.0696 160.603 26.1753 160.603 25.1985C160.603 24.2282 160.454 23.3372 160.157 22.5254C159.867 21.7069 159.418 21.0502 158.811 20.5552C158.204 20.0602 157.438 19.8127 156.514 19.8127C155.583 19.8127 154.811 20.0602 154.197 20.5552C153.59 21.0502 153.138 21.7069 152.841 22.5254C152.55 23.3372 152.405 24.2282 152.405 25.1985C152.405 26.1753 152.55 27.0696 152.841 27.8814C153.138 28.6933 153.59 29.3434 154.197 29.8318C154.811 30.3202 155.583 30.5644 156.514 30.5644ZM179.389 17.5356L173.874 32.7425H170.706L165.182 17.5356H168.36L172.211 29.2378H172.369L176.211 17.5356H179.389ZM188.207 33.0494C186.709 33.0494 185.419 32.7293 184.336 32.0891C183.26 31.4423 182.429 30.5347 181.841 29.3665C181.261 28.1916 180.97 26.8155 180.97 25.2381C180.97 23.6804 181.261 22.3076 181.841 21.1195C182.429 19.9315 183.247 19.0042 184.297 18.3375C185.353 17.6709 186.587 17.3376 187.999 17.3376C188.857 17.3376 189.689 17.4795 190.494 17.7633C191.299 18.0471 192.022 18.4926 192.662 19.0999C193.303 19.7071 193.808 20.4958 194.177 21.466C194.547 22.4297 194.732 23.6012 194.732 24.9806V26.0301H182.643V23.8124H191.831C191.831 23.0336 191.672 22.3439 191.356 21.7432C191.039 21.136 190.593 20.6575 190.019 20.3077C189.451 19.9579 188.785 19.783 188.019 19.783C187.188 19.783 186.462 19.9876 185.841 20.3968C185.227 20.7994 184.752 21.3274 184.415 21.9809C184.085 22.6277 183.92 23.3306 183.92 24.0896V25.8222C183.92 26.8386 184.099 27.7032 184.455 28.4161C184.818 29.1289 185.323 29.6734 185.97 30.0496C186.617 30.4192 187.372 30.604 188.237 30.604C188.798 30.604 189.309 30.5248 189.772 30.3664C190.234 30.2014 190.633 29.9572 190.969 29.6338C191.306 29.3104 191.563 28.9111 191.742 28.4359L194.543 28.9408C194.319 29.7658 193.916 30.4885 193.336 31.1089C192.761 31.7228 192.039 32.2013 191.167 32.5445C190.303 32.8811 189.316 33.0494 188.207 33.0494ZM198.016 32.7425V17.5356H200.877V19.9513H201.036C201.313 19.1329 201.801 18.4893 202.501 18.0207C203.207 17.5455 204.006 17.3079 204.897 17.3079C205.082 17.3079 205.299 17.3145 205.55 17.3277C205.808 17.3409 206.009 17.3574 206.154 17.3772V20.2087C206.035 20.1757 205.824 20.1394 205.52 20.0998C205.217 20.0536 204.913 20.0305 204.61 20.0305C203.91 20.0305 203.286 20.179 202.738 20.476C202.197 20.7664 201.768 21.1723 201.451 21.6937C201.135 22.2086 200.976 22.796 200.976 23.456V32.7425H198.016ZM213.005 33.0791C212.041 33.0791 211.17 32.9009 210.391 32.5445C209.613 32.1815 208.995 31.6568 208.54 30.9703C208.091 30.2839 207.867 29.4424 207.867 28.4458C207.867 27.5877 208.032 26.8815 208.362 26.3271C208.692 25.7727 209.137 25.3338 209.698 25.0103C210.259 24.6869 210.886 24.4427 211.579 24.2777C212.272 24.1127 212.979 23.9873 213.698 23.9015C214.609 23.7959 215.348 23.7101 215.916 23.6441C216.483 23.5715 216.896 23.456 217.153 23.2976C217.411 23.1392 217.539 22.8818 217.539 22.5254V22.4561C217.539 21.5914 217.295 20.9215 216.807 20.4463C216.325 19.9711 215.606 19.7335 214.649 19.7335C213.652 19.7335 212.866 19.9546 212.292 20.3968C211.725 20.8324 211.332 21.3175 211.114 21.8522L208.332 21.2185C208.662 20.2945 209.144 19.5487 209.778 18.9811C210.418 18.4068 211.154 17.991 211.985 17.7336C212.817 17.4696 213.691 17.3376 214.609 17.3376C215.216 17.3376 215.86 17.4102 216.539 17.5554C217.226 17.694 217.866 17.9514 218.46 18.3276C219.061 18.7039 219.552 19.2418 219.935 19.9414C220.318 20.6344 220.509 21.5353 220.509 22.6442V32.7425H217.619V30.6634H217.5C217.308 31.0462 217.021 31.4225 216.638 31.7921C216.256 32.1617 215.764 32.4686 215.163 32.7128C214.563 32.957 213.843 33.0791 213.005 33.0791ZM213.649 30.703C214.467 30.703 215.167 30.5413 215.747 30.2179C216.335 29.8945 216.78 29.4721 217.084 28.9507C217.394 28.4227 217.549 27.8583 217.549 27.2577V25.2975C217.444 25.4031 217.239 25.5021 216.935 25.5945C216.638 25.6803 216.299 25.7562 215.916 25.8222C215.533 25.8816 215.16 25.9377 214.797 25.9905C214.434 26.0367 214.13 26.0763 213.886 26.1093C213.312 26.1819 212.787 26.304 212.312 26.4756C211.843 26.6472 211.467 26.8947 211.183 27.2181C210.906 27.5349 210.768 27.9573 210.768 28.4854C210.768 29.218 211.038 29.7724 211.579 30.1486C212.121 30.5182 212.81 30.703 213.649 30.703ZM227.412 12.4667V32.7425H224.452V12.4667H227.412ZM234.355 12.4667V32.7425H231.395V12.4667H234.355ZM245.716 32.7425V17.5356H248.577V19.9513H248.735C249.012 19.1329 249.501 18.4893 250.201 18.0207C250.907 17.5455 251.705 17.3079 252.596 17.3079C252.781 17.3079 252.999 17.3145 253.25 17.3277C253.507 17.3409 253.709 17.3574 253.854 17.3772V20.2087C253.735 20.1757 253.524 20.1394 253.22 20.0998C252.917 20.0536 252.613 20.0305 252.309 20.0305C251.61 20.0305 250.986 20.179 250.438 20.476C249.897 20.7664 249.468 21.1723 249.151 21.6937C248.834 22.2086 248.676 22.796 248.676 23.456V32.7425H245.716ZM260.705 33.0791C259.741 33.0791 258.87 32.9009 258.091 32.5445C257.312 32.1815 256.695 31.6568 256.24 30.9703C255.791 30.2839 255.567 29.4424 255.567 28.4458C255.567 27.5877 255.732 26.8815 256.062 26.3271C256.392 25.7727 256.837 25.3338 257.398 25.0103C257.959 24.6869 258.586 24.4427 259.279 24.2777C259.972 24.1127 260.678 23.9873 261.398 23.9015C262.309 23.7959 263.048 23.7101 263.615 23.6441C264.183 23.5715 264.596 23.456 264.853 23.2976C265.11 23.1392 265.239 22.8818 265.239 22.5254V22.4561C265.239 21.5914 264.995 20.9215 264.506 20.4463C264.025 19.9711 263.305 19.7335 262.348 19.7335C261.352 19.7335 260.566 19.9546 259.992 20.3968C259.424 20.8324 259.032 21.3175 258.814 21.8522L256.032 21.2185C256.362 20.2945 256.844 19.5487 257.477 18.9811C258.117 18.4068 258.853 17.991 259.685 17.7336C260.517 17.4696 261.391 17.3376 262.309 17.3376C262.916 17.3376 263.559 17.4102 264.239 17.5554C264.926 17.694 265.566 17.9514 266.16 18.3276C266.76 18.7039 267.252 19.2418 267.635 19.9414C268.018 20.6344 268.209 21.5353 268.209 22.6442V32.7425H265.318V30.6634H265.2C265.008 31.0462 264.721 31.4225 264.338 31.7921C263.955 32.1617 263.464 32.4686 262.863 32.7128C262.262 32.957 261.543 33.0791 260.705 33.0791ZM261.348 30.703C262.167 30.703 262.866 30.5413 263.447 30.2179C264.035 29.8945 264.48 29.4721 264.784 28.9507C265.094 28.4227 265.249 27.8583 265.249 27.2577V25.2975C265.143 25.4031 264.939 25.5021 264.635 25.5945C264.338 25.6803 263.998 25.7562 263.615 25.8222C263.233 25.8816 262.86 25.9377 262.497 25.9905C262.134 26.0367 261.83 26.0763 261.586 26.1093C261.012 26.1819 260.487 26.304 260.012 26.4756C259.543 26.6472 259.167 26.8947 258.883 27.2181C258.606 27.5349 258.467 27.9573 258.467 28.4854C258.467 29.218 258.738 29.7724 259.279 30.1486C259.82 30.5182 260.51 30.703 261.348 30.703ZM279.251 17.5356V19.9117H270.944V17.5356H279.251ZM273.172 13.8923H276.132V28.2775C276.132 28.8517 276.218 29.284 276.389 29.5744C276.561 29.8582 276.782 30.0529 277.053 30.1585C277.33 30.2575 277.63 30.307 277.954 30.307C278.191 30.307 278.399 30.2905 278.577 30.2575C278.756 30.2245 278.894 30.1981 278.993 30.1783L279.528 32.6237C279.356 32.6897 279.112 32.7557 278.795 32.8217C278.478 32.8943 278.082 32.9339 277.607 32.9405C276.828 32.9537 276.102 32.8151 275.429 32.5247C274.756 32.2343 274.211 31.7855 273.795 31.1782C273.38 30.571 273.172 29.8087 273.172 28.8913V13.8923ZM282.525 32.7425V17.5356H285.485V32.7425H282.525ZM284.02 15.1892C283.505 15.1892 283.063 15.0176 282.693 14.6744C282.33 14.3246 282.149 13.9088 282.149 13.427C282.149 12.9386 282.33 12.5228 282.693 12.1795C283.063 11.8297 283.505 11.6548 284.02 11.6548C284.535 11.6548 284.974 11.8297 285.337 12.1795C285.706 12.5228 285.891 12.9386 285.891 13.427C285.891 13.9088 285.706 14.3246 285.337 14.6744C284.974 15.0176 284.535 15.1892 284.02 15.1892ZM292.428 23.7134V32.7425H289.468V17.5356H292.309V20.0107H292.497C292.847 19.2055 293.395 18.5586 294.141 18.0702C294.893 17.5818 295.84 17.3376 296.982 17.3376C298.018 17.3376 298.926 17.5554 299.705 17.991C300.483 18.42 301.087 19.0603 301.516 19.9117C301.945 20.7631 302.16 21.8158 302.16 23.0699V32.7425H299.2V23.4263C299.2 22.3241 298.913 21.4627 298.338 20.8423C297.764 20.2153 296.975 19.9018 295.972 19.9018C295.286 19.9018 294.675 20.0503 294.141 20.3473C293.613 20.6443 293.193 21.0799 292.883 21.6541C292.58 22.2218 292.428 22.9082 292.428 23.7134ZM312.506 38.7619C311.298 38.7619 310.258 38.6035 309.387 38.2867C308.522 37.9699 307.816 37.5507 307.268 37.0293C306.721 36.5079 306.311 35.937 306.041 35.3166L308.585 34.2671C308.763 34.5575 309.001 34.8645 309.298 35.1879C309.602 35.5179 310.011 35.7984 310.526 36.0294C311.047 36.2604 311.717 36.3759 312.535 36.3759C313.657 36.3759 314.585 36.102 315.317 35.5542C316.05 35.013 316.416 34.1483 316.416 32.9603V29.9704H316.228C316.05 30.2938 315.793 30.6535 315.456 31.0495C315.126 31.4456 314.671 31.7888 314.09 32.0792C313.509 32.3696 312.753 32.5148 311.823 32.5148C310.621 32.5148 309.539 32.2343 308.575 31.6733C307.618 31.1056 306.859 30.2707 306.298 29.1685C305.744 28.0596 305.467 26.6967 305.467 25.0797C305.467 23.4626 305.74 22.0766 306.288 20.9215C306.843 19.7665 307.602 18.8821 308.565 18.2682C309.529 17.6478 310.621 17.3376 311.842 17.3376C312.786 17.3376 313.548 17.496 314.129 17.8128C314.71 18.123 315.162 18.486 315.486 18.9019C315.816 19.3177 316.07 19.684 316.248 20.0008H316.466V17.5356H319.367V33.0791C319.367 34.3859 319.063 35.4585 318.456 36.2967C317.849 37.1349 317.027 37.7554 315.991 38.158C314.961 38.5606 313.799 38.7619 312.506 38.7619ZM312.476 30.0595C313.327 30.0595 314.047 29.8615 314.634 29.4655C315.228 29.0629 315.677 28.4887 315.981 27.7428C316.291 26.9904 316.446 26.0895 316.446 25.0401C316.446 24.017 316.294 23.1161 315.991 22.3373C315.687 21.5584 315.241 20.9512 314.654 20.5156C314.067 20.0734 313.341 19.8523 312.476 19.8523C311.585 19.8523 310.842 20.0833 310.248 20.5453C309.654 21.0007 309.206 21.6211 308.902 22.4066C308.605 23.192 308.456 24.0698 308.456 25.0401C308.456 26.0367 308.608 26.9112 308.912 27.6636C309.215 28.4161 309.664 29.0035 310.258 29.4259C310.859 29.8483 311.598 30.0595 312.476 30.0595Z" fill="#161616"/>
<path d="M119.012 6.95485C119.616 5.28067 121.984 5.28067 122.588 6.95485L125.56 15.1925C125.832 15.9459 126.547 16.4481 127.348 16.4481L136.508 16.4481C138.397 16.4481 139.129 18.9054 137.548 19.9397L130.493 24.5549C129.756 25.0371 129.447 25.9624 129.746 26.7909L132.519 34.4765C133.139 36.1932 131.218 37.7116 129.691 36.7124L121.84 31.5769C121.208 31.1634 120.391 31.1634 119.759 31.5769L111.909 36.7124C110.382 37.7116 108.461 36.1932 109.08 34.4765L111.854 26.7909C112.153 25.9624 111.843 25.0371 111.106 24.5549L104.051 19.9397C102.47 18.9054 103.203 16.4481 105.092 16.4481L114.251 16.4481C115.052 16.4481 115.767 15.9459 116.039 15.1925L119.012 6.95485Z" fill="#FF8C38"/>
<line x1="162.048" y1="108.29" x2="731.831" y2="108.29" stroke="#FF8C38" stroke-width="13.9396" stroke-linecap="round"/>
<line x1="162.048" y1="171.018" x2="731.831" y2="171.018" stroke="#B9B9B9" stroke-width="13.9396" stroke-linecap="round"/>
<line x1="162.048" y1="233.746" x2="731.831" y2="233.747" stroke="#B9B9B9" stroke-width="13.9396" stroke-linecap="round"/>
<line x1="162.048" y1="296.475" x2="731.831" y2="296.475" stroke="#B9B9B9" stroke-width="13.9396" stroke-linecap="round"/>
<line x1="162.048" y1="359.203" x2="731.831" y2="359.203" stroke="#B9B9B9" stroke-width="13.9396" stroke-linecap="round"/>
</svg>
