<svg width="866" height="614" viewBox="0 0 866 614" fill="none" xmlns="http://www.w3.org/2000/svg">
<path d="M9.30819 43.8744V15.1302H11.1496V43.8744H9.30819ZM15.0683 24.0454C14.9485 22.9825 14.4545 22.1591 13.5861 21.5752C12.7178 20.9838 11.6249 20.6882 10.3075 20.6882C9.36433 20.6882 8.54842 20.8379 7.85975 21.1373C7.17109 21.4292 6.63588 21.8334 6.25412 22.3499C5.87984 22.8589 5.69271 23.4391 5.69271 24.0903C5.69271 24.6367 5.81996 25.1083 6.07447 25.5051C6.33646 25.9018 6.67705 26.2349 7.09623 26.5044C7.52291 26.7664 7.97952 26.9872 8.46608 27.1668C8.95263 27.339 9.42047 27.4812 9.8696 27.5935L12.1152 28.1774C12.8488 28.357 13.6011 28.6003 14.3721 28.9072C15.1431 29.2141 15.858 29.6183 16.5167 30.1199C17.1754 30.6214 17.7069 31.2427 18.1111 31.9837C18.5228 32.7248 18.7287 33.6118 18.7287 34.6448C18.7287 35.9473 18.3918 37.1038 17.7181 38.1143C17.0519 39.1249 16.0826 39.9221 14.81 40.506C13.545 41.0898 12.0142 41.3818 10.2177 41.3818C8.49602 41.3818 7.00641 41.1085 5.74885 40.5621C4.49129 40.0157 3.50695 39.2409 2.79583 38.2379C2.08471 37.2273 1.69172 36.0296 1.61686 34.6448H5.09761C5.16498 35.4757 5.43446 36.1681 5.90604 36.722C6.38511 37.2685 6.99518 37.6764 7.73624 37.9459C8.48479 38.2079 9.30445 38.3389 10.1952 38.3389C11.1758 38.3389 12.0479 38.1855 12.8114 37.8786C13.5824 37.5642 14.1887 37.13 14.6304 36.5761C15.072 36.0147 15.2928 35.3597 15.2928 34.6111C15.2928 33.93 15.0982 33.3723 14.709 32.9381C14.3272 32.504 13.807 32.1447 13.1482 31.8602C12.497 31.5758 11.7597 31.325 10.9363 31.1079L8.21906 30.3669C6.37763 29.8654 4.91796 29.128 3.84005 28.1549C2.76963 27.1818 2.23442 25.8943 2.23442 24.2924C2.23442 22.9675 2.59372 21.811 3.31232 20.8229C4.03093 19.8348 5.00404 19.0675 6.23166 18.5211C7.45928 17.9672 8.84409 17.6902 10.3861 17.6902C11.9431 17.6902 13.3167 17.9634 14.5069 18.5099C15.7045 19.0563 16.6477 19.8086 17.3364 20.7668C18.025 21.7174 18.3843 22.8103 18.4143 24.0454H15.0683ZM30.1506 41.3144C28.7433 41.3144 27.4783 41.0449 26.3554 40.506C25.2401 39.9595 24.3493 39.211 23.6831 38.2603C23.0169 37.3097 22.6614 36.2243 22.6164 35.0041H25.9849C26.0672 35.9922 26.5051 36.8044 27.2986 37.4407C28.0921 38.0769 29.0427 38.3951 30.1506 38.3951C31.0339 38.3951 31.8161 38.1929 32.4973 37.7887C33.1859 37.377 33.7249 36.8119 34.1141 36.0933C34.5109 35.3747 34.7092 34.555 34.7092 33.6343C34.7092 32.6986 34.5071 31.864 34.1029 31.1304C33.6987 30.3968 33.141 29.8204 32.4299 29.4013C31.7263 28.9821 30.9178 28.7687 30.0046 28.7612C29.3085 28.7612 28.6086 28.881 27.9049 29.1205C27.2013 29.3601 26.6324 29.6745 26.1982 30.0637L23.0207 29.5921L24.3119 18.0046H36.9549V20.9801H27.1976L26.4677 27.4139H26.6025C27.0516 26.9797 27.6467 26.6167 28.3877 26.3247C29.1363 26.0328 29.9372 25.8868 30.7906 25.8868C32.1904 25.8868 33.4367 26.2199 34.5296 26.8861C35.6299 27.5523 36.4945 28.4618 37.1233 29.6146C37.7596 30.7599 38.0739 32.0773 38.0665 33.5669C38.0739 35.0565 37.7371 36.3852 37.0559 37.5529C36.3822 38.7207 35.4465 39.6414 34.2489 40.3151C33.0587 40.9813 31.6926 41.3144 30.1506 41.3144ZM45.3002 35.1501L45.2778 31.0518H45.8617L52.7333 23.7535H56.753L48.9157 32.0623H48.388L45.3002 35.1501ZM42.2125 41V18.0046H45.5697V41H42.2125ZM53.1039 41L46.9283 32.8034L49.2413 30.4567L57.2246 41H53.1039Z" fill="#4D4D4D"/>
<path d="M9.30819 143.21V114.466H11.1496V143.21H9.30819ZM15.0683 123.381C14.9485 122.318 14.4545 121.495 13.5861 120.911C12.7178 120.319 11.6249 120.024 10.3075 120.024C9.36433 120.024 8.54842 120.173 7.85975 120.473C7.17109 120.765 6.63588 121.169 6.25412 121.686C5.87984 122.195 5.69271 122.775 5.69271 123.426C5.69271 123.972 5.81996 124.444 6.07447 124.841C6.33646 125.237 6.67705 125.571 7.09623 125.84C7.52291 126.102 7.97952 126.323 8.46608 126.502C8.95263 126.675 9.42047 126.817 9.8696 126.929L12.1152 127.513C12.8488 127.693 13.6011 127.936 14.3721 128.243C15.1431 128.55 15.858 128.954 16.5167 129.455C17.1754 129.957 17.7069 130.578 18.1111 131.319C18.5228 132.06 18.7287 132.947 18.7287 133.98C18.7287 135.283 18.3918 136.439 17.7181 137.45C17.0519 138.461 16.0826 139.258 14.81 139.842C13.545 140.425 12.0142 140.717 10.2177 140.717C8.49602 140.717 7.00641 140.444 5.74885 139.898C4.49129 139.351 3.50695 138.577 2.79583 137.573C2.08471 136.563 1.69172 135.365 1.61686 133.98H5.09761C5.16498 134.811 5.43446 135.504 5.90604 136.058C6.38511 136.604 6.99518 137.012 7.73624 137.282C8.48479 137.544 9.30445 137.675 10.1952 137.675C11.1758 137.675 12.0479 137.521 12.8114 137.214C13.5824 136.9 14.1887 136.466 14.6304 135.912C15.072 135.35 15.2928 134.695 15.2928 133.947C15.2928 133.266 15.0982 132.708 14.709 132.274C14.3272 131.84 13.807 131.48 13.1482 131.196C12.497 130.911 11.7597 130.661 10.9363 130.444L8.21906 129.703C6.37763 129.201 4.91796 128.464 3.84005 127.491C2.76963 126.517 2.23442 125.23 2.23442 123.628C2.23442 122.303 2.59372 121.147 3.31232 120.159C4.03093 119.17 5.00404 118.403 6.23166 117.857C7.45928 117.303 8.84409 117.026 10.3861 117.026C11.9431 117.026 13.3167 117.299 14.5069 117.846C15.7045 118.392 16.6477 119.144 17.3364 120.102C18.025 121.053 18.3843 122.146 18.4143 123.381H15.0683ZM22.0775 135.844V133.037L32.0145 117.34H34.2264V121.472H32.8229L25.7154 132.723V132.903H39.3353V135.844H22.0775ZM32.9801 140.336V134.991L33.0025 133.711V117.34H36.2924V140.336H32.9801ZM46.381 134.486L46.3585 130.387H46.9424L53.814 123.089H57.8337L49.9964 131.398H49.4687L46.381 134.486ZM43.2932 140.336V117.34H46.6504V140.336H43.2932ZM54.1846 140.336L48.0091 132.139L50.3221 129.792L58.3053 140.336H54.1846Z" fill="#4D4D4D"/>
<path d="M9.30819 239.998V211.254H11.1496V239.998H9.30819ZM15.0683 220.169C14.9485 219.106 14.4545 218.283 13.5861 217.699C12.7178 217.108 11.6249 216.812 10.3075 216.812C9.36433 216.812 8.54842 216.962 7.85975 217.261C7.17109 217.553 6.63588 217.957 6.25412 218.474C5.87984 218.983 5.69271 219.563 5.69271 220.214C5.69271 220.761 5.81996 221.232 6.07447 221.629C6.33646 222.026 6.67705 222.359 7.09623 222.628C7.52291 222.89 7.97952 223.111 8.46608 223.291C8.95263 223.463 9.42047 223.605 9.8696 223.718L12.1152 224.301C12.8488 224.481 13.6011 224.724 14.3721 225.031C15.1431 225.338 15.858 225.742 16.5167 226.244C17.1754 226.745 17.7069 227.367 18.1111 228.108C18.5228 228.849 18.7287 229.736 18.7287 230.769C18.7287 232.071 18.3918 233.228 17.7181 234.238C17.0519 235.249 16.0826 236.046 14.81 236.63C13.545 237.214 12.0142 237.506 10.2177 237.506C8.49602 237.506 7.00641 237.233 5.74885 236.686C4.49129 236.14 3.50695 235.365 2.79583 234.362C2.08471 233.351 1.69172 232.154 1.61686 230.769H5.09761C5.16498 231.6 5.43446 232.292 5.90604 232.846C6.38511 233.393 6.99518 233.8 7.73624 234.07C8.48479 234.332 9.30445 234.463 10.1952 234.463C11.1758 234.463 12.0479 234.309 12.8114 234.003C13.5824 233.688 14.1887 233.254 14.6304 232.7C15.072 232.139 15.2928 231.484 15.2928 230.735C15.2928 230.054 15.0982 229.496 14.709 229.062C14.3272 228.628 13.807 228.269 13.1482 227.984C12.497 227.7 11.7597 227.449 10.9363 227.232L8.21906 226.491C6.37763 225.989 4.91796 225.252 3.84005 224.279C2.76963 223.306 2.23442 222.018 2.23442 220.416C2.23442 219.092 2.59372 217.935 3.31232 216.947C4.03093 215.959 5.00404 215.192 6.23166 214.645C7.45928 214.091 8.84409 213.814 10.3861 213.814C11.9431 213.814 13.3167 214.087 14.5069 214.634C15.7045 215.18 16.6477 215.933 17.3364 216.891C18.025 217.841 18.3843 218.934 18.4143 220.169H15.0683ZM30.566 237.438C29.024 237.438 27.6467 237.173 26.434 236.641C25.2289 236.11 24.2745 235.372 23.5708 234.429C22.8747 233.479 22.5004 232.378 22.448 231.128H25.9737C26.0186 231.809 26.2469 232.401 26.6586 232.902C27.0778 233.396 27.6242 233.778 28.2979 234.047C28.9716 234.317 29.7202 234.452 30.5436 234.452C31.4493 234.452 32.2502 234.295 32.9464 233.98C33.65 233.666 34.2002 233.228 34.5969 232.666C34.9937 232.098 35.192 231.443 35.192 230.701C35.192 229.93 34.9937 229.253 34.5969 228.669C34.2077 228.078 33.6351 227.614 32.879 227.277C32.1305 226.94 31.2247 226.772 30.1618 226.772H28.2193V223.942H30.1618C31.0151 223.942 31.7637 223.789 32.4074 223.482C33.0587 223.175 33.5677 222.748 33.9345 222.202C34.3013 221.648 34.4847 221 34.4847 220.259C34.4847 219.548 34.3237 218.931 34.0018 218.407C33.6875 217.875 33.2383 217.46 32.6545 217.16C32.0781 216.861 31.3969 216.711 30.6109 216.711C29.8624 216.711 29.1625 216.85 28.5113 217.127C27.8675 217.396 27.3435 217.785 26.9393 218.294C26.5351 218.796 26.318 219.398 26.2881 220.102H22.9308C22.9683 218.859 23.335 217.767 24.0312 216.823C24.7348 215.88 25.663 215.143 26.8158 214.611C27.9686 214.08 29.2486 213.814 30.6558 213.814C32.1305 213.814 33.403 214.102 34.4734 214.679C35.5513 215.248 36.3822 216.007 36.9661 216.958C37.5575 217.909 37.8494 218.949 37.8419 220.08C37.8494 221.367 37.4901 222.46 36.764 223.358C36.0454 224.256 35.0872 224.859 33.8896 225.166V225.346C35.4166 225.578 36.5993 226.184 37.4377 227.165C38.2835 228.145 38.7027 229.362 38.6952 230.814C38.7027 232.079 38.3509 233.213 37.6398 234.216C36.9362 235.219 35.9743 236.009 34.7541 236.585C33.534 237.154 32.138 237.438 30.566 237.438ZM46.0722 231.274L46.0497 227.176H46.6336L53.5053 219.877H57.525L49.6877 228.186H49.1599L46.0722 231.274ZM42.9844 237.124V214.129H46.3417V237.124H42.9844ZM53.8758 237.124L47.7003 228.927L50.0133 226.581L57.9966 237.124H53.8758Z" fill="#4D4D4D"/>
<path d="M9.30819 339.333V310.589H11.1496V339.333H9.30819ZM15.0683 319.504C14.9485 318.441 14.4545 317.618 13.5861 317.034C12.7178 316.443 11.6249 316.147 10.3075 316.147C9.36433 316.147 8.54842 316.297 7.85975 316.596C7.17109 316.888 6.63588 317.292 6.25412 317.809C5.87984 318.318 5.69271 318.898 5.69271 319.549C5.69271 320.096 5.81996 320.567 6.07447 320.964C6.33646 321.361 6.67705 321.694 7.09623 321.963C7.52291 322.225 7.97952 322.446 8.46608 322.626C8.95263 322.798 9.42047 322.94 9.8696 323.052L12.1152 323.636C12.8488 323.816 13.6011 324.059 14.3721 324.366C15.1431 324.673 15.858 325.077 16.5167 325.579C17.1754 326.08 17.7069 326.702 18.1111 327.443C18.5228 328.184 18.7287 329.071 18.7287 330.104C18.7287 331.406 18.3918 332.563 17.7181 333.573C17.0519 334.584 16.0826 335.381 14.81 335.965C13.545 336.549 12.0142 336.841 10.2177 336.841C8.49602 336.841 7.00641 336.568 5.74885 336.021C4.49129 335.475 3.50695 334.7 2.79583 333.697C2.08471 332.686 1.69172 331.489 1.61686 330.104H5.09761C5.16498 330.935 5.43446 331.627 5.90604 332.181C6.38511 332.727 6.99518 333.135 7.73624 333.405C8.48479 333.667 9.30445 333.798 10.1952 333.798C11.1758 333.798 12.0479 333.644 12.8114 333.338C13.5824 333.023 14.1887 332.589 14.6304 332.035C15.072 331.474 15.2928 330.819 15.2928 330.07C15.2928 329.389 15.0982 328.831 14.709 328.397C14.3272 327.963 13.807 327.604 13.1482 327.319C12.497 327.035 11.7597 326.784 10.9363 326.567L8.21906 325.826C6.37763 325.324 4.91796 324.587 3.84005 323.614C2.76963 322.641 2.23442 321.353 2.23442 319.751C2.23442 318.426 2.59372 317.27 3.31232 316.282C4.03093 315.294 5.00404 314.527 6.23166 313.98C7.45928 313.426 8.84409 313.149 10.3861 313.149C11.9431 313.149 13.3167 313.422 14.5069 313.969C15.7045 314.515 16.6477 315.268 17.3364 316.226C18.025 317.176 18.3843 318.269 18.4143 319.504H15.0683ZM22.5603 336.459V333.944L30.3415 325.882C31.1723 325.006 31.8573 324.239 32.3962 323.58C32.9427 322.914 33.3506 322.281 33.6201 321.683C33.8896 321.084 34.0243 320.448 34.0243 319.774C34.0243 319.01 33.8447 318.352 33.4854 317.798C33.126 317.236 32.6357 316.806 32.0145 316.506C31.3932 316.2 30.6933 316.046 29.9148 316.046C29.0914 316.046 28.3728 316.215 27.759 316.551C27.1452 316.888 26.6736 317.364 26.3442 317.977C26.0148 318.591 25.8502 319.31 25.8502 320.133H22.5378C22.5378 318.733 22.8597 317.509 23.5035 316.462C24.1472 315.414 25.0305 314.601 26.1533 314.025C27.2761 313.441 28.5524 313.149 29.9821 313.149C31.4268 313.149 32.6994 313.437 33.7997 314.014C34.9076 314.583 35.7722 315.361 36.3935 316.349C37.0148 317.33 37.3254 318.438 37.3254 319.673C37.3254 320.526 37.1645 321.361 36.8426 322.177C36.5282 322.993 35.978 323.902 35.192 324.905C34.4061 325.901 33.3132 327.11 31.9134 328.532L27.3435 333.315V333.484H37.6959V336.459H22.5603ZM45.0841 330.609L45.0616 326.511H45.6455L52.5172 319.212H56.5369L48.6996 327.521H48.1719L45.0841 330.609ZM41.9963 336.459V313.464H45.3536V336.459H41.9963ZM52.8877 336.459L46.7122 328.262L49.0252 325.916L57.0085 336.459H52.8877Z" fill="#4D4D4D"/>
<path d="M9.30819 438.669V409.925H11.1496V438.669H9.30819ZM15.0683 418.84C14.9485 417.777 14.4545 416.954 13.5861 416.37C12.7178 415.779 11.6249 415.483 10.3075 415.483C9.36433 415.483 8.54842 415.633 7.85975 415.932C7.17109 416.224 6.63588 416.628 6.25412 417.145C5.87984 417.654 5.69271 418.234 5.69271 418.885C5.69271 419.432 5.81996 419.903 6.07447 420.3C6.33646 420.697 6.67705 421.03 7.09623 421.299C7.52291 421.561 7.97952 421.782 8.46608 421.962C8.95263 422.134 9.42047 422.276 9.8696 422.388L12.1152 422.972C12.8488 423.152 13.6011 423.395 14.3721 423.702C15.1431 424.009 15.858 424.413 16.5167 424.915C17.1754 425.416 17.7069 426.037 18.1111 426.779C18.5228 427.52 18.7287 428.407 18.7287 429.44C18.7287 430.742 18.3918 431.899 17.7181 432.909C17.0519 433.92 16.0826 434.717 14.81 435.301C13.545 435.885 12.0142 436.177 10.2177 436.177C8.49602 436.177 7.00641 435.903 5.74885 435.357C4.49129 434.81 3.50695 434.036 2.79583 433.033C2.08471 432.022 1.69172 430.824 1.61686 429.44H5.09761C5.16498 430.271 5.43446 430.963 5.90604 431.517C6.38511 432.063 6.99518 432.471 7.73624 432.741C8.48479 433.003 9.30445 433.134 10.1952 433.134C11.1758 433.134 12.0479 432.98 12.8114 432.673C13.5824 432.359 14.1887 431.925 14.6304 431.371C15.072 430.809 15.2928 430.154 15.2928 429.406C15.2928 428.725 15.0982 428.167 14.709 427.733C14.3272 427.299 13.807 426.939 13.1482 426.655C12.497 426.371 11.7597 426.12 10.9363 425.903L8.21906 425.162C6.37763 424.66 4.91796 423.923 3.84005 422.95C2.76963 421.977 2.23442 420.689 2.23442 419.087C2.23442 417.762 2.59372 416.606 3.31232 415.618C4.03093 414.63 5.00404 413.862 6.23166 413.316C7.45928 412.762 8.84409 412.485 10.3861 412.485C11.9431 412.485 13.3167 412.758 14.5069 413.305C15.7045 413.851 16.6477 414.603 17.3364 415.562C18.025 416.512 18.3843 417.605 18.4143 418.84H15.0683ZM31.2846 412.799V435.795H27.8039V416.28H27.6691L22.1673 419.873V416.55L27.9049 412.799H31.2846ZM40.6377 429.945L40.6153 425.847H41.1991L48.0708 418.548H52.0905L44.2532 426.857H43.7255L40.6377 429.945ZM37.55 435.795V412.799H40.9072V435.795H37.55ZM48.4413 435.795L42.2658 427.598L44.5788 425.252L52.5621 435.795H48.4413Z" fill="#4D4D4D"/>
<path d="M9.30819 538.003V509.259H11.1496V538.003H9.30819ZM15.0683 518.174C14.9485 517.111 14.4545 516.288 13.5861 515.704C12.7178 515.113 11.6249 514.817 10.3075 514.817C9.36433 514.817 8.54842 514.967 7.85975 515.266C7.17109 515.558 6.63588 515.962 6.25412 516.479C5.87984 516.988 5.69271 517.568 5.69271 518.219C5.69271 518.766 5.81996 519.237 6.07447 519.634C6.33646 520.031 6.67705 520.364 7.09623 520.633C7.52291 520.895 7.97952 521.116 8.46608 521.296C8.95263 521.468 9.42047 521.61 9.8696 521.722L12.1152 522.306C12.8488 522.486 13.6011 522.729 14.3721 523.036C15.1431 523.343 15.858 523.747 16.5167 524.249C17.1754 524.75 17.7069 525.372 18.1111 526.113C18.5228 526.854 18.7287 527.741 18.7287 528.774C18.7287 530.076 18.3918 531.233 17.7181 532.243C17.0519 533.254 16.0826 534.051 14.81 534.635C13.545 535.219 12.0142 535.511 10.2177 535.511C8.49602 535.511 7.00641 535.237 5.74885 534.691C4.49129 534.145 3.50695 533.37 2.79583 532.367C2.08471 531.356 1.69172 530.159 1.61686 528.774H5.09761C5.16498 529.605 5.43446 530.297 5.90604 530.851C6.38511 531.397 6.99518 531.805 7.73624 532.075C8.48479 532.337 9.30445 532.468 10.1952 532.468C11.1758 532.468 12.0479 532.314 12.8114 532.007C13.5824 531.693 14.1887 531.259 14.6304 530.705C15.072 530.144 15.2928 529.489 15.2928 528.74C15.2928 528.059 15.0982 527.501 14.709 527.067C14.3272 526.633 13.807 526.274 13.1482 525.989C12.497 525.705 11.7597 525.454 10.9363 525.237L8.21906 524.496C6.37763 523.994 4.91796 523.257 3.84005 522.284C2.76963 521.311 2.23442 520.023 2.23442 518.421C2.23442 517.096 2.59372 515.94 3.31232 514.952C4.03093 513.964 5.00404 513.196 6.23166 512.65C7.45928 512.096 8.84409 511.819 10.3861 511.819C11.9431 511.819 13.3167 512.092 14.5069 512.639C15.7045 513.185 16.6477 513.938 17.3364 514.896C18.025 515.846 18.3843 516.939 18.4143 518.174H15.0683ZM30.566 535.511C28.792 535.503 27.2761 535.035 26.0186 534.107C24.761 533.179 23.7991 531.828 23.1329 530.054C22.4667 528.28 22.1336 526.143 22.1336 523.642C22.1336 521.15 22.4667 519.02 23.1329 517.254C23.8066 515.487 24.7723 514.14 26.0298 513.211C27.2949 512.283 28.8069 511.819 30.566 511.819C32.3251 511.819 33.8334 512.287 35.091 513.223C36.3485 514.151 37.3104 515.498 37.9766 517.265C38.6503 519.024 38.9872 521.15 38.9872 523.642C38.9872 526.15 38.6541 528.291 37.9879 530.065C37.3217 531.832 36.3598 533.183 35.1022 534.118C33.8447 535.047 32.3326 535.511 30.566 535.511ZM30.566 532.513C32.123 532.513 33.3394 531.753 34.2152 530.233C35.0985 528.714 35.5401 526.517 35.5401 523.642C35.5401 521.734 35.338 520.121 34.9338 518.803C34.5371 517.478 33.9644 516.475 33.2159 515.794C32.4748 515.105 31.5915 514.761 30.566 514.761C29.0165 514.761 27.8001 515.524 26.9168 517.051C26.0336 518.579 25.5882 520.776 25.5807 523.642C25.5807 525.559 25.7791 527.179 26.1758 528.504C26.58 529.822 27.1526 530.821 27.8937 531.502C28.6348 532.176 29.5255 532.513 30.566 532.513Z" fill="#4D4D4D"/>
<line x1="110.665" y1="42.6411" x2="866" y2="42.6411" stroke="#B9B9B9" stroke-width="2.54706" stroke-dasharray="28.02 28.02"/>
<line x1="110.665" y1="141.01" x2="866" y2="141.01" stroke="#B9B9B9" stroke-width="2.54706" stroke-dasharray="28.02 28.02"/>
<line x1="110.665" y1="237.623" x2="866" y2="237.623" stroke="#B9B9B9" stroke-width="2.54706" stroke-dasharray="28.02 28.02"/>
<line x1="110.665" y1="337.749" x2="866" y2="337.749" stroke="#B9B9B9" stroke-width="2.54706" stroke-dasharray="28.02 28.02"/>
<line x1="110.665" y1="436.118" x2="866" y2="436.118" stroke="#B9B9B9" stroke-width="2.54706" stroke-dasharray="28.02 28.02"/>
<line x1="110.665" y1="536.244" x2="866" y2="536.244" stroke="#B9B9B9" stroke-width="2.54706" stroke-dasharray="28.02 28.02"/>
<path d="M163.209 561.978H167.667V582.991C167.667 584.892 167.29 586.518 166.538 587.868C165.795 589.219 164.748 590.251 163.397 590.965C162.047 591.67 160.464 592.022 158.651 592.022C156.981 592.022 155.481 591.718 154.15 591.11C152.828 590.502 151.781 589.619 151.009 588.462C150.247 587.294 149.866 585.876 149.866 584.207H154.309C154.309 585.027 154.497 585.736 154.873 586.334C155.259 586.932 155.785 587.4 156.451 587.738C157.126 588.066 157.898 588.23 158.766 588.23C159.712 588.23 160.513 588.032 161.169 587.637C161.834 587.231 162.341 586.638 162.688 585.857C163.036 585.075 163.209 584.12 163.209 582.991V561.978ZM187.909 582.398V569.388H192.251V591.616H187.996V587.767H187.764C187.253 588.954 186.433 589.943 185.304 590.734C184.185 591.515 182.791 591.906 181.122 591.906C179.694 591.906 178.43 591.592 177.33 590.965C176.24 590.328 175.381 589.388 174.754 588.143C174.137 586.899 173.828 585.36 173.828 583.527V569.388H178.155V583.006C178.155 584.52 178.575 585.726 179.414 586.624C180.254 587.521 181.344 587.97 182.685 587.97C183.495 587.97 184.301 587.767 185.102 587.362C185.912 586.956 186.583 586.344 187.113 585.524C187.654 584.704 187.919 583.662 187.909 582.398Z" fill="#4D4D4D"/>
<path d="M136 148.783C136 143.932 139.932 140 144.783 140H201.217C206.068 140 210 143.932 210 148.783V537H136V148.783Z" fill="#FFEAD0"/>
<path d="M275.008 591.616H270.261L280.927 561.978H286.094L296.759 591.616H292.013L283.633 567.362H283.402L275.008 591.616ZM275.804 580.01H291.202V583.773H275.804V580.01ZM314.773 582.398V569.388H319.115V591.616H314.86V587.767H314.629C314.117 588.954 313.297 589.943 312.168 590.734C311.049 591.515 309.655 591.906 307.986 591.906C306.558 591.906 305.294 591.592 304.194 590.965C303.104 590.328 302.246 589.388 301.618 588.143C301.001 586.899 300.692 585.36 300.692 583.527V569.388H305.019V583.006C305.019 584.52 305.439 585.726 306.278 586.624C307.118 587.521 308.208 587.97 309.549 587.97C310.359 587.97 311.165 587.767 311.966 587.362C312.776 586.956 313.447 586.344 313.977 585.524C314.518 584.704 314.783 583.662 314.773 582.398Z" fill="#4D4D4D"/>
<path d="M259.976 403.578C259.976 398.727 263.908 394.795 268.759 394.795H325.057C329.908 394.795 333.84 398.727 333.84 403.578V537.43H259.976V403.578Z" fill="#FFEAD0"/>
<path d="M414.702 569.413C414.548 568.043 413.911 566.981 412.792 566.229C411.673 565.467 410.264 565.086 408.566 565.086C407.35 565.086 406.299 565.279 405.411 565.664C404.523 566.041 403.834 566.562 403.342 567.227C402.859 567.883 402.618 568.631 402.618 569.471C402.618 570.175 402.782 570.783 403.11 571.294C403.448 571.805 403.887 572.235 404.427 572.582C404.977 572.92 405.565 573.204 406.193 573.436C406.82 573.658 407.423 573.841 408.002 573.986L410.896 574.738C411.841 574.97 412.811 575.283 413.805 575.679C414.798 576.075 415.72 576.596 416.569 577.242C417.418 577.888 418.103 578.689 418.624 579.644C419.155 580.599 419.42 581.743 419.42 583.074C419.42 584.753 418.986 586.244 418.117 587.546C417.259 588.848 416.009 589.876 414.369 590.628C412.739 591.381 410.766 591.757 408.45 591.757C406.231 591.757 404.311 591.405 402.69 590.701C401.069 589.997 399.801 588.998 398.884 587.705C397.968 586.403 397.461 584.859 397.365 583.074H401.851C401.938 584.145 402.285 585.038 402.893 585.751C403.51 586.456 404.297 586.982 405.252 587.329C406.217 587.667 407.273 587.835 408.421 587.835C409.685 587.835 410.809 587.638 411.793 587.242C412.787 586.837 413.568 586.277 414.138 585.563C414.707 584.84 414.991 583.996 414.991 583.031C414.991 582.153 414.741 581.434 414.239 580.874C413.747 580.315 413.076 579.852 412.227 579.485C411.388 579.118 410.438 578.795 409.376 578.515L405.874 577.56C403.501 576.914 401.619 575.964 400.23 574.709C398.85 573.455 398.161 571.796 398.161 569.731C398.161 568.023 398.624 566.533 399.55 565.259C400.476 563.986 401.73 562.997 403.313 562.292C404.895 561.579 406.68 561.222 408.667 561.222C410.674 561.222 412.444 561.574 413.978 562.278C415.522 562.982 416.738 563.952 417.625 565.187C418.513 566.412 418.976 567.821 419.015 569.413H414.702ZM433.997 591.714C431.807 591.714 429.92 591.246 428.338 590.31C426.766 589.365 425.55 588.038 424.691 586.33C423.842 584.613 423.418 582.601 423.418 580.296C423.418 578.019 423.842 576.012 424.691 574.275C425.55 572.539 426.746 571.183 428.28 570.209C429.824 569.234 431.628 568.747 433.693 568.747C434.947 568.747 436.163 568.954 437.34 569.369C438.517 569.784 439.573 570.435 440.509 571.323C441.445 572.211 442.183 573.363 442.723 574.782C443.264 576.19 443.534 577.903 443.534 579.919V581.453H425.863V578.212H439.293C439.293 577.073 439.062 576.065 438.599 575.187C438.136 574.299 437.484 573.6 436.645 573.089C435.815 572.577 434.841 572.322 433.722 572.322C432.506 572.322 431.445 572.621 430.538 573.219C429.641 573.807 428.946 574.579 428.454 575.534C427.972 576.48 427.73 577.507 427.73 578.617V581.149C427.73 582.635 427.991 583.899 428.512 584.941C429.042 585.983 429.781 586.779 430.726 587.329C431.672 587.869 432.776 588.139 434.04 588.139C434.86 588.139 435.608 588.024 436.283 587.792C436.959 587.551 437.542 587.194 438.034 586.721C438.526 586.248 438.903 585.665 439.163 584.97L443.259 585.708C442.931 586.914 442.342 587.97 441.493 588.877C440.654 589.775 439.597 590.474 438.324 590.976C437.06 591.468 435.618 591.714 433.997 591.714Z" fill="#4D4D4D"/>
<path d="M385 243.783C385 238.932 388.932 235 393.783 235H450.217C455.068 235 459 238.932 459 243.783V536.592H385V243.783Z" fill="#FFEAD0"/>
<path d="M546.85 576.797C546.85 579.962 546.271 582.683 545.113 584.959C543.955 587.227 542.368 588.973 540.352 590.198C538.345 591.414 536.063 592.022 533.506 592.022C530.94 592.022 528.649 591.414 526.632 590.198C524.625 588.973 523.043 587.222 521.885 584.945C520.728 582.668 520.149 579.952 520.149 576.797C520.149 573.633 520.728 570.917 521.885 568.65C523.043 566.373 524.625 564.626 526.632 563.411C528.649 562.186 530.94 561.573 533.506 561.573C536.063 561.573 538.345 562.186 540.352 563.411C542.368 564.626 543.955 566.373 545.113 568.65C546.271 570.917 546.85 573.633 546.85 576.797ZM542.421 576.797C542.421 574.385 542.03 572.354 541.249 570.705C540.477 569.045 539.416 567.791 538.065 566.942C536.724 566.083 535.204 565.654 533.506 565.654C531.799 565.654 530.274 566.083 528.933 566.942C527.592 567.791 526.531 569.045 525.749 570.705C524.978 572.354 524.592 574.385 524.592 576.797C524.592 579.209 524.978 581.245 525.749 582.904C526.531 584.554 527.592 585.809 528.933 586.667C530.274 587.516 531.799 587.941 533.506 587.941C535.204 587.941 536.724 587.516 538.065 586.667C539.416 585.809 540.477 584.554 541.249 582.904C542.03 581.245 542.421 579.209 542.421 576.797ZM561.441 592.065C559.289 592.065 557.437 591.578 555.884 590.604C554.34 589.619 553.153 588.264 552.324 586.537C551.494 584.81 551.079 582.832 551.079 580.603C551.079 578.346 551.503 576.354 552.352 574.627C553.201 572.89 554.398 571.534 555.942 570.56C557.485 569.585 559.304 569.098 561.397 569.098C563.086 569.098 564.591 569.412 565.913 570.039C567.234 570.656 568.301 571.525 569.111 572.644C569.931 573.763 570.418 575.07 570.573 576.566H566.361C566.13 575.524 565.599 574.627 564.769 573.874C563.949 573.121 562.849 572.745 561.47 572.745C560.264 572.745 559.207 573.064 558.3 573.7C557.403 574.327 556.704 575.225 556.202 576.392C555.7 577.55 555.449 578.92 555.449 580.502C555.449 582.123 555.695 583.522 556.188 584.699C556.68 585.876 557.374 586.788 558.271 587.434C559.178 588.081 560.244 588.404 561.47 588.404C562.29 588.404 563.033 588.254 563.698 587.955C564.374 587.646 564.938 587.207 565.392 586.638C565.855 586.069 566.178 585.384 566.361 584.583H570.573C570.418 586.021 569.95 587.304 569.169 588.433C568.387 589.562 567.341 590.449 566.028 591.096C564.726 591.742 563.197 592.065 561.441 592.065Z" fill="#4D4D4D"/>
<path d="M509.412 278.772C509.412 273.922 513.344 269.989 518.195 269.989H574.494C579.344 269.989 583.276 273.922 583.276 278.772V537.43H509.412V278.772Z" fill="#FFEAD0"/>
<path d="M669.467 561.978V591.616H665.357L650.292 569.88H650.017V591.616H645.545V561.978H649.684L664.764 583.744H665.039V561.978H669.467ZM685.007 592.065C682.923 592.065 681.104 591.588 679.551 590.632C677.997 589.677 676.791 588.341 675.933 586.624C675.074 584.906 674.645 582.9 674.645 580.603C674.645 578.297 675.074 576.281 675.933 574.554C676.791 572.827 677.997 571.486 679.551 570.531C681.104 569.576 682.923 569.098 685.007 569.098C687.091 569.098 688.909 569.576 690.462 570.531C692.016 571.486 693.222 572.827 694.08 574.554C694.939 576.281 695.368 578.297 695.368 580.603C695.368 582.9 694.939 584.906 694.08 586.624C693.222 588.341 692.016 589.677 690.462 590.632C688.909 591.588 687.091 592.065 685.007 592.065ZM685.021 588.433C686.372 588.433 687.491 588.076 688.379 587.362C689.266 586.648 689.922 585.697 690.347 584.511C690.781 583.324 690.998 582.017 690.998 580.589C690.998 579.171 690.781 577.868 690.347 576.681C689.922 575.485 689.266 574.525 688.379 573.802C687.491 573.078 686.372 572.716 685.021 572.716C683.661 572.716 682.532 573.078 681.635 573.802C680.747 574.525 680.086 575.485 679.652 576.681C679.227 577.868 679.015 579.171 679.015 580.589C679.015 582.017 679.227 583.324 679.652 584.511C680.086 585.697 680.747 586.648 681.635 587.362C682.532 588.076 683.661 588.433 685.021 588.433Z" fill="#4D4D4D"/>
<path d="M634.13 388.295C634.13 383.444 638.062 379.512 642.913 379.512H699.212C704.062 379.512 707.995 383.444 707.995 388.295V537.43H634.13V388.295Z" fill="#FF8C38"/>
<path d="M780.693 591.617H771.098V561.978H780.997C783.901 561.978 786.395 562.571 788.479 563.758C790.563 564.935 792.16 566.628 793.269 568.838C794.388 571.037 794.948 573.676 794.948 576.754C794.948 579.841 794.384 582.494 793.255 584.713C792.136 586.932 790.515 588.64 788.392 589.837C786.27 591.023 783.703 591.617 780.693 591.617ZM775.57 587.709H780.447C782.705 587.709 784.581 587.285 786.077 586.436C787.572 585.577 788.691 584.337 789.434 582.716C790.177 581.086 790.549 579.098 790.549 576.754C790.549 574.429 790.177 572.456 789.434 570.835C788.701 569.214 787.606 567.984 786.149 567.145C784.692 566.305 782.883 565.885 780.722 565.885H775.57V587.709ZM809.742 592.065C807.552 592.065 805.666 591.597 804.083 590.661C802.511 589.716 801.295 588.389 800.436 586.682C799.587 584.964 799.163 582.953 799.163 580.647C799.163 578.37 799.587 576.363 800.436 574.627C801.295 572.89 802.491 571.534 804.026 570.56C805.569 569.585 807.373 569.098 809.438 569.098C810.692 569.098 811.908 569.306 813.085 569.721C814.262 570.135 815.318 570.787 816.254 571.674C817.19 572.562 817.928 573.715 818.469 575.133C819.009 576.542 819.279 578.254 819.279 580.271V581.805H801.609V578.563H815.039C815.039 577.424 814.807 576.416 814.344 575.538C813.881 574.651 813.23 573.951 812.39 573.44C811.561 572.928 810.586 572.673 809.467 572.673C808.251 572.673 807.19 572.972 806.283 573.57C805.386 574.159 804.691 574.93 804.199 575.886C803.717 576.831 803.476 577.859 803.476 578.968V581.501C803.476 582.986 803.736 584.25 804.257 585.292C804.788 586.334 805.526 587.13 806.471 587.68C807.417 588.22 808.521 588.491 809.785 588.491C810.605 588.491 811.353 588.375 812.028 588.143C812.704 587.902 813.288 587.545 813.78 587.072C814.272 586.6 814.648 586.016 814.908 585.321L819.004 586.059C818.676 587.265 818.087 588.322 817.238 589.229C816.399 590.126 815.343 590.825 814.069 591.327C812.805 591.819 811.363 592.065 809.742 592.065Z" fill="#4D4D4D"/>
<path d="M758.848 487.629C758.848 482.778 762.78 478.846 767.631 478.846H823.93C828.78 478.846 832.713 482.778 832.713 487.629V537.429H758.848V487.629Z" fill="#FF8C38"/>
</svg>
