<svg width="24" height="24" viewBox="0 0 24 24" fill="none" xmlns="http://www.w3.org/2000/svg">
<path d="M10.9625 3.19315C11.289 2.18808 12.7109 2.18808 13.0375 3.19315L14.4492 7.538C14.5953 7.98747 15.0141 8.2918 15.4868 8.2918H20.0552C21.112 8.2918 21.5514 9.6441 20.6964 10.2653L17.0005 12.9505C16.6181 13.2283 16.4581 13.7207 16.6042 14.1702L18.0159 18.5151C18.3425 19.5201 17.1921 20.3559 16.3372 19.7347L12.6412 17.0495C12.2589 16.7717 11.7411 16.7717 11.3588 17.0495L7.66283 19.7347C6.80787 20.3559 5.65753 19.5201 5.98409 18.5151L7.39582 14.1702C7.54186 13.7207 7.38187 13.2283 6.99952 12.9505L3.30358 10.2653C2.44861 9.6441 2.88801 8.2918 3.9448 8.2918H8.51324C8.98585 8.2918 9.40471 7.98748 9.55076 7.538L10.9625 3.19315Z" fill="#FF8C38"/>
</svg>
