<svg width="497" height="216" viewBox="0 0 497 216" fill="none" xmlns="http://www.w3.org/2000/svg">
<path d="M8.96023 67.1591C8.24811 67.1591 7.60795 67.0227 7.03977 66.75C6.47538 66.4735 6.02462 66.0947 5.6875 65.6136C5.35038 65.1326 5.17045 64.5833 5.14773 63.9659H6.85227C6.89394 64.4659 7.11553 64.8769 7.51705 65.1989C7.91856 65.5208 8.39962 65.6818 8.96023 65.6818C9.4072 65.6818 9.80303 65.5795 10.1477 65.375C10.4962 65.1667 10.7689 64.8807 10.9659 64.517C11.1667 64.1534 11.267 63.7386 11.267 63.2727C11.267 62.7992 11.1648 62.3769 10.9602 62.0057C10.7557 61.6345 10.4735 61.3428 10.1136 61.1307C9.75758 60.9186 9.34848 60.8106 8.88636 60.8068C8.53409 60.8068 8.17992 60.8674 7.82386 60.9886C7.4678 61.1098 7.17992 61.2689 6.96023 61.4659L5.35227 61.2273L6.00568 55.3636H12.4034V56.8693H7.46591L7.09659 60.125H7.16477C7.39205 59.9053 7.69318 59.7216 8.06818 59.5739C8.44697 59.4261 8.85227 59.3523 9.28409 59.3523C9.99242 59.3523 10.6231 59.5208 11.1761 59.858C11.733 60.1951 12.1705 60.6553 12.4886 61.2386C12.8106 61.8182 12.9697 62.4848 12.9659 63.2386C12.9697 63.9924 12.7992 64.6648 12.4545 65.2557C12.1136 65.8466 11.6402 66.3125 11.0341 66.6534C10.4318 66.9905 9.74053 67.1591 8.96023 67.1591ZM25.8381 60.4034L24.2983 60.6761C24.2339 60.4792 24.1316 60.2917 23.9915 60.1136C23.8551 59.9356 23.6695 59.7898 23.4347 59.6761C23.1998 59.5625 22.9063 59.5057 22.554 59.5057C22.0729 59.5057 21.6714 59.6136 21.3494 59.8295C21.0275 60.0417 20.8665 60.3163 20.8665 60.6534C20.8665 60.9451 20.9744 61.1799 21.1903 61.358C21.4063 61.536 21.7547 61.6818 22.2358 61.7955L23.6222 62.1136C24.4252 62.2992 25.0237 62.5852 25.4176 62.9716C25.8116 63.358 26.0085 63.8598 26.0085 64.4773C26.0085 65 25.857 65.4659 25.554 65.875C25.2547 66.2803 24.8362 66.5985 24.2983 66.8295C23.7642 67.0606 23.1449 67.1761 22.4403 67.1761C21.4631 67.1761 20.6657 66.9678 20.0483 66.5511C19.4309 66.1307 19.0521 65.5341 18.9119 64.7614L20.554 64.5114C20.6563 64.9394 20.8665 65.2633 21.1847 65.483C21.5028 65.6989 21.9176 65.8068 22.429 65.8068C22.9858 65.8068 23.4309 65.6913 23.7642 65.4602C24.0975 65.2254 24.2642 64.9394 24.2642 64.6023C24.2642 64.3295 24.1619 64.1004 23.9574 63.9148C23.7566 63.7292 23.4479 63.589 23.0312 63.4943L21.554 63.1705C20.7396 62.9848 20.1373 62.6894 19.7472 62.2841C19.3608 61.8788 19.1676 61.3655 19.1676 60.7443C19.1676 60.2292 19.3116 59.7784 19.5994 59.392C19.8873 59.0057 20.285 58.7045 20.7926 58.4886C21.3002 58.2689 21.8816 58.1591 22.5369 58.1591C23.4801 58.1591 24.2225 58.3636 24.7642 58.7727C25.3059 59.178 25.6638 59.7216 25.8381 60.4034ZM31.9503 58.2727V59.6364H27.1832V58.2727H31.9503ZM28.4616 56.1818H30.1605V64.4375C30.1605 64.767 30.2098 65.0152 30.3082 65.1818C30.4067 65.3447 30.5336 65.4564 30.6889 65.517C30.848 65.5739 31.0204 65.6023 31.206 65.6023C31.3423 65.6023 31.4616 65.5928 31.5639 65.5739C31.6662 65.5549 31.7457 65.5398 31.8026 65.5284L32.1094 66.9318C32.0109 66.9697 31.8707 67.0076 31.6889 67.0455C31.5071 67.0871 31.2798 67.1098 31.0071 67.1136C30.5601 67.1212 30.1435 67.0417 29.7571 66.875C29.3707 66.7083 29.0582 66.4508 28.8196 66.1023C28.581 65.7538 28.4616 65.3163 28.4616 64.7898V56.1818ZM36.3693 67.1932C35.8163 67.1932 35.3163 67.0909 34.8693 66.8864C34.4223 66.678 34.0682 66.3769 33.8068 65.983C33.5492 65.589 33.4205 65.1061 33.4205 64.5341C33.4205 64.0417 33.5152 63.6364 33.7045 63.3182C33.8939 63 34.1496 62.7481 34.4716 62.5625C34.7936 62.3769 35.1534 62.2367 35.5511 62.142C35.9489 62.0473 36.3542 61.9754 36.767 61.9261C37.2898 61.8655 37.714 61.8163 38.0398 61.7784C38.3655 61.7367 38.6023 61.6705 38.75 61.5795C38.8977 61.4886 38.9716 61.3409 38.9716 61.1364V61.0966C38.9716 60.6004 38.8314 60.2159 38.5511 59.9432C38.2746 59.6705 37.8617 59.5341 37.3125 59.5341C36.7405 59.5341 36.2898 59.661 35.9602 59.9148C35.6345 60.1648 35.4091 60.4432 35.2841 60.75L33.6875 60.3864C33.8769 59.8561 34.1534 59.428 34.517 59.1023C34.8845 58.7727 35.3068 58.5341 35.7841 58.3864C36.2614 58.2348 36.7633 58.1591 37.2898 58.1591C37.6383 58.1591 38.0076 58.2008 38.3977 58.2841C38.7917 58.3636 39.1591 58.5114 39.5 58.7273C39.8447 58.9432 40.1269 59.2519 40.3466 59.6534C40.5663 60.0511 40.6761 60.5682 40.6761 61.2045V67H39.017V65.8068H38.9489C38.839 66.0265 38.6742 66.2424 38.4545 66.4545C38.2348 66.6667 37.9527 66.8428 37.608 66.983C37.2633 67.1231 36.8504 67.1932 36.3693 67.1932ZM36.7386 65.8295C37.2083 65.8295 37.6098 65.7367 37.9432 65.5511C38.2803 65.3655 38.536 65.1231 38.7102 64.8239C38.8883 64.5208 38.9773 64.197 38.9773 63.8523V62.7273C38.9167 62.7879 38.7992 62.8447 38.625 62.8977C38.4545 62.947 38.2595 62.9905 38.0398 63.0284C37.8201 63.0625 37.6061 63.0947 37.3977 63.125C37.1894 63.1515 37.0152 63.1742 36.875 63.1932C36.5455 63.2348 36.2443 63.3049 35.9716 63.4034C35.7027 63.5019 35.4867 63.6439 35.3239 63.8295C35.1648 64.0114 35.0852 64.2538 35.0852 64.5568C35.0852 64.9773 35.2405 65.2955 35.5511 65.5114C35.8617 65.7235 36.2576 65.8295 36.7386 65.8295ZM42.9389 67V58.2727H44.581V59.6591H44.6719C44.831 59.1894 45.1113 58.8201 45.5128 58.5511C45.9181 58.2784 46.3764 58.142 46.8878 58.142C46.9938 58.142 47.1188 58.1458 47.2628 58.1534C47.4105 58.161 47.526 58.1705 47.6094 58.1818V59.8068C47.5412 59.7879 47.42 59.767 47.2457 59.7443C47.0715 59.7178 46.8973 59.7045 46.723 59.7045C46.3215 59.7045 45.9635 59.7898 45.6491 59.9602C45.3385 60.1269 45.0923 60.3598 44.9105 60.6591C44.7287 60.9545 44.6378 61.2917 44.6378 61.6705V67H42.9389ZM55.6193 60.4034L54.0795 60.6761C54.0152 60.4792 53.9129 60.2917 53.7727 60.1136C53.6364 59.9356 53.4508 59.7898 53.2159 59.6761C52.9811 59.5625 52.6875 59.5057 52.3352 59.5057C51.8542 59.5057 51.4527 59.6136 51.1307 59.8295C50.8087 60.0417 50.6477 60.3163 50.6477 60.6534C50.6477 60.9451 50.7557 61.1799 50.9716 61.358C51.1875 61.536 51.536 61.6818 52.017 61.7955L53.4034 62.1136C54.2064 62.2992 54.8049 62.5852 55.1989 62.9716C55.5928 63.358 55.7898 63.8598 55.7898 64.4773C55.7898 65 55.6383 65.4659 55.3352 65.875C55.036 66.2803 54.6174 66.5985 54.0795 66.8295C53.5455 67.0606 52.9261 67.1761 52.2216 67.1761C51.2443 67.1761 50.447 66.9678 49.8295 66.5511C49.2121 66.1307 48.8333 65.5341 48.6932 64.7614L50.3352 64.5114C50.4375 64.9394 50.6477 65.2633 50.9659 65.483C51.2841 65.6989 51.6989 65.8068 52.2102 65.8068C52.767 65.8068 53.2121 65.6913 53.5455 65.4602C53.8788 65.2254 54.0455 64.9394 54.0455 64.6023C54.0455 64.3295 53.9432 64.1004 53.7386 63.9148C53.5379 63.7292 53.2292 63.589 52.8125 63.4943L51.3352 63.1705C50.5208 62.9848 49.9186 62.6894 49.5284 62.2841C49.142 61.8788 48.9489 61.3655 48.9489 60.7443C48.9489 60.2292 49.0928 59.7784 49.3807 59.392C49.6686 59.0057 50.0663 58.7045 50.5739 58.4886C51.0814 58.2689 51.6629 58.1591 52.3182 58.1591C53.2614 58.1591 54.0038 58.3636 54.5455 58.7727C55.0871 59.178 55.4451 59.7216 55.6193 60.4034Z" fill="#4D4D4D"/>
<path d="M8.96023 67.1591C8.24811 67.1591 7.60795 67.0227 7.03977 66.75C6.47538 66.4735 6.02462 66.0947 5.6875 65.6136C5.35038 65.1326 5.17045 64.5833 5.14773 63.9659H6.85227C6.89394 64.4659 7.11553 64.8769 7.51705 65.1989C7.91856 65.5208 8.39962 65.6818 8.96023 65.6818C9.4072 65.6818 9.80303 65.5795 10.1477 65.375C10.4962 65.1667 10.7689 64.8807 10.9659 64.517C11.1667 64.1534 11.267 63.7386 11.267 63.2727C11.267 62.7992 11.1648 62.3769 10.9602 62.0057C10.7557 61.6345 10.4735 61.3428 10.1136 61.1307C9.75758 60.9186 9.34848 60.8106 8.88636 60.8068C8.53409 60.8068 8.17992 60.8674 7.82386 60.9886C7.4678 61.1098 7.17992 61.2689 6.96023 61.4659L5.35227 61.2273L6.00568 55.3636H12.4034V56.8693H7.46591L7.09659 60.125H7.16477C7.39205 59.9053 7.69318 59.7216 8.06818 59.5739C8.44697 59.4261 8.85227 59.3523 9.28409 59.3523C9.99242 59.3523 10.6231 59.5208 11.1761 59.858C11.733 60.1951 12.1705 60.6553 12.4886 61.2386C12.8106 61.8182 12.9697 62.4848 12.9659 63.2386C12.9697 63.9924 12.7992 64.6648 12.4545 65.2557C12.1136 65.8466 11.6402 66.3125 11.0341 66.6534C10.4318 66.9905 9.74053 67.1591 8.96023 67.1591ZM25.8381 60.4034L24.2983 60.6761C24.2339 60.4792 24.1316 60.2917 23.9915 60.1136C23.8551 59.9356 23.6695 59.7898 23.4347 59.6761C23.1998 59.5625 22.9063 59.5057 22.554 59.5057C22.0729 59.5057 21.6714 59.6136 21.3494 59.8295C21.0275 60.0417 20.8665 60.3163 20.8665 60.6534C20.8665 60.9451 20.9744 61.1799 21.1903 61.358C21.4063 61.536 21.7547 61.6818 22.2358 61.7955L23.6222 62.1136C24.4252 62.2992 25.0237 62.5852 25.4176 62.9716C25.8116 63.358 26.0085 63.8598 26.0085 64.4773C26.0085 65 25.857 65.4659 25.554 65.875C25.2547 66.2803 24.8362 66.5985 24.2983 66.8295C23.7642 67.0606 23.1449 67.1761 22.4403 67.1761C21.4631 67.1761 20.6657 66.9678 20.0483 66.5511C19.4309 66.1307 19.0521 65.5341 18.9119 64.7614L20.554 64.5114C20.6563 64.9394 20.8665 65.2633 21.1847 65.483C21.5028 65.6989 21.9176 65.8068 22.429 65.8068C22.9858 65.8068 23.4309 65.6913 23.7642 65.4602C24.0975 65.2254 24.2642 64.9394 24.2642 64.6023C24.2642 64.3295 24.1619 64.1004 23.9574 63.9148C23.7566 63.7292 23.4479 63.589 23.0312 63.4943L21.554 63.1705C20.7396 62.9848 20.1373 62.6894 19.7472 62.2841C19.3608 61.8788 19.1676 61.3655 19.1676 60.7443C19.1676 60.2292 19.3116 59.7784 19.5994 59.392C19.8873 59.0057 20.285 58.7045 20.7926 58.4886C21.3002 58.2689 21.8816 58.1591 22.5369 58.1591C23.4801 58.1591 24.2225 58.3636 24.7642 58.7727C25.3059 59.178 25.6638 59.7216 25.8381 60.4034ZM31.9503 58.2727V59.6364H27.1832V58.2727H31.9503ZM28.4616 56.1818H30.1605V64.4375C30.1605 64.767 30.2098 65.0152 30.3082 65.1818C30.4067 65.3447 30.5336 65.4564 30.6889 65.517C30.848 65.5739 31.0204 65.6023 31.206 65.6023C31.3423 65.6023 31.4616 65.5928 31.5639 65.5739C31.6662 65.5549 31.7457 65.5398 31.8026 65.5284L32.1094 66.9318C32.0109 66.9697 31.8707 67.0076 31.6889 67.0455C31.5071 67.0871 31.2798 67.1098 31.0071 67.1136C30.5601 67.1212 30.1435 67.0417 29.7571 66.875C29.3707 66.7083 29.0582 66.4508 28.8196 66.1023C28.581 65.7538 28.4616 65.3163 28.4616 64.7898V56.1818ZM36.3693 67.1932C35.8163 67.1932 35.3163 67.0909 34.8693 66.8864C34.4223 66.678 34.0682 66.3769 33.8068 65.983C33.5492 65.589 33.4205 65.1061 33.4205 64.5341C33.4205 64.0417 33.5152 63.6364 33.7045 63.3182C33.8939 63 34.1496 62.7481 34.4716 62.5625C34.7936 62.3769 35.1534 62.2367 35.5511 62.142C35.9489 62.0473 36.3542 61.9754 36.767 61.9261C37.2898 61.8655 37.714 61.8163 38.0398 61.7784C38.3655 61.7367 38.6023 61.6705 38.75 61.5795C38.8977 61.4886 38.9716 61.3409 38.9716 61.1364V61.0966C38.9716 60.6004 38.8314 60.2159 38.5511 59.9432C38.2746 59.6705 37.8617 59.5341 37.3125 59.5341C36.7405 59.5341 36.2898 59.661 35.9602 59.9148C35.6345 60.1648 35.4091 60.4432 35.2841 60.75L33.6875 60.3864C33.8769 59.8561 34.1534 59.428 34.517 59.1023C34.8845 58.7727 35.3068 58.5341 35.7841 58.3864C36.2614 58.2348 36.7633 58.1591 37.2898 58.1591C37.6383 58.1591 38.0076 58.2008 38.3977 58.2841C38.7917 58.3636 39.1591 58.5114 39.5 58.7273C39.8447 58.9432 40.1269 59.2519 40.3466 59.6534C40.5663 60.0511 40.6761 60.5682 40.6761 61.2045V67H39.017V65.8068H38.9489C38.839 66.0265 38.6742 66.2424 38.4545 66.4545C38.2348 66.6667 37.9527 66.8428 37.608 66.983C37.2633 67.1231 36.8504 67.1932 36.3693 67.1932ZM36.7386 65.8295C37.2083 65.8295 37.6098 65.7367 37.9432 65.5511C38.2803 65.3655 38.536 65.1231 38.7102 64.8239C38.8883 64.5208 38.9773 64.197 38.9773 63.8523V62.7273C38.9167 62.7879 38.7992 62.8447 38.625 62.8977C38.4545 62.947 38.2595 62.9905 38.0398 63.0284C37.8201 63.0625 37.6061 63.0947 37.3977 63.125C37.1894 63.1515 37.0152 63.1742 36.875 63.1932C36.5455 63.2348 36.2443 63.3049 35.9716 63.4034C35.7027 63.5019 35.4867 63.6439 35.3239 63.8295C35.1648 64.0114 35.0852 64.2538 35.0852 64.5568C35.0852 64.9773 35.2405 65.2955 35.5511 65.5114C35.8617 65.7235 36.2576 65.8295 36.7386 65.8295ZM42.9389 67V58.2727H44.581V59.6591H44.6719C44.831 59.1894 45.1113 58.8201 45.5128 58.5511C45.9181 58.2784 46.3764 58.142 46.8878 58.142C46.9938 58.142 47.1188 58.1458 47.2628 58.1534C47.4105 58.161 47.526 58.1705 47.6094 58.1818V59.8068C47.5412 59.7879 47.42 59.767 47.2457 59.7443C47.0715 59.7178 46.8973 59.7045 46.723 59.7045C46.3215 59.7045 45.9635 59.7898 45.6491 59.9602C45.3385 60.1269 45.0923 60.3598 44.9105 60.6591C44.7287 60.9545 44.6378 61.2917 44.6378 61.6705V67H42.9389ZM55.6193 60.4034L54.0795 60.6761C54.0152 60.4792 53.9129 60.2917 53.7727 60.1136C53.6364 59.9356 53.4508 59.7898 53.2159 59.6761C52.9811 59.5625 52.6875 59.5057 52.3352 59.5057C51.8542 59.5057 51.4527 59.6136 51.1307 59.8295C50.8087 60.0417 50.6477 60.3163 50.6477 60.6534C50.6477 60.9451 50.7557 61.1799 50.9716 61.358C51.1875 61.536 51.536 61.6818 52.017 61.7955L53.4034 62.1136C54.2064 62.2992 54.8049 62.5852 55.1989 62.9716C55.5928 63.358 55.7898 63.8598 55.7898 64.4773C55.7898 65 55.6383 65.4659 55.3352 65.875C55.036 66.2803 54.6174 66.5985 54.0795 66.8295C53.5455 67.0606 52.9261 67.1761 52.2216 67.1761C51.2443 67.1761 50.447 66.9678 49.8295 66.5511C49.2121 66.1307 48.8333 65.5341 48.6932 64.7614L50.3352 64.5114C50.4375 64.9394 50.6477 65.2633 50.9659 65.483C51.2841 65.6989 51.6989 65.8068 52.2102 65.8068C52.767 65.8068 53.2121 65.6913 53.5455 65.4602C53.8788 65.2254 54.0455 64.9394 54.0455 64.6023C54.0455 64.3295 53.9432 64.1004 53.7386 63.9148C53.5379 63.7292 53.2292 63.589 52.8125 63.4943L51.3352 63.1705C50.5208 62.9848 49.9186 62.6894 49.5284 62.2841C49.142 61.8788 48.9489 61.3655 48.9489 60.7443C48.9489 60.2292 49.0928 59.7784 49.3807 59.392C49.6686 59.0057 50.0663 58.7045 50.5739 58.4886C51.0814 58.2689 51.6629 58.1591 52.3182 58.1591C53.2614 58.1591 54.0038 58.3636 54.5455 58.7727C55.0871 59.178 55.4451 59.7216 55.6193 60.4034Z" fill="#4D4D4D"/>
<path d="M461.065 55.3636V67H459.304V57.125H459.236L456.452 58.9432V57.2614L459.355 55.3636H461.065ZM468.264 67.1932C467.366 67.1894 466.599 66.9527 465.963 66.483C465.327 66.0133 464.84 65.3295 464.503 64.4318C464.166 63.5341 463.997 62.4527 463.997 61.1875C463.997 59.9261 464.166 58.8485 464.503 57.9545C464.844 57.0606 465.332 56.3788 465.969 55.9091C466.609 55.4394 467.374 55.2045 468.264 55.2045C469.154 55.2045 469.918 55.4413 470.554 55.9148C471.19 56.3845 471.677 57.0663 472.014 57.9602C472.355 58.8504 472.526 59.9261 472.526 61.1875C472.526 62.4564 472.357 63.5398 472.02 64.4375C471.683 65.3314 471.196 66.0152 470.56 66.4886C469.923 66.9583 469.158 67.1932 468.264 67.1932ZM468.264 65.6761C469.052 65.6761 469.668 65.2917 470.111 64.5227C470.558 63.7538 470.781 62.642 470.781 61.1875C470.781 60.2216 470.679 59.4053 470.474 58.7386C470.274 58.0682 469.984 57.5606 469.605 57.2159C469.23 56.8674 468.783 56.6932 468.264 56.6932C467.48 56.6932 466.865 57.0795 466.418 57.8523C465.971 58.625 465.745 59.7367 465.741 61.1875C465.741 62.1572 465.842 62.9773 466.043 63.6477C466.247 64.3144 466.537 64.8201 466.912 65.1648C467.287 65.5057 467.738 65.6761 468.264 65.6761ZM478.592 67.1932C477.695 67.1894 476.928 66.9527 476.291 66.483C475.655 66.0133 475.168 65.3295 474.831 64.4318C474.494 63.5341 474.325 62.4527 474.325 61.1875C474.325 59.9261 474.494 58.8485 474.831 57.9545C475.172 57.0606 475.661 56.3788 476.297 55.9091C476.937 55.4394 477.702 55.2045 478.592 55.2045C479.482 55.2045 480.246 55.4413 480.882 55.9148C481.518 56.3845 482.005 57.0663 482.342 57.9602C482.683 58.8504 482.854 59.9261 482.854 61.1875C482.854 62.4564 482.685 63.5398 482.348 64.4375C482.011 65.3314 481.524 66.0152 480.888 66.4886C480.251 66.9583 479.486 67.1932 478.592 67.1932ZM478.592 65.6761C479.38 65.6761 479.996 65.2917 480.439 64.5227C480.886 63.7538 481.109 62.642 481.109 61.1875C481.109 60.2216 481.007 59.4053 480.803 58.7386C480.602 58.0682 480.312 57.5606 479.933 57.2159C479.558 56.8674 479.111 56.6932 478.592 56.6932C477.808 56.6932 477.193 57.0795 476.746 57.8523C476.299 58.625 476.073 59.7367 476.07 61.1875C476.07 62.1572 476.17 62.9773 476.371 63.6477C476.575 64.3144 476.865 64.8201 477.24 65.1648C477.615 65.5057 478.066 65.6761 478.592 65.6761ZM490.943 64.8182V64.2045C490.943 63.7652 491.034 63.3636 491.216 63C491.402 62.6326 491.67 62.339 492.023 62.1193C492.379 61.8958 492.809 61.7841 493.312 61.7841C493.828 61.7841 494.259 61.8939 494.608 62.1136C494.956 62.3333 495.22 62.6269 495.398 62.9943C495.58 63.3617 495.67 63.7652 495.67 64.2045V64.8182C495.67 65.2576 495.58 65.661 495.398 66.0284C495.216 66.392 494.949 66.6856 494.597 66.9091C494.248 67.1288 493.82 67.2386 493.312 67.2386C492.801 67.2386 492.369 67.1288 492.017 66.9091C491.665 66.6856 491.398 66.392 491.216 66.0284C491.034 65.661 490.943 65.2576 490.943 64.8182ZM492.267 64.2045V64.8182C492.267 65.1439 492.345 65.4394 492.5 65.7045C492.655 65.9697 492.926 66.1023 493.312 66.1023C493.695 66.1023 493.962 65.9697 494.114 65.7045C494.265 65.4394 494.341 65.1439 494.341 64.8182V64.2045C494.341 63.8788 494.267 63.5833 494.119 63.3182C493.975 63.053 493.706 62.9205 493.312 62.9205C492.934 62.9205 492.665 63.053 492.506 63.3182C492.347 63.5833 492.267 63.8788 492.267 64.2045ZM485.091 58.1591V57.5455C485.091 57.1061 485.182 56.7027 485.364 56.3352C485.549 55.9678 485.818 55.6742 486.17 55.4545C486.527 55.2348 486.956 55.125 487.46 55.125C487.975 55.125 488.407 55.2348 488.756 55.4545C489.104 55.6742 489.367 55.9678 489.545 56.3352C489.723 56.7027 489.812 57.1061 489.812 57.5455V58.1591C489.812 58.5985 489.722 59.0019 489.54 59.3693C489.362 59.733 489.097 60.0265 488.744 60.25C488.396 60.4697 487.968 60.5795 487.46 60.5795C486.945 60.5795 486.511 60.4697 486.159 60.25C485.811 60.0265 485.545 59.733 485.364 59.3693C485.182 59.0019 485.091 58.5985 485.091 58.1591ZM486.42 57.5455V58.1591C486.42 58.4848 486.496 58.7803 486.648 59.0455C486.803 59.3106 487.074 59.4432 487.46 59.4432C487.839 59.4432 488.104 59.3106 488.256 59.0455C488.411 58.7803 488.489 58.4848 488.489 58.1591V57.5455C488.489 57.2197 488.415 56.9242 488.267 56.6591C488.119 56.3939 487.85 56.2614 487.46 56.2614C487.081 56.2614 486.813 56.3939 486.653 56.6591C486.498 56.9242 486.42 57.2197 486.42 57.5455ZM485.631 67L493.631 55.3636H494.989L486.989 67H485.631Z" fill="#4D4D4D"/>
<path d="M478.592 102.193C477.695 102.189 476.928 101.953 476.291 101.483C475.655 101.013 475.168 100.33 474.831 99.4318C474.494 98.5341 474.325 97.4527 474.325 96.1875C474.325 94.9261 474.494 93.8485 474.831 92.9545C475.172 92.0606 475.661 91.3788 476.297 90.9091C476.937 90.4394 477.702 90.2045 478.592 90.2045C479.482 90.2045 480.246 90.4413 480.882 90.9148C481.518 91.3845 482.005 92.0663 482.342 92.9602C482.683 93.8504 482.854 94.9261 482.854 96.1875C482.854 97.4564 482.685 98.5398 482.348 99.4375C482.011 100.331 481.524 101.015 480.888 101.489C480.251 101.958 479.486 102.193 478.592 102.193ZM478.592 100.676C479.38 100.676 479.996 100.292 480.439 99.5227C480.886 98.7538 481.109 97.642 481.109 96.1875C481.109 95.2216 481.007 94.4053 480.803 93.7386C480.602 93.0682 480.312 92.5606 479.933 92.2159C479.558 91.8674 479.111 91.6932 478.592 91.6932C477.808 91.6932 477.193 92.0795 476.746 92.8523C476.299 93.625 476.073 94.7367 476.07 96.1875C476.07 97.1572 476.17 97.9773 476.371 98.6477C476.575 99.3144 476.865 99.8201 477.24 100.165C477.615 100.506 478.066 100.676 478.592 100.676ZM490.943 99.8182V99.2045C490.943 98.7652 491.034 98.3636 491.216 98C491.402 97.6326 491.67 97.339 492.023 97.1193C492.379 96.8958 492.809 96.7841 493.312 96.7841C493.828 96.7841 494.259 96.8939 494.608 97.1136C494.956 97.3333 495.22 97.6269 495.398 97.9943C495.58 98.3617 495.67 98.7652 495.67 99.2045V99.8182C495.67 100.258 495.58 100.661 495.398 101.028C495.216 101.392 494.949 101.686 494.597 101.909C494.248 102.129 493.82 102.239 493.312 102.239C492.801 102.239 492.369 102.129 492.017 101.909C491.665 101.686 491.398 101.392 491.216 101.028C491.034 100.661 490.943 100.258 490.943 99.8182ZM492.267 99.2045V99.8182C492.267 100.144 492.345 100.439 492.5 100.705C492.655 100.97 492.926 101.102 493.312 101.102C493.695 101.102 493.962 100.97 494.114 100.705C494.265 100.439 494.341 100.144 494.341 99.8182V99.2045C494.341 98.8788 494.267 98.5833 494.119 98.3182C493.975 98.053 493.706 97.9205 493.312 97.9205C492.934 97.9205 492.665 98.053 492.506 98.3182C492.347 98.5833 492.267 98.8788 492.267 99.2045ZM485.091 93.1591V92.5455C485.091 92.1061 485.182 91.7027 485.364 91.3352C485.549 90.9678 485.818 90.6742 486.17 90.4545C486.527 90.2348 486.956 90.125 487.46 90.125C487.975 90.125 488.407 90.2348 488.756 90.4545C489.104 90.6742 489.367 90.9678 489.545 91.3352C489.723 91.7027 489.812 92.1061 489.812 92.5455V93.1591C489.812 93.5985 489.722 94.0019 489.54 94.3693C489.362 94.733 489.097 95.0265 488.744 95.25C488.396 95.4697 487.968 95.5795 487.46 95.5795C486.945 95.5795 486.511 95.4697 486.159 95.25C485.811 95.0265 485.545 94.733 485.364 94.3693C485.182 94.0019 485.091 93.5985 485.091 93.1591ZM486.42 92.5455V93.1591C486.42 93.4848 486.496 93.7803 486.648 94.0455C486.803 94.3106 487.074 94.4432 487.46 94.4432C487.839 94.4432 488.104 94.3106 488.256 94.0455C488.411 93.7803 488.489 93.4848 488.489 93.1591V92.5455C488.489 92.2197 488.415 91.9242 488.267 91.6591C488.119 91.3939 487.85 91.2614 487.46 91.2614C487.081 91.2614 486.813 91.3939 486.653 91.6591C486.498 91.9242 486.42 92.2197 486.42 92.5455ZM485.631 102L493.631 90.3636H494.989L486.989 102H485.631Z" fill="#4D4D4D"/>
<path d="M478.592 137.193C477.695 137.189 476.928 136.953 476.291 136.483C475.655 136.013 475.168 135.33 474.831 134.432C474.494 133.534 474.325 132.453 474.325 131.188C474.325 129.926 474.494 128.848 474.831 127.955C475.172 127.061 475.661 126.379 476.297 125.909C476.937 125.439 477.702 125.205 478.592 125.205C479.482 125.205 480.246 125.441 480.882 125.915C481.518 126.384 482.005 127.066 482.342 127.96C482.683 128.85 482.854 129.926 482.854 131.188C482.854 132.456 482.685 133.54 482.348 134.438C482.011 135.331 481.524 136.015 480.888 136.489C480.251 136.958 479.486 137.193 478.592 137.193ZM478.592 135.676C479.38 135.676 479.996 135.292 480.439 134.523C480.886 133.754 481.109 132.642 481.109 131.188C481.109 130.222 481.007 129.405 480.803 128.739C480.602 128.068 480.312 127.561 479.933 127.216C479.558 126.867 479.111 126.693 478.592 126.693C477.808 126.693 477.193 127.08 476.746 127.852C476.299 128.625 476.073 129.737 476.07 131.188C476.07 132.157 476.17 132.977 476.371 133.648C476.575 134.314 476.865 134.82 477.24 135.165C477.615 135.506 478.066 135.676 478.592 135.676ZM490.943 134.818V134.205C490.943 133.765 491.034 133.364 491.216 133C491.402 132.633 491.67 132.339 492.023 132.119C492.379 131.896 492.809 131.784 493.312 131.784C493.828 131.784 494.259 131.894 494.608 132.114C494.956 132.333 495.22 132.627 495.398 132.994C495.58 133.362 495.67 133.765 495.67 134.205V134.818C495.67 135.258 495.58 135.661 495.398 136.028C495.216 136.392 494.949 136.686 494.597 136.909C494.248 137.129 493.82 137.239 493.312 137.239C492.801 137.239 492.369 137.129 492.017 136.909C491.665 136.686 491.398 136.392 491.216 136.028C491.034 135.661 490.943 135.258 490.943 134.818ZM492.267 134.205V134.818C492.267 135.144 492.345 135.439 492.5 135.705C492.655 135.97 492.926 136.102 493.312 136.102C493.695 136.102 493.962 135.97 494.114 135.705C494.265 135.439 494.341 135.144 494.341 134.818V134.205C494.341 133.879 494.267 133.583 494.119 133.318C493.975 133.053 493.706 132.92 493.312 132.92C492.934 132.92 492.665 133.053 492.506 133.318C492.347 133.583 492.267 133.879 492.267 134.205ZM485.091 128.159V127.545C485.091 127.106 485.182 126.703 485.364 126.335C485.549 125.968 485.818 125.674 486.17 125.455C486.527 125.235 486.956 125.125 487.46 125.125C487.975 125.125 488.407 125.235 488.756 125.455C489.104 125.674 489.367 125.968 489.545 126.335C489.723 126.703 489.812 127.106 489.812 127.545V128.159C489.812 128.598 489.722 129.002 489.54 129.369C489.362 129.733 489.097 130.027 488.744 130.25C488.396 130.47 487.968 130.58 487.46 130.58C486.945 130.58 486.511 130.47 486.159 130.25C485.811 130.027 485.545 129.733 485.364 129.369C485.182 129.002 485.091 128.598 485.091 128.159ZM486.42 127.545V128.159C486.42 128.485 486.496 128.78 486.648 129.045C486.803 129.311 487.074 129.443 487.46 129.443C487.839 129.443 488.104 129.311 488.256 129.045C488.411 128.78 488.489 128.485 488.489 128.159V127.545C488.489 127.22 488.415 126.924 488.267 126.659C488.119 126.394 487.85 126.261 487.46 126.261C487.081 126.261 486.813 126.394 486.653 126.659C486.498 126.924 486.42 127.22 486.42 127.545ZM485.631 137L493.631 125.364H494.989L486.989 137H485.631Z" fill="#4D4D4D"/>
<path d="M478.592 172.193C477.695 172.189 476.928 171.953 476.291 171.483C475.655 171.013 475.168 170.33 474.831 169.432C474.494 168.534 474.325 167.453 474.325 166.188C474.325 164.926 474.494 163.848 474.831 162.955C475.172 162.061 475.661 161.379 476.297 160.909C476.937 160.439 477.702 160.205 478.592 160.205C479.482 160.205 480.246 160.441 480.882 160.915C481.518 161.384 482.005 162.066 482.342 162.96C482.683 163.85 482.854 164.926 482.854 166.188C482.854 167.456 482.685 168.54 482.348 169.438C482.011 170.331 481.524 171.015 480.888 171.489C480.251 171.958 479.486 172.193 478.592 172.193ZM478.592 170.676C479.38 170.676 479.996 170.292 480.439 169.523C480.886 168.754 481.109 167.642 481.109 166.188C481.109 165.222 481.007 164.405 480.803 163.739C480.602 163.068 480.312 162.561 479.933 162.216C479.558 161.867 479.111 161.693 478.592 161.693C477.808 161.693 477.193 162.08 476.746 162.852C476.299 163.625 476.073 164.737 476.07 166.188C476.07 167.157 476.17 167.977 476.371 168.648C476.575 169.314 476.865 169.82 477.24 170.165C477.615 170.506 478.066 170.676 478.592 170.676ZM490.943 169.818V169.205C490.943 168.765 491.034 168.364 491.216 168C491.402 167.633 491.67 167.339 492.023 167.119C492.379 166.896 492.809 166.784 493.312 166.784C493.828 166.784 494.259 166.894 494.608 167.114C494.956 167.333 495.22 167.627 495.398 167.994C495.58 168.362 495.67 168.765 495.67 169.205V169.818C495.67 170.258 495.58 170.661 495.398 171.028C495.216 171.392 494.949 171.686 494.597 171.909C494.248 172.129 493.82 172.239 493.312 172.239C492.801 172.239 492.369 172.129 492.017 171.909C491.665 171.686 491.398 171.392 491.216 171.028C491.034 170.661 490.943 170.258 490.943 169.818ZM492.267 169.205V169.818C492.267 170.144 492.345 170.439 492.5 170.705C492.655 170.97 492.926 171.102 493.312 171.102C493.695 171.102 493.962 170.97 494.114 170.705C494.265 170.439 494.341 170.144 494.341 169.818V169.205C494.341 168.879 494.267 168.583 494.119 168.318C493.975 168.053 493.706 167.92 493.312 167.92C492.934 167.92 492.665 168.053 492.506 168.318C492.347 168.583 492.267 168.879 492.267 169.205ZM485.091 163.159V162.545C485.091 162.106 485.182 161.703 485.364 161.335C485.549 160.968 485.818 160.674 486.17 160.455C486.527 160.235 486.956 160.125 487.46 160.125C487.975 160.125 488.407 160.235 488.756 160.455C489.104 160.674 489.367 160.968 489.545 161.335C489.723 161.703 489.812 162.106 489.812 162.545V163.159C489.812 163.598 489.722 164.002 489.54 164.369C489.362 164.733 489.097 165.027 488.744 165.25C488.396 165.47 487.968 165.58 487.46 165.58C486.945 165.58 486.511 165.47 486.159 165.25C485.811 165.027 485.545 164.733 485.364 164.369C485.182 164.002 485.091 163.598 485.091 163.159ZM486.42 162.545V163.159C486.42 163.485 486.496 163.78 486.648 164.045C486.803 164.311 487.074 164.443 487.46 164.443C487.839 164.443 488.104 164.311 488.256 164.045C488.411 163.78 488.489 163.485 488.489 163.159V162.545C488.489 162.22 488.415 161.924 488.267 161.659C488.119 161.394 487.85 161.261 487.46 161.261C487.081 161.261 486.813 161.394 486.653 161.659C486.498 161.924 486.42 162.22 486.42 162.545ZM485.631 172L493.631 160.364H494.989L486.989 172H485.631Z" fill="#4D4D4D"/>
<path d="M478.592 207.193C477.695 207.189 476.928 206.953 476.291 206.483C475.655 206.013 475.168 205.33 474.831 204.432C474.494 203.534 474.325 202.453 474.325 201.188C474.325 199.926 474.494 198.848 474.831 197.955C475.172 197.061 475.661 196.379 476.297 195.909C476.937 195.439 477.702 195.205 478.592 195.205C479.482 195.205 480.246 195.441 480.882 195.915C481.518 196.384 482.005 197.066 482.342 197.96C482.683 198.85 482.854 199.926 482.854 201.188C482.854 202.456 482.685 203.54 482.348 204.438C482.011 205.331 481.524 206.015 480.888 206.489C480.251 206.958 479.486 207.193 478.592 207.193ZM478.592 205.676C479.38 205.676 479.996 205.292 480.439 204.523C480.886 203.754 481.109 202.642 481.109 201.188C481.109 200.222 481.007 199.405 480.803 198.739C480.602 198.068 480.312 197.561 479.933 197.216C479.558 196.867 479.111 196.693 478.592 196.693C477.808 196.693 477.193 197.08 476.746 197.852C476.299 198.625 476.073 199.737 476.07 201.188C476.07 202.157 476.17 202.977 476.371 203.648C476.575 204.314 476.865 204.82 477.24 205.165C477.615 205.506 478.066 205.676 478.592 205.676ZM490.943 204.818V204.205C490.943 203.765 491.034 203.364 491.216 203C491.402 202.633 491.67 202.339 492.023 202.119C492.379 201.896 492.809 201.784 493.312 201.784C493.828 201.784 494.259 201.894 494.608 202.114C494.956 202.333 495.22 202.627 495.398 202.994C495.58 203.362 495.67 203.765 495.67 204.205V204.818C495.67 205.258 495.58 205.661 495.398 206.028C495.216 206.392 494.949 206.686 494.597 206.909C494.248 207.129 493.82 207.239 493.312 207.239C492.801 207.239 492.369 207.129 492.017 206.909C491.665 206.686 491.398 206.392 491.216 206.028C491.034 205.661 490.943 205.258 490.943 204.818ZM492.267 204.205V204.818C492.267 205.144 492.345 205.439 492.5 205.705C492.655 205.97 492.926 206.102 493.312 206.102C493.695 206.102 493.962 205.97 494.114 205.705C494.265 205.439 494.341 205.144 494.341 204.818V204.205C494.341 203.879 494.267 203.583 494.119 203.318C493.975 203.053 493.706 202.92 493.312 202.92C492.934 202.92 492.665 203.053 492.506 203.318C492.347 203.583 492.267 203.879 492.267 204.205ZM485.091 198.159V197.545C485.091 197.106 485.182 196.703 485.364 196.335C485.549 195.968 485.818 195.674 486.17 195.455C486.527 195.235 486.956 195.125 487.46 195.125C487.975 195.125 488.407 195.235 488.756 195.455C489.104 195.674 489.367 195.968 489.545 196.335C489.723 196.703 489.812 197.106 489.812 197.545V198.159C489.812 198.598 489.722 199.002 489.54 199.369C489.362 199.733 489.097 200.027 488.744 200.25C488.396 200.47 487.968 200.58 487.46 200.58C486.945 200.58 486.511 200.47 486.159 200.25C485.811 200.027 485.545 199.733 485.364 199.369C485.182 199.002 485.091 198.598 485.091 198.159ZM486.42 197.545V198.159C486.42 198.485 486.496 198.78 486.648 199.045C486.803 199.311 487.074 199.443 487.46 199.443C487.839 199.443 488.104 199.311 488.256 199.045C488.411 198.78 488.489 198.485 488.489 198.159V197.545C488.489 197.22 488.415 196.924 488.267 196.659C488.119 196.394 487.85 196.261 487.46 196.261C487.081 196.261 486.813 196.394 486.653 196.659C486.498 196.924 486.42 197.22 486.42 197.545ZM485.631 207L493.631 195.364H494.989L486.989 207H485.631Z" fill="#4D4D4D"/>
<path d="M4.875 99.7273V98.3068L9.90341 90.3636H11.0227V92.4545H10.3125L6.71591 98.1477V98.2386H13.608V99.7273H4.875ZM10.392 102V99.2955L10.4034 98.6477V90.3636H12.0682V102H10.392ZM26.3849 95.4034L24.8452 95.6761C24.7808 95.4792 24.6785 95.2917 24.5384 95.1136C24.402 94.9356 24.2164 94.7898 23.9815 94.6761C23.7467 94.5625 23.4531 94.5057 23.1009 94.5057C22.6198 94.5057 22.2183 94.6136 21.8963 94.8295C21.5743 95.0417 21.4134 95.3163 21.4134 95.6534C21.4134 95.9451 21.5213 96.1799 21.7372 96.358C21.9531 96.536 22.3016 96.6818 22.7827 96.7955L24.169 97.1136C24.9721 97.2992 25.5705 97.5852 25.9645 97.9716C26.3584 98.358 26.5554 98.8598 26.5554 99.4773C26.5554 100 26.4039 100.466 26.1009 100.875C25.8016 101.28 25.383 101.598 24.8452 101.83C24.3111 102.061 23.6918 102.176 22.9872 102.176C22.0099 102.176 21.2126 101.968 20.5952 101.551C19.9777 101.131 19.599 100.534 19.4588 99.7614L21.1009 99.5114C21.2031 99.9394 21.4134 100.263 21.7315 100.483C22.0497 100.699 22.4645 100.807 22.9759 100.807C23.5327 100.807 23.9777 100.691 24.3111 100.46C24.6444 100.225 24.8111 99.9394 24.8111 99.6023C24.8111 99.3295 24.7088 99.1004 24.5043 98.9148C24.3035 98.7292 23.9948 98.589 23.5781 98.4943L22.1009 98.1705C21.2865 97.9848 20.6842 97.6894 20.294 97.2841C19.9077 96.8788 19.7145 96.3655 19.7145 95.7443C19.7145 95.2292 19.8584 94.7784 20.1463 94.392C20.4342 94.0057 20.8319 93.7045 21.3395 93.4886C21.8471 93.2689 22.4285 93.1591 23.0838 93.1591C24.027 93.1591 24.7694 93.3636 25.3111 93.7727C25.8527 94.178 26.2107 94.7216 26.3849 95.4034ZM32.4972 93.2727V94.6364H27.7301V93.2727H32.4972ZM29.0085 91.1818H30.7074V99.4375C30.7074 99.767 30.7566 100.015 30.8551 100.182C30.9536 100.345 31.0805 100.456 31.2358 100.517C31.3949 100.574 31.5672 100.602 31.7528 100.602C31.8892 100.602 32.0085 100.593 32.1108 100.574C32.2131 100.555 32.2926 100.54 32.3494 100.528L32.6562 101.932C32.5578 101.97 32.4176 102.008 32.2358 102.045C32.054 102.087 31.8267 102.11 31.554 102.114C31.107 102.121 30.6903 102.042 30.304 101.875C29.9176 101.708 29.6051 101.451 29.3665 101.102C29.1278 100.754 29.0085 100.316 29.0085 99.7898V91.1818ZM36.9162 102.193C36.3632 102.193 35.8632 102.091 35.4162 101.886C34.9692 101.678 34.6151 101.377 34.3537 100.983C34.0961 100.589 33.9673 100.106 33.9673 99.5341C33.9673 99.0417 34.062 98.6364 34.2514 98.3182C34.4408 98 34.6965 97.7481 35.0185 97.5625C35.3404 97.3769 35.7003 97.2367 36.098 97.142C36.4957 97.0473 36.901 96.9754 37.3139 96.9261C37.8366 96.8655 38.2609 96.8163 38.5866 96.7784C38.9124 96.7367 39.1491 96.6705 39.2969 96.5795C39.4446 96.4886 39.5185 96.3409 39.5185 96.1364V96.0966C39.5185 95.6004 39.3783 95.2159 39.098 94.9432C38.8215 94.6705 38.4086 94.5341 37.8594 94.5341C37.2874 94.5341 36.8366 94.661 36.5071 94.9148C36.1813 95.1648 35.956 95.4432 35.831 95.75L34.2344 95.3864C34.4238 94.8561 34.7003 94.428 35.0639 94.1023C35.4313 93.7727 35.8537 93.5341 36.331 93.3864C36.8082 93.2348 37.3101 93.1591 37.8366 93.1591C38.1851 93.1591 38.5545 93.2008 38.9446 93.2841C39.3385 93.3636 39.706 93.5114 40.0469 93.7273C40.3916 93.9432 40.6738 94.2519 40.8935 94.6534C41.1132 95.0511 41.223 95.5682 41.223 96.2045V102H39.5639V100.807H39.4957C39.3859 101.027 39.2211 101.242 39.0014 101.455C38.7817 101.667 38.4995 101.843 38.1548 101.983C37.8101 102.123 37.3973 102.193 36.9162 102.193ZM37.2855 100.83C37.7552 100.83 38.1567 100.737 38.4901 100.551C38.8272 100.366 39.0829 100.123 39.2571 99.8239C39.4351 99.5208 39.5241 99.197 39.5241 98.8523V97.7273C39.4635 97.7879 39.3461 97.8447 39.1719 97.8977C39.0014 97.947 38.8063 97.9905 38.5866 98.0284C38.367 98.0625 38.1529 98.0947 37.9446 98.125C37.7363 98.1515 37.562 98.1742 37.4219 98.1932C37.0923 98.2348 36.7912 98.3049 36.5185 98.4034C36.2495 98.5019 36.0336 98.6439 35.8707 98.8295C35.7116 99.0114 35.6321 99.2538 35.6321 99.5568C35.6321 99.9773 35.7874 100.295 36.098 100.511C36.4086 100.723 36.8045 100.83 37.2855 100.83ZM43.4858 102V93.2727H45.1278V94.6591H45.2188C45.3778 94.1894 45.6581 93.8201 46.0597 93.5511C46.465 93.2784 46.9233 93.142 47.4347 93.142C47.5407 93.142 47.6657 93.1458 47.8097 93.1534C47.9574 93.161 48.0729 93.1705 48.1562 93.1818V94.8068C48.0881 94.7879 47.9669 94.767 47.7926 94.7443C47.6184 94.7178 47.4441 94.7045 47.2699 94.7045C46.8684 94.7045 46.5104 94.7898 46.196 94.9602C45.8854 95.1269 45.6392 95.3598 45.4574 95.6591C45.2756 95.9545 45.1847 96.2917 45.1847 96.6705V102H43.4858ZM56.1662 95.4034L54.6264 95.6761C54.562 95.4792 54.4598 95.2917 54.3196 95.1136C54.1832 94.9356 53.9976 94.7898 53.7628 94.6761C53.5279 94.5625 53.2344 94.5057 52.8821 94.5057C52.401 94.5057 51.9995 94.6136 51.6776 94.8295C51.3556 95.0417 51.1946 95.3163 51.1946 95.6534C51.1946 95.9451 51.3026 96.1799 51.5185 96.358C51.7344 96.536 52.0829 96.6818 52.5639 96.7955L53.9503 97.1136C54.7533 97.2992 55.3518 97.5852 55.7457 97.9716C56.1397 98.358 56.3366 98.8598 56.3366 99.4773C56.3366 100 56.1851 100.466 55.8821 100.875C55.5829 101.28 55.1643 101.598 54.6264 101.83C54.0923 102.061 53.473 102.176 52.7685 102.176C51.7912 102.176 50.9938 101.968 50.3764 101.551C49.759 101.131 49.3802 100.534 49.2401 99.7614L50.8821 99.5114C50.9844 99.9394 51.1946 100.263 51.5128 100.483C51.831 100.699 52.2457 100.807 52.7571 100.807C53.3139 100.807 53.759 100.691 54.0923 100.46C54.4257 100.225 54.5923 99.9394 54.5923 99.6023C54.5923 99.3295 54.4901 99.1004 54.2855 98.9148C54.0848 98.7292 53.776 98.589 53.3594 98.4943L51.8821 98.1705C51.0677 97.9848 50.4654 97.6894 50.0753 97.2841C49.6889 96.8788 49.4957 96.3655 49.4957 95.7443C49.4957 95.2292 49.6397 94.7784 49.9276 94.392C50.2154 94.0057 50.6132 93.7045 51.1207 93.4886C51.6283 93.2689 52.2098 93.1591 52.8651 93.1591C53.8082 93.1591 54.5507 93.3636 55.0923 93.7727C55.634 94.178 55.992 94.7216 56.1662 95.4034Z" fill="#4D4D4D"/>
<path d="M9.17045 137.159C8.39015 137.159 7.69318 137.025 7.07955 136.756C6.4697 136.487 5.98674 136.114 5.63068 135.636C5.27841 135.155 5.08902 134.598 5.0625 133.966H6.84659C6.86932 134.311 6.98485 134.61 7.19318 134.864C7.4053 135.114 7.68182 135.307 8.02273 135.443C8.36364 135.58 8.74242 135.648 9.15909 135.648C9.61742 135.648 10.0227 135.568 10.375 135.409C10.7311 135.25 11.0095 135.028 11.2102 134.744C11.411 134.456 11.5114 134.125 11.5114 133.75C11.5114 133.36 11.411 133.017 11.2102 132.722C11.0133 132.422 10.7235 132.187 10.3409 132.017C9.96212 131.847 9.50379 131.761 8.96591 131.761H7.98295V130.33H8.96591C9.39773 130.33 9.77652 130.252 10.1023 130.097C10.4318 129.941 10.6894 129.725 10.875 129.449C11.0606 129.169 11.1534 128.841 11.1534 128.466C11.1534 128.106 11.072 127.794 10.9091 127.528C10.75 127.259 10.5227 127.049 10.2273 126.898C9.93561 126.746 9.59091 126.67 9.19318 126.67C8.81439 126.67 8.46023 126.741 8.13068 126.881C7.80492 127.017 7.53977 127.214 7.33523 127.472C7.13068 127.725 7.02083 128.03 7.00568 128.386H5.30682C5.32576 127.758 5.51136 127.205 5.86364 126.727C6.2197 126.25 6.68939 125.877 7.27273 125.608C7.85606 125.339 8.50379 125.205 9.21591 125.205C9.96212 125.205 10.6061 125.35 11.1477 125.642C11.6932 125.93 12.1136 126.314 12.4091 126.795C12.7083 127.277 12.8561 127.803 12.8523 128.375C12.8561 129.027 12.6742 129.58 12.3068 130.034C11.9432 130.489 11.4583 130.794 10.8523 130.949V131.04C11.625 131.157 12.2235 131.464 12.6477 131.96C13.0758 132.456 13.2879 133.072 13.2841 133.807C13.2879 134.447 13.1098 135.021 12.75 135.528C12.3939 136.036 11.9072 136.436 11.2898 136.727C10.6723 137.015 9.96591 137.159 9.17045 137.159ZM26.2287 130.403L24.6889 130.676C24.6245 130.479 24.5223 130.292 24.3821 130.114C24.2457 129.936 24.0601 129.79 23.8253 129.676C23.5904 129.562 23.2969 129.506 22.9446 129.506C22.4635 129.506 22.062 129.614 21.7401 129.83C21.4181 130.042 21.2571 130.316 21.2571 130.653C21.2571 130.945 21.3651 131.18 21.581 131.358C21.7969 131.536 22.1454 131.682 22.6264 131.795L24.0128 132.114C24.8158 132.299 25.4143 132.585 25.8082 132.972C26.2022 133.358 26.3991 133.86 26.3991 134.477C26.3991 135 26.2476 135.466 25.9446 135.875C25.6454 136.28 25.2268 136.598 24.6889 136.83C24.1548 137.061 23.5355 137.176 22.831 137.176C21.8537 137.176 21.0563 136.968 20.4389 136.551C19.8215 136.131 19.4427 135.534 19.3026 134.761L20.9446 134.511C21.0469 134.939 21.2571 135.263 21.5753 135.483C21.8935 135.699 22.3082 135.807 22.8196 135.807C23.3764 135.807 23.8215 135.691 24.1548 135.46C24.4882 135.225 24.6548 134.939 24.6548 134.602C24.6548 134.33 24.5526 134.1 24.348 133.915C24.1473 133.729 23.8385 133.589 23.4219 133.494L21.9446 133.17C21.1302 132.985 20.5279 132.689 20.1378 132.284C19.7514 131.879 19.5582 131.366 19.5582 130.744C19.5582 130.229 19.7022 129.778 19.9901 129.392C20.2779 129.006 20.6757 128.705 21.1832 128.489C21.6908 128.269 22.2723 128.159 22.9276 128.159C23.8707 128.159 24.6132 128.364 25.1548 128.773C25.6965 129.178 26.0545 129.722 26.2287 130.403ZM32.3409 128.273V129.636H27.5739V128.273H32.3409ZM28.8523 126.182H30.5511V134.438C30.5511 134.767 30.6004 135.015 30.6989 135.182C30.7973 135.345 30.9242 135.456 31.0795 135.517C31.2386 135.574 31.411 135.602 31.5966 135.602C31.733 135.602 31.8523 135.593 31.9545 135.574C32.0568 135.555 32.1364 135.54 32.1932 135.528L32.5 136.932C32.4015 136.97 32.2614 137.008 32.0795 137.045C31.8977 137.087 31.6705 137.11 31.3977 137.114C30.9508 137.121 30.5341 137.042 30.1477 136.875C29.7614 136.708 29.4489 136.451 29.2102 136.102C28.9716 135.754 28.8523 135.316 28.8523 134.79V126.182ZM36.7599 137.193C36.2069 137.193 35.7069 137.091 35.2599 136.886C34.813 136.678 34.4588 136.377 34.1974 135.983C33.9399 135.589 33.8111 135.106 33.8111 134.534C33.8111 134.042 33.9058 133.636 34.0952 133.318C34.2846 133 34.5402 132.748 34.8622 132.562C35.1842 132.377 35.544 132.237 35.9418 132.142C36.3395 132.047 36.7448 131.975 37.1577 131.926C37.6804 131.866 38.1046 131.816 38.4304 131.778C38.7562 131.737 38.9929 131.67 39.1406 131.58C39.2884 131.489 39.3622 131.341 39.3622 131.136V131.097C39.3622 130.6 39.2221 130.216 38.9418 129.943C38.6652 129.67 38.2524 129.534 37.7031 129.534C37.1312 129.534 36.6804 129.661 36.3509 129.915C36.0251 130.165 35.7997 130.443 35.6747 130.75L34.0781 130.386C34.2675 129.856 34.544 129.428 34.9077 129.102C35.2751 128.773 35.6974 128.534 36.1747 128.386C36.652 128.235 37.1539 128.159 37.6804 128.159C38.0289 128.159 38.3982 128.201 38.7884 128.284C39.1823 128.364 39.5497 128.511 39.8906 128.727C40.2353 128.943 40.5175 129.252 40.7372 129.653C40.9569 130.051 41.0668 130.568 41.0668 131.205V137H39.4077V135.807H39.3395C39.2296 136.027 39.0649 136.242 38.8452 136.455C38.6255 136.667 38.3433 136.843 37.9986 136.983C37.6539 137.123 37.241 137.193 36.7599 137.193ZM37.1293 135.83C37.599 135.83 38.0005 135.737 38.3338 135.551C38.6709 135.366 38.9266 135.123 39.1009 134.824C39.2789 134.521 39.3679 134.197 39.3679 133.852V132.727C39.3073 132.788 39.1899 132.845 39.0156 132.898C38.8452 132.947 38.6501 132.991 38.4304 133.028C38.2107 133.062 37.9967 133.095 37.7884 133.125C37.58 133.152 37.4058 133.174 37.2656 133.193C36.9361 133.235 36.6349 133.305 36.3622 133.403C36.0933 133.502 35.8774 133.644 35.7145 133.83C35.5554 134.011 35.4759 134.254 35.4759 134.557C35.4759 134.977 35.6312 135.295 35.9418 135.511C36.2524 135.723 36.6482 135.83 37.1293 135.83ZM43.3295 137V128.273H44.9716V129.659H45.0625C45.2216 129.189 45.5019 128.82 45.9034 128.551C46.3087 128.278 46.767 128.142 47.2784 128.142C47.3845 128.142 47.5095 128.146 47.6534 128.153C47.8011 128.161 47.9167 128.17 48 128.182V129.807C47.9318 129.788 47.8106 129.767 47.6364 129.744C47.4621 129.718 47.2879 129.705 47.1136 129.705C46.7121 129.705 46.3542 129.79 46.0398 129.96C45.7292 130.127 45.483 130.36 45.3011 130.659C45.1193 130.955 45.0284 131.292 45.0284 131.67V137H43.3295ZM56.0099 130.403L54.4702 130.676C54.4058 130.479 54.3035 130.292 54.1634 130.114C54.027 129.936 53.8414 129.79 53.6065 129.676C53.3717 129.562 53.0781 129.506 52.7259 129.506C52.2448 129.506 51.8433 129.614 51.5213 129.83C51.1993 130.042 51.0384 130.316 51.0384 130.653C51.0384 130.945 51.1463 131.18 51.3622 131.358C51.5781 131.536 51.9266 131.682 52.4077 131.795L53.794 132.114C54.5971 132.299 55.1955 132.585 55.5895 132.972C55.9834 133.358 56.1804 133.86 56.1804 134.477C56.1804 135 56.0289 135.466 55.7259 135.875C55.4266 136.28 55.008 136.598 54.4702 136.83C53.9361 137.061 53.3168 137.176 52.6122 137.176C51.6349 137.176 50.8376 136.968 50.2202 136.551C49.6027 136.131 49.224 135.534 49.0838 134.761L50.7259 134.511C50.8281 134.939 51.0384 135.263 51.3565 135.483C51.6747 135.699 52.0895 135.807 52.6009 135.807C53.1577 135.807 53.6027 135.691 53.9361 135.46C54.2694 135.225 54.4361 134.939 54.4361 134.602C54.4361 134.33 54.3338 134.1 54.1293 133.915C53.9285 133.729 53.6198 133.589 53.2031 133.494L51.7259 133.17C50.9115 132.985 50.3092 132.689 49.919 132.284C49.5327 131.879 49.3395 131.366 49.3395 130.744C49.3395 130.229 49.4834 129.778 49.7713 129.392C50.0592 129.006 50.4569 128.705 50.9645 128.489C51.4721 128.269 52.0535 128.159 52.7088 128.159C53.652 128.159 54.3944 128.364 54.9361 128.773C55.4777 129.178 55.8357 129.722 56.0099 130.403Z" fill="#4D4D4D"/>
<path d="M5.11932 173V171.727L9.05682 167.648C9.47727 167.205 9.82386 166.816 10.0966 166.483C10.3731 166.146 10.5795 165.826 10.7159 165.523C10.8523 165.22 10.9205 164.898 10.9205 164.557C10.9205 164.17 10.8295 163.837 10.6477 163.557C10.4659 163.273 10.2178 163.055 9.90341 162.903C9.58902 162.748 9.23485 162.67 8.84091 162.67C8.42424 162.67 8.06061 162.756 7.75 162.926C7.43939 163.097 7.20076 163.337 7.03409 163.648C6.86742 163.958 6.78409 164.322 6.78409 164.739H5.10795C5.10795 164.03 5.27083 163.411 5.59659 162.881C5.92235 162.35 6.36932 161.939 6.9375 161.648C7.50568 161.352 8.15152 161.205 8.875 161.205C9.60606 161.205 10.25 161.35 10.8068 161.642C11.3674 161.93 11.8049 162.324 12.1193 162.824C12.4337 163.32 12.5909 163.881 12.5909 164.506C12.5909 164.938 12.5095 165.36 12.3466 165.773C12.1875 166.186 11.9091 166.646 11.5114 167.153C11.1136 167.657 10.5606 168.269 9.85227 168.989L7.53977 171.409V171.494H12.7784V173H5.11932ZM25.7287 166.403L24.1889 166.676C24.1245 166.479 24.0223 166.292 23.8821 166.114C23.7457 165.936 23.5601 165.79 23.3253 165.676C23.0904 165.562 22.7969 165.506 22.4446 165.506C21.9635 165.506 21.562 165.614 21.2401 165.83C20.9181 166.042 20.7571 166.316 20.7571 166.653C20.7571 166.945 20.8651 167.18 21.081 167.358C21.2969 167.536 21.6454 167.682 22.1264 167.795L23.5128 168.114C24.3158 168.299 24.9143 168.585 25.3082 168.972C25.7022 169.358 25.8991 169.86 25.8991 170.477C25.8991 171 25.7476 171.466 25.4446 171.875C25.1454 172.28 24.7268 172.598 24.1889 172.83C23.6548 173.061 23.0355 173.176 22.331 173.176C21.3537 173.176 20.5563 172.968 19.9389 172.551C19.3215 172.131 18.9427 171.534 18.8026 170.761L20.4446 170.511C20.5469 170.939 20.7571 171.263 21.0753 171.483C21.3935 171.699 21.8082 171.807 22.3196 171.807C22.8764 171.807 23.3215 171.691 23.6548 171.46C23.9882 171.225 24.1548 170.939 24.1548 170.602C24.1548 170.33 24.0526 170.1 23.848 169.915C23.6473 169.729 23.3385 169.589 22.9219 169.494L21.4446 169.17C20.6302 168.985 20.0279 168.689 19.6378 168.284C19.2514 167.879 19.0582 167.366 19.0582 166.744C19.0582 166.229 19.2022 165.778 19.4901 165.392C19.7779 165.006 20.1757 164.705 20.6832 164.489C21.1908 164.269 21.7723 164.159 22.4276 164.159C23.3707 164.159 24.1132 164.364 24.6548 164.773C25.1965 165.178 25.5545 165.722 25.7287 166.403ZM31.8409 164.273V165.636H27.0739V164.273H31.8409ZM28.3523 162.182H30.0511V170.438C30.0511 170.767 30.1004 171.015 30.1989 171.182C30.2973 171.345 30.4242 171.456 30.5795 171.517C30.7386 171.574 30.911 171.602 31.0966 171.602C31.233 171.602 31.3523 171.593 31.4545 171.574C31.5568 171.555 31.6364 171.54 31.6932 171.528L32 172.932C31.9015 172.97 31.7614 173.008 31.5795 173.045C31.3977 173.087 31.1705 173.11 30.8977 173.114C30.4508 173.121 30.0341 173.042 29.6477 172.875C29.2614 172.708 28.9489 172.451 28.7102 172.102C28.4716 171.754 28.3523 171.316 28.3523 170.79V162.182ZM36.2599 173.193C35.7069 173.193 35.2069 173.091 34.7599 172.886C34.313 172.678 33.9588 172.377 33.6974 171.983C33.4399 171.589 33.3111 171.106 33.3111 170.534C33.3111 170.042 33.4058 169.636 33.5952 169.318C33.7846 169 34.0402 168.748 34.3622 168.562C34.6842 168.377 35.044 168.237 35.4418 168.142C35.8395 168.047 36.2448 167.975 36.6577 167.926C37.1804 167.866 37.6046 167.816 37.9304 167.778C38.2562 167.737 38.4929 167.67 38.6406 167.58C38.7884 167.489 38.8622 167.341 38.8622 167.136V167.097C38.8622 166.6 38.7221 166.216 38.4418 165.943C38.1652 165.67 37.7524 165.534 37.2031 165.534C36.6312 165.534 36.1804 165.661 35.8509 165.915C35.5251 166.165 35.2997 166.443 35.1747 166.75L33.5781 166.386C33.7675 165.856 34.044 165.428 34.4077 165.102C34.7751 164.773 35.1974 164.534 35.6747 164.386C36.152 164.235 36.6539 164.159 37.1804 164.159C37.5289 164.159 37.8982 164.201 38.2884 164.284C38.6823 164.364 39.0497 164.511 39.3906 164.727C39.7353 164.943 40.0175 165.252 40.2372 165.653C40.4569 166.051 40.5668 166.568 40.5668 167.205V173H38.9077V171.807H38.8395C38.7296 172.027 38.5649 172.242 38.3452 172.455C38.1255 172.667 37.8433 172.843 37.4986 172.983C37.1539 173.123 36.741 173.193 36.2599 173.193ZM36.6293 171.83C37.099 171.83 37.5005 171.737 37.8338 171.551C38.1709 171.366 38.4266 171.123 38.6009 170.824C38.7789 170.521 38.8679 170.197 38.8679 169.852V168.727C38.8073 168.788 38.6899 168.845 38.5156 168.898C38.3452 168.947 38.1501 168.991 37.9304 169.028C37.7107 169.062 37.4967 169.095 37.2884 169.125C37.08 169.152 36.9058 169.174 36.7656 169.193C36.4361 169.235 36.1349 169.305 35.8622 169.403C35.5933 169.502 35.3774 169.644 35.2145 169.83C35.0554 170.011 34.9759 170.254 34.9759 170.557C34.9759 170.977 35.1312 171.295 35.4418 171.511C35.7524 171.723 36.1482 171.83 36.6293 171.83ZM42.8295 173V164.273H44.4716V165.659H44.5625C44.7216 165.189 45.0019 164.82 45.4034 164.551C45.8087 164.278 46.267 164.142 46.7784 164.142C46.8845 164.142 47.0095 164.146 47.1534 164.153C47.3011 164.161 47.4167 164.17 47.5 164.182V165.807C47.4318 165.788 47.3106 165.767 47.1364 165.744C46.9621 165.718 46.7879 165.705 46.6136 165.705C46.2121 165.705 45.8542 165.79 45.5398 165.96C45.2292 166.127 44.983 166.36 44.8011 166.659C44.6193 166.955 44.5284 167.292 44.5284 167.67V173H42.8295ZM55.5099 166.403L53.9702 166.676C53.9058 166.479 53.8035 166.292 53.6634 166.114C53.527 165.936 53.3414 165.79 53.1065 165.676C52.8717 165.562 52.5781 165.506 52.2259 165.506C51.7448 165.506 51.3433 165.614 51.0213 165.83C50.6993 166.042 50.5384 166.316 50.5384 166.653C50.5384 166.945 50.6463 167.18 50.8622 167.358C51.0781 167.536 51.4266 167.682 51.9077 167.795L53.294 168.114C54.0971 168.299 54.6955 168.585 55.0895 168.972C55.4834 169.358 55.6804 169.86 55.6804 170.477C55.6804 171 55.5289 171.466 55.2259 171.875C54.9266 172.28 54.508 172.598 53.9702 172.83C53.4361 173.061 52.8168 173.176 52.1122 173.176C51.1349 173.176 50.3376 172.968 49.7202 172.551C49.1027 172.131 48.724 171.534 48.5838 170.761L50.2259 170.511C50.3281 170.939 50.5384 171.263 50.8565 171.483C51.1747 171.699 51.5895 171.807 52.1009 171.807C52.6577 171.807 53.1027 171.691 53.4361 171.46C53.7694 171.225 53.9361 170.939 53.9361 170.602C53.9361 170.33 53.8338 170.1 53.6293 169.915C53.4285 169.729 53.1198 169.589 52.7031 169.494L51.2259 169.17C50.4115 168.985 49.8092 168.689 49.419 168.284C49.0327 167.879 48.8395 167.366 48.8395 166.744C48.8395 166.229 48.9834 165.778 49.2713 165.392C49.5592 165.006 49.9569 164.705 50.4645 164.489C50.9721 164.269 51.5535 164.159 52.2088 164.159C53.152 164.159 53.8944 164.364 54.4361 164.773C54.9777 165.178 55.3357 165.722 55.5099 166.403Z" fill="#4D4D4D"/>
<path d="M9.53409 196.364V208H7.77273V198.125H7.70455L4.92045 199.943V198.261L7.82386 196.364H9.53409ZM23.4787 201.403L21.9389 201.676C21.8745 201.479 21.7723 201.292 21.6321 201.114C21.4957 200.936 21.3101 200.79 21.0753 200.676C20.8404 200.562 20.5469 200.506 20.1946 200.506C19.7135 200.506 19.312 200.614 18.9901 200.83C18.6681 201.042 18.5071 201.316 18.5071 201.653C18.5071 201.945 18.6151 202.18 18.831 202.358C19.0469 202.536 19.3954 202.682 19.8764 202.795L21.2628 203.114C22.0658 203.299 22.6643 203.585 23.0582 203.972C23.4522 204.358 23.6491 204.86 23.6491 205.477C23.6491 206 23.4976 206.466 23.1946 206.875C22.8954 207.28 22.4768 207.598 21.9389 207.83C21.4048 208.061 20.7855 208.176 20.081 208.176C19.1037 208.176 18.3063 207.968 17.6889 207.551C17.0715 207.131 16.6927 206.534 16.5526 205.761L18.1946 205.511C18.2969 205.939 18.5071 206.263 18.8253 206.483C19.1435 206.699 19.5582 206.807 20.0696 206.807C20.6264 206.807 21.0715 206.691 21.4048 206.46C21.7382 206.225 21.9048 205.939 21.9048 205.602C21.9048 205.33 21.8026 205.1 21.598 204.915C21.3973 204.729 21.0885 204.589 20.6719 204.494L19.1946 204.17C18.3802 203.985 17.7779 203.689 17.3878 203.284C17.0014 202.879 16.8082 202.366 16.8082 201.744C16.8082 201.229 16.9522 200.778 17.2401 200.392C17.5279 200.006 17.9257 199.705 18.4332 199.489C18.9408 199.269 19.5223 199.159 20.1776 199.159C21.1207 199.159 21.8632 199.364 22.4048 199.773C22.9465 200.178 23.3045 200.722 23.4787 201.403ZM29.5909 199.273V200.636H24.8239V199.273H29.5909ZM26.1023 197.182H27.8011V205.438C27.8011 205.767 27.8504 206.015 27.9489 206.182C28.0473 206.345 28.1742 206.456 28.3295 206.517C28.4886 206.574 28.661 206.602 28.8466 206.602C28.983 206.602 29.1023 206.593 29.2045 206.574C29.3068 206.555 29.3864 206.54 29.4432 206.528L29.75 207.932C29.6515 207.97 29.5114 208.008 29.3295 208.045C29.1477 208.087 28.9205 208.11 28.6477 208.114C28.2008 208.121 27.7841 208.042 27.3977 207.875C27.0114 207.708 26.6989 207.451 26.4602 207.102C26.2216 206.754 26.1023 206.316 26.1023 205.79V197.182ZM34.0099 208.193C33.4569 208.193 32.9569 208.091 32.5099 207.886C32.063 207.678 31.7088 207.377 31.4474 206.983C31.1899 206.589 31.0611 206.106 31.0611 205.534C31.0611 205.042 31.1558 204.636 31.3452 204.318C31.5346 204 31.7902 203.748 32.1122 203.562C32.4342 203.377 32.794 203.237 33.1918 203.142C33.5895 203.047 33.9948 202.975 34.4077 202.926C34.9304 202.866 35.3546 202.816 35.6804 202.778C36.0062 202.737 36.2429 202.67 36.3906 202.58C36.5384 202.489 36.6122 202.341 36.6122 202.136V202.097C36.6122 201.6 36.4721 201.216 36.1918 200.943C35.9152 200.67 35.5024 200.534 34.9531 200.534C34.3812 200.534 33.9304 200.661 33.6009 200.915C33.2751 201.165 33.0497 201.443 32.9247 201.75L31.3281 201.386C31.5175 200.856 31.794 200.428 32.1577 200.102C32.5251 199.773 32.9474 199.534 33.4247 199.386C33.902 199.235 34.4039 199.159 34.9304 199.159C35.2789 199.159 35.6482 199.201 36.0384 199.284C36.4323 199.364 36.7997 199.511 37.1406 199.727C37.4853 199.943 37.7675 200.252 37.9872 200.653C38.2069 201.051 38.3168 201.568 38.3168 202.205V208H36.6577V206.807H36.5895C36.4796 207.027 36.3149 207.242 36.0952 207.455C35.8755 207.667 35.5933 207.843 35.2486 207.983C34.9039 208.123 34.491 208.193 34.0099 208.193ZM34.3793 206.83C34.849 206.83 35.2505 206.737 35.5838 206.551C35.9209 206.366 36.1766 206.123 36.3509 205.824C36.5289 205.521 36.6179 205.197 36.6179 204.852V203.727C36.5573 203.788 36.4399 203.845 36.2656 203.898C36.0952 203.947 35.9001 203.991 35.6804 204.028C35.4607 204.062 35.2467 204.095 35.0384 204.125C34.83 204.152 34.6558 204.174 34.5156 204.193C34.1861 204.235 33.8849 204.305 33.6122 204.403C33.3433 204.502 33.1274 204.644 32.9645 204.83C32.8054 205.011 32.7259 205.254 32.7259 205.557C32.7259 205.977 32.8812 206.295 33.1918 206.511C33.5024 206.723 33.8982 206.83 34.3793 206.83ZM40.5795 208V199.273H42.2216V200.659H42.3125C42.4716 200.189 42.7519 199.82 43.1534 199.551C43.5587 199.278 44.017 199.142 44.5284 199.142C44.6345 199.142 44.7595 199.146 44.9034 199.153C45.0511 199.161 45.1667 199.17 45.25 199.182V200.807C45.1818 200.788 45.0606 200.767 44.8864 200.744C44.7121 200.718 44.5379 200.705 44.3636 200.705C43.9621 200.705 43.6042 200.79 43.2898 200.96C42.9792 201.127 42.733 201.36 42.5511 201.659C42.3693 201.955 42.2784 202.292 42.2784 202.67V208H40.5795Z" fill="#4D4D4D"/>
<path d="M10.3864 24.3182C8.7803 24.3182 7.34849 24.0227 6.09091 23.4318C4.84091 22.8409 3.84848 22.0265 3.11364 20.9886C2.37879 19.9508 1.99621 18.7614 1.96591 17.4205H6.73864C6.79167 18.322 7.17045 19.053 7.875 19.6136C8.57955 20.1742 9.41667 20.4545 10.3864 20.4545C11.1591 20.4545 11.8409 20.2841 12.4318 19.9432C13.0303 19.5947 13.4962 19.1136 13.8295 18.5C14.1705 17.8788 14.3409 17.1667 14.3409 16.3636C14.3409 15.5455 14.1667 14.8258 13.8182 14.2045C13.4773 13.5833 13.0038 13.0985 12.3977 12.75C11.7917 12.4015 11.0985 12.2235 10.3182 12.2159C9.63636 12.2159 8.97349 12.3561 8.32955 12.6364C7.69318 12.9167 7.19697 13.2992 6.84091 13.7841L2.46591 13L3.56818 0.727272H17.7955V4.75H7.625L7.02273 10.5795H7.15909C7.56818 10.0038 8.18561 9.52652 9.01136 9.14773C9.83712 8.76894 10.7614 8.57955 11.7841 8.57955C13.1856 8.57955 14.4356 8.90909 15.5341 9.56818C16.6326 10.2273 17.5 11.1326 18.1364 12.2841C18.7727 13.428 19.0871 14.7462 19.0795 16.2386C19.0871 17.8068 18.7235 19.2008 17.9886 20.4205C17.2614 21.6326 16.2424 22.5871 14.9318 23.2841C13.6288 23.9735 12.1136 24.3182 10.3864 24.3182ZM24.6364 24.2955C23.8864 24.2955 23.2424 24.0303 22.7045 23.5C22.1742 22.9621 21.9091 22.3182 21.9091 21.5682C21.9091 20.8258 22.1742 20.1894 22.7045 19.6591C23.2424 19.1288 23.8864 18.8636 24.6364 18.8636C25.3636 18.8636 26 19.1288 26.5455 19.6591C27.0909 20.1894 27.3636 20.8258 27.3636 21.5682C27.3636 22.0682 27.2348 22.5265 26.9773 22.9432C26.7273 23.3523 26.3977 23.6818 25.9886 23.9318C25.5795 24.1742 25.1288 24.2955 24.6364 24.2955ZM39.4801 24.5114C37.5256 24.5038 35.8438 24.0227 34.4347 23.0682C33.0331 22.1136 31.9536 20.7311 31.196 18.9205C30.446 17.1098 30.0748 14.9318 30.0824 12.3864C30.0824 9.84848 30.4574 7.68561 31.2074 5.89773C31.965 4.10985 33.0445 2.75 34.446 1.81818C35.8551 0.878787 37.5331 0.40909 39.4801 0.40909C41.4271 0.40909 43.1013 0.878787 44.5028 1.81818C45.9119 2.75758 46.9953 4.12121 47.7528 5.90909C48.5104 7.68939 48.8854 9.84848 48.8778 12.3864C48.8778 14.9394 48.4991 17.1212 47.7415 18.9318C46.9915 20.7424 45.9157 22.125 44.5142 23.0795C43.1127 24.0341 41.4347 24.5114 39.4801 24.5114ZM39.4801 20.4318C40.8134 20.4318 41.8778 19.7614 42.6733 18.4205C43.4688 17.0795 43.8627 15.0682 43.8551 12.3864C43.8551 10.6212 43.6733 9.15151 43.3097 7.97727C42.9536 6.80303 42.446 5.92045 41.7869 5.32954C41.1354 4.73864 40.3665 4.44318 39.4801 4.44318C38.1544 4.44318 37.0938 5.10606 36.2983 6.43182C35.5028 7.75758 35.1013 9.74242 35.0938 12.3864C35.0938 14.1742 35.2718 15.6667 35.6278 16.8636C35.9915 18.053 36.5028 18.947 37.1619 19.5455C37.821 20.1364 38.5938 20.4318 39.4801 20.4318Z" fill="#161616"/>
<path d="M89.8182 19.1761C89 19.1761 88.286 18.9886 87.6761 18.6136C87.0663 18.2386 86.5928 17.714 86.2557 17.0398C85.9186 16.3655 85.75 15.5777 85.75 14.6761C85.75 13.7708 85.9186 12.9792 86.2557 12.3011C86.5928 11.6231 87.0663 11.0966 87.6761 10.7216C88.286 10.3466 89 10.1591 89.8182 10.1591C90.6364 10.1591 91.3504 10.3466 91.9602 10.7216C92.5701 11.0966 93.0436 11.6231 93.3807 12.3011C93.7178 12.9792 93.8864 13.7708 93.8864 14.6761C93.8864 15.5777 93.7178 16.3655 93.3807 17.0398C93.0436 17.714 92.5701 18.2386 91.9602 18.6136C91.3504 18.9886 90.6364 19.1761 89.8182 19.1761ZM89.8239 17.75C90.3542 17.75 90.7936 17.6098 91.142 17.3295C91.4905 17.0492 91.7481 16.6761 91.9148 16.2102C92.0852 15.7443 92.1705 15.2311 92.1705 14.6705C92.1705 14.1136 92.0852 13.6023 91.9148 13.1364C91.7481 12.6667 91.4905 12.2898 91.142 12.0057C90.7936 11.7216 90.3542 11.5795 89.8239 11.5795C89.2898 11.5795 88.8466 11.7216 88.4943 12.0057C88.1458 12.2898 87.8864 12.6667 87.7159 13.1364C87.5492 13.6023 87.4659 14.1136 87.4659 14.6705C87.4659 15.2311 87.5492 15.7443 87.7159 16.2102C87.8864 16.6761 88.1458 17.0492 88.4943 17.3295C88.8466 17.6098 89.2898 17.75 89.8239 17.75ZM102.952 10.2727L99.7869 19H97.9688L94.7983 10.2727H96.6222L98.8324 16.9886H98.9233L101.128 10.2727H102.952ZM108.013 19.1761C107.153 19.1761 106.412 18.9924 105.791 18.625C105.174 18.2538 104.696 17.733 104.359 17.0625C104.026 16.3883 103.859 15.5985 103.859 14.6932C103.859 13.7992 104.026 13.0114 104.359 12.3295C104.696 11.6477 105.166 11.1155 105.768 10.733C106.375 10.3504 107.083 10.1591 107.893 10.1591C108.386 10.1591 108.863 10.2405 109.325 10.4034C109.787 10.5663 110.202 10.822 110.57 11.1705C110.937 11.5189 111.227 11.9716 111.439 12.5284C111.651 13.0814 111.757 13.7538 111.757 14.5455V15.1477H104.82V13.875H110.092C110.092 13.428 110.001 13.0322 109.82 12.6875C109.638 12.339 109.382 12.0644 109.053 11.8636C108.727 11.6629 108.344 11.5625 107.905 11.5625C107.428 11.5625 107.011 11.6799 106.655 11.9148C106.303 12.1458 106.03 12.4489 105.837 12.8239C105.647 13.1951 105.553 13.5985 105.553 14.0341V15.0284C105.553 15.6117 105.655 16.108 105.859 16.517C106.068 16.9261 106.357 17.2386 106.729 17.4545C107.1 17.6667 107.534 17.7727 108.03 17.7727C108.352 17.7727 108.645 17.7273 108.911 17.6364C109.176 17.5417 109.405 17.4015 109.598 17.2159C109.791 17.0303 109.939 16.8011 110.041 16.5284L111.649 16.8182C111.52 17.2917 111.289 17.7064 110.956 18.0625C110.626 18.4148 110.212 18.6894 109.712 18.8864C109.215 19.0795 108.649 19.1761 108.013 19.1761ZM113.642 19V10.2727H115.284V11.6591H115.375C115.534 11.1894 115.814 10.8201 116.216 10.5511C116.621 10.2784 117.08 10.142 117.591 10.142C117.697 10.142 117.822 10.1458 117.966 10.1534C118.114 10.161 118.229 10.1705 118.312 10.1818V11.8068C118.244 11.7879 118.123 11.767 117.949 11.7443C117.775 11.7178 117.6 11.7045 117.426 11.7045C117.025 11.7045 116.667 11.7898 116.352 11.9602C116.042 12.1269 115.795 12.3598 115.614 12.6591C115.432 12.9545 115.341 13.2917 115.341 13.6705V19H113.642ZM122.244 19.1932C121.691 19.1932 121.191 19.0909 120.744 18.8864C120.297 18.678 119.943 18.3769 119.682 17.983C119.424 17.589 119.295 17.1061 119.295 16.5341C119.295 16.0417 119.39 15.6364 119.58 15.3182C119.769 15 120.025 14.7481 120.347 14.5625C120.669 14.3769 121.028 14.2367 121.426 14.142C121.824 14.0473 122.229 13.9754 122.642 13.9261C123.165 13.8655 123.589 13.8163 123.915 13.7784C124.241 13.7367 124.477 13.6705 124.625 13.5795C124.773 13.4886 124.847 13.3409 124.847 13.1364V13.0966C124.847 12.6004 124.706 12.2159 124.426 11.9432C124.15 11.6705 123.737 11.5341 123.188 11.5341C122.616 11.5341 122.165 11.661 121.835 11.9148C121.509 12.1648 121.284 12.4432 121.159 12.75L119.562 12.3864C119.752 11.8561 120.028 11.428 120.392 11.1023C120.759 10.7727 121.182 10.5341 121.659 10.3864C122.136 10.2348 122.638 10.1591 123.165 10.1591C123.513 10.1591 123.883 10.2008 124.273 10.2841C124.667 10.3636 125.034 10.5114 125.375 10.7273C125.72 10.9432 126.002 11.2519 126.222 11.6534C126.441 12.0511 126.551 12.5682 126.551 13.2045V19H124.892V17.8068H124.824C124.714 18.0265 124.549 18.2424 124.33 18.4545C124.11 18.6667 123.828 18.8428 123.483 18.983C123.138 19.1231 122.725 19.1932 122.244 19.1932ZM122.614 17.8295C123.083 17.8295 123.485 17.7367 123.818 17.5511C124.155 17.3655 124.411 17.1231 124.585 16.8239C124.763 16.5208 124.852 16.197 124.852 15.8523V14.7273C124.792 14.7879 124.674 14.8447 124.5 14.8977C124.33 14.947 124.134 14.9905 123.915 15.0284C123.695 15.0625 123.481 15.0947 123.273 15.125C123.064 15.1515 122.89 15.1742 122.75 15.1932C122.42 15.2348 122.119 15.3049 121.847 15.4034C121.578 15.5019 121.362 15.6439 121.199 15.8295C121.04 16.0114 120.96 16.2538 120.96 16.5568C120.96 16.9773 121.116 17.2955 121.426 17.5114C121.737 17.7235 122.133 17.8295 122.614 17.8295ZM130.513 7.36364V19H128.814V7.36364H130.513ZM134.497 7.36364V19H132.798V7.36364H134.497ZM141.017 19V10.2727H142.659V11.6591H142.75C142.909 11.1894 143.189 10.8201 143.591 10.5511C143.996 10.2784 144.455 10.142 144.966 10.142C145.072 10.142 145.197 10.1458 145.341 10.1534C145.489 10.161 145.604 10.1705 145.688 10.1818V11.8068C145.619 11.7879 145.498 11.767 145.324 11.7443C145.15 11.7178 144.975 11.7045 144.801 11.7045C144.4 11.7045 144.042 11.7898 143.727 11.9602C143.417 12.1269 143.17 12.3598 142.989 12.6591C142.807 12.9545 142.716 13.2917 142.716 13.6705V19H141.017ZM149.619 19.1932C149.066 19.1932 148.566 19.0909 148.119 18.8864C147.672 18.678 147.318 18.3769 147.057 17.983C146.799 17.589 146.67 17.1061 146.67 16.5341C146.67 16.0417 146.765 15.6364 146.955 15.3182C147.144 15 147.4 14.7481 147.722 14.5625C148.044 14.3769 148.403 14.2367 148.801 14.142C149.199 14.0473 149.604 13.9754 150.017 13.9261C150.54 13.8655 150.964 13.8163 151.29 13.7784C151.616 13.7367 151.852 13.6705 152 13.5795C152.148 13.4886 152.222 13.3409 152.222 13.1364V13.0966C152.222 12.6004 152.081 12.2159 151.801 11.9432C151.525 11.6705 151.112 11.5341 150.562 11.5341C149.991 11.5341 149.54 11.661 149.21 11.9148C148.884 12.1648 148.659 12.4432 148.534 12.75L146.938 12.3864C147.127 11.8561 147.403 11.428 147.767 11.1023C148.134 10.7727 148.557 10.5341 149.034 10.3864C149.511 10.2348 150.013 10.1591 150.54 10.1591C150.888 10.1591 151.258 10.2008 151.648 10.2841C152.042 10.3636 152.409 10.5114 152.75 10.7273C153.095 10.9432 153.377 11.2519 153.597 11.6534C153.816 12.0511 153.926 12.5682 153.926 13.2045V19H152.267V17.8068H152.199C152.089 18.0265 151.924 18.2424 151.705 18.4545C151.485 18.6667 151.203 18.8428 150.858 18.983C150.513 19.1231 150.1 19.1932 149.619 19.1932ZM149.989 17.8295C150.458 17.8295 150.86 17.7367 151.193 17.5511C151.53 17.3655 151.786 17.1231 151.96 16.8239C152.138 16.5208 152.227 16.197 152.227 15.8523V14.7273C152.167 14.7879 152.049 14.8447 151.875 14.8977C151.705 14.947 151.509 14.9905 151.29 15.0284C151.07 15.0625 150.856 15.0947 150.648 15.125C150.439 15.1515 150.265 15.1742 150.125 15.1932C149.795 15.2348 149.494 15.3049 149.222 15.4034C148.953 15.5019 148.737 15.6439 148.574 15.8295C148.415 16.0114 148.335 16.2538 148.335 16.5568C148.335 16.9773 148.491 17.2955 148.801 17.5114C149.112 17.7235 149.508 17.8295 149.989 17.8295ZM160.263 10.2727V11.6364H155.496V10.2727H160.263ZM156.774 8.18182H158.473V16.4375C158.473 16.767 158.522 17.0152 158.621 17.1818C158.719 17.3447 158.846 17.4564 159.001 17.517C159.161 17.5739 159.333 17.6023 159.518 17.6023C159.655 17.6023 159.774 17.5928 159.876 17.5739C159.979 17.5549 160.058 17.5398 160.115 17.5284L160.422 18.9318C160.323 18.9697 160.183 19.0076 160.001 19.0455C159.82 19.0871 159.592 19.1098 159.32 19.1136C158.873 19.1212 158.456 19.0417 158.07 18.875C157.683 18.7083 157.371 18.4508 157.132 18.1023C156.893 17.7538 156.774 17.3163 156.774 16.7898V8.18182ZM162.142 19V10.2727H163.841V19H162.142ZM163 8.92614C162.705 8.92614 162.451 8.82765 162.239 8.63068C162.03 8.42992 161.926 8.19129 161.926 7.91477C161.926 7.63447 162.03 7.39583 162.239 7.19886C162.451 6.99811 162.705 6.89773 163 6.89773C163.295 6.89773 163.547 6.99811 163.756 7.19886C163.968 7.39583 164.074 7.63447 164.074 7.91477C164.074 8.19129 163.968 8.42992 163.756 8.63068C163.547 8.82765 163.295 8.92614 163 8.92614ZM167.825 13.8182V19H166.126V10.2727H167.757V11.6932H167.865C168.066 11.2311 168.38 10.8598 168.808 10.5795C169.24 10.2992 169.784 10.1591 170.439 10.1591C171.034 10.1591 171.554 10.2841 172.001 10.5341C172.448 10.7803 172.795 11.1477 173.041 11.6364C173.287 12.125 173.411 12.7292 173.411 13.4489V19H171.712V13.6534C171.712 13.0208 171.547 12.5265 171.217 12.1705C170.888 11.8106 170.435 11.6307 169.859 11.6307C169.465 11.6307 169.115 11.7159 168.808 11.8864C168.505 12.0568 168.265 12.3068 168.087 12.6364C167.912 12.9621 167.825 13.3561 167.825 13.8182ZM179.348 22.4545C178.655 22.4545 178.058 22.3636 177.558 22.1818C177.062 22 176.657 21.7595 176.342 21.4602C176.028 21.161 175.793 20.8333 175.638 20.4773L177.098 19.875C177.2 20.0417 177.337 20.2178 177.507 20.4034C177.681 20.5928 177.916 20.7538 178.212 20.8864C178.511 21.0189 178.895 21.0852 179.365 21.0852C180.009 21.0852 180.541 20.928 180.962 20.6136C181.382 20.303 181.592 19.8068 181.592 19.125V17.4091H181.484C181.382 17.5947 181.234 17.8011 181.041 18.0284C180.852 18.2557 180.59 18.4527 180.257 18.6193C179.924 18.786 179.49 18.8693 178.956 18.8693C178.267 18.8693 177.645 18.7083 177.092 18.3864C176.543 18.0606 176.107 17.5814 175.786 16.9489C175.467 16.3125 175.308 15.5303 175.308 14.6023C175.308 13.6742 175.465 12.8788 175.78 12.2159C176.098 11.553 176.534 11.0455 177.087 10.6932C177.64 10.3371 178.267 10.1591 178.967 10.1591C179.509 10.1591 179.946 10.25 180.28 10.4318C180.613 10.6098 180.873 10.8182 181.058 11.0568C181.248 11.2955 181.393 11.5057 181.496 11.6875H181.621V10.2727H183.286V19.1932C183.286 19.9432 183.111 20.5587 182.763 21.0398C182.414 21.5208 181.943 21.8769 181.348 22.108C180.757 22.339 180.09 22.4545 179.348 22.4545ZM179.331 17.4602C179.82 17.4602 180.232 17.3466 180.57 17.1193C180.911 16.8883 181.168 16.5587 181.342 16.1307C181.52 15.6989 181.609 15.1818 181.609 14.5795C181.609 13.9924 181.522 13.4754 181.348 13.0284C181.174 12.5814 180.918 12.233 180.581 11.983C180.244 11.7292 179.827 11.6023 179.331 11.6023C178.82 11.6023 178.393 11.7348 178.053 12C177.712 12.2614 177.454 12.6174 177.28 13.0682C177.109 13.5189 177.024 14.0227 177.024 14.5795C177.024 15.1515 177.111 15.6534 177.286 16.0852C177.46 16.517 177.717 16.8542 178.058 17.0966C178.403 17.339 178.827 17.4602 179.331 17.4602Z" fill="#161616"/>
<path d="M68.3012 3.8436C68.6479 2.88278 70.0068 2.88278 70.3535 3.8436L72.0595 8.57118C72.2156 9.0036 72.6259 9.2918 73.0856 9.2918H78.3421C79.4264 9.2918 79.8467 10.702 78.9393 11.2956L74.8905 13.9443C74.4675 14.221 74.29 14.7521 74.4615 15.2275L76.0532 19.6383C76.4087 20.6236 75.3064 21.495 74.4298 20.9215L69.9246 17.9743C69.5618 17.737 69.0929 17.737 68.7302 17.9743L64.2249 20.9215C63.3483 21.495 62.246 20.6236 62.6015 19.6383L64.1932 15.2275C64.3648 14.7521 64.1873 14.221 63.7643 13.9443L59.7154 11.2956C58.808 10.702 59.2283 9.2918 60.3126 9.2918H65.5691C66.0288 9.2918 66.4392 9.0036 66.5952 8.57118L68.3012 3.8436Z" fill="#FF8C38"/>
<line x1="93" y1="62" x2="420" y2="62" stroke="#FF8C38" stroke-width="8" stroke-linecap="round"/>
<line x1="93" y1="98" x2="420" y2="98" stroke="#B9B9B9" stroke-width="8" stroke-linecap="round"/>
<line x1="93" y1="134" x2="420" y2="134" stroke="#B9B9B9" stroke-width="8" stroke-linecap="round"/>
<line x1="93" y1="170" x2="420" y2="170" stroke="#B9B9B9" stroke-width="8" stroke-linecap="round"/>
<line x1="93" y1="206" x2="420" y2="206" stroke="#B9B9B9" stroke-width="8" stroke-linecap="round"/>
</svg>
